<mxfile host="app.diagrams.net" modified="2021-03-04T10:16:21.496Z" agent="5.0 (Macintosh; Intel Mac OS X 10_15_4) AppleWebKit/537.36 (KHTML, like Gecko) Chrome/88.0.4324.182 Safari/537.36" etag="s8D3rnNx6OG5hPYIQAPK" version="14.4.4" type="github" pages="2">
  <diagram id="C5RBs43oDa-KdzZeNtuy" name="Page-1">
    <mxGraphModel dx="2571" dy="918" grid="1" gridSize="10" guides="1" tooltips="1" connect="1" arrows="1" fold="1" page="1" pageScale="1" pageWidth="827" pageHeight="1169" math="0" shadow="0">
      <root>
        <mxCell id="WIyWlLk6GJQsqaUBKTNV-0" />
        <mxCell id="WIyWlLk6GJQsqaUBKTNV-1" parent="WIyWlLk6GJQsqaUBKTNV-0" />
        <mxCell id="4LG-1AffiDdCxsdQH5-A-5" value="" style="edgeStyle=orthogonalEdgeStyle;rounded=0;orthogonalLoop=1;jettySize=auto;html=1;" parent="WIyWlLk6GJQsqaUBKTNV-1" source="4LG-1AffiDdCxsdQH5-A-2" target="4LG-1AffiDdCxsdQH5-A-4" edge="1">
          <mxGeometry relative="1" as="geometry" />
        </mxCell>
        <mxCell id="4LG-1AffiDdCxsdQH5-A-8" style="edgeStyle=orthogonalEdgeStyle;rounded=0;orthogonalLoop=1;jettySize=auto;html=1;entryX=0.417;entryY=0;entryDx=0;entryDy=0;entryPerimeter=0;" parent="WIyWlLk6GJQsqaUBKTNV-1" source="4LG-1AffiDdCxsdQH5-A-2" target="4LG-1AffiDdCxsdQH5-A-6" edge="1">
          <mxGeometry relative="1" as="geometry">
            <mxPoint x="10" y="570" as="targetPoint" />
            <Array as="points">
              <mxPoint x="220" y="620" />
              <mxPoint x="-160" y="620" />
              <mxPoint x="-160" y="680" />
            </Array>
          </mxGeometry>
        </mxCell>
        <mxCell id="4LG-1AffiDdCxsdQH5-A-9" style="edgeStyle=orthogonalEdgeStyle;rounded=0;orthogonalLoop=1;jettySize=auto;html=1;" parent="WIyWlLk6GJQsqaUBKTNV-1" source="4LG-1AffiDdCxsdQH5-A-2" target="4LG-1AffiDdCxsdQH5-A-10" edge="1">
          <mxGeometry relative="1" as="geometry">
            <mxPoint x="410" y="680" as="targetPoint" />
            <Array as="points">
              <mxPoint x="220" y="620" />
              <mxPoint x="455" y="620" />
            </Array>
          </mxGeometry>
        </mxCell>
        <mxCell id="4LG-1AffiDdCxsdQH5-A-2" value="CEO" style="rounded=0;whiteSpace=wrap;html=1;" parent="WIyWlLk6GJQsqaUBKTNV-1" vertex="1">
          <mxGeometry x="160" y="540" width="120" height="60" as="geometry" />
        </mxCell>
        <mxCell id="4LG-1AffiDdCxsdQH5-A-32" style="edgeStyle=orthogonalEdgeStyle;rounded=0;orthogonalLoop=1;jettySize=auto;html=1;entryX=0.592;entryY=0.033;entryDx=0;entryDy=0;entryPerimeter=0;" parent="WIyWlLk6GJQsqaUBKTNV-1" source="4LG-1AffiDdCxsdQH5-A-4" target="4LG-1AffiDdCxsdQH5-A-27" edge="1">
          <mxGeometry relative="1" as="geometry" />
        </mxCell>
        <mxCell id="4LG-1AffiDdCxsdQH5-A-33" style="edgeStyle=orthogonalEdgeStyle;rounded=0;orthogonalLoop=1;jettySize=auto;html=1;entryX=0.367;entryY=-0.083;entryDx=0;entryDy=0;entryPerimeter=0;" parent="WIyWlLk6GJQsqaUBKTNV-1" source="4LG-1AffiDdCxsdQH5-A-4" target="4LG-1AffiDdCxsdQH5-A-30" edge="1">
          <mxGeometry relative="1" as="geometry" />
        </mxCell>
        <mxCell id="4LG-1AffiDdCxsdQH5-A-4" value="CTO" style="whiteSpace=wrap;html=1;rounded=0;" parent="WIyWlLk6GJQsqaUBKTNV-1" vertex="1">
          <mxGeometry x="160" y="680" width="120" height="60" as="geometry" />
        </mxCell>
        <mxCell id="4LG-1AffiDdCxsdQH5-A-14" value="" style="edgeStyle=orthogonalEdgeStyle;rounded=0;orthogonalLoop=1;jettySize=auto;html=1;" parent="WIyWlLk6GJQsqaUBKTNV-1" source="4LG-1AffiDdCxsdQH5-A-6" target="4LG-1AffiDdCxsdQH5-A-13" edge="1">
          <mxGeometry relative="1" as="geometry" />
        </mxCell>
        <mxCell id="4LG-1AffiDdCxsdQH5-A-15" value="" style="edgeStyle=orthogonalEdgeStyle;rounded=0;orthogonalLoop=1;jettySize=auto;html=1;" parent="WIyWlLk6GJQsqaUBKTNV-1" source="4LG-1AffiDdCxsdQH5-A-6" target="4LG-1AffiDdCxsdQH5-A-13" edge="1">
          <mxGeometry relative="1" as="geometry" />
        </mxCell>
        <mxCell id="4LG-1AffiDdCxsdQH5-A-18" style="edgeStyle=orthogonalEdgeStyle;rounded=0;orthogonalLoop=1;jettySize=auto;html=1;" parent="WIyWlLk6GJQsqaUBKTNV-1" source="4LG-1AffiDdCxsdQH5-A-6" target="4LG-1AffiDdCxsdQH5-A-16" edge="1">
          <mxGeometry relative="1" as="geometry">
            <mxPoint x="-320" y="710" as="targetPoint" />
            <Array as="points">
              <mxPoint x="-150" y="770" />
              <mxPoint x="-310" y="770" />
            </Array>
          </mxGeometry>
        </mxCell>
        <mxCell id="4LG-1AffiDdCxsdQH5-A-6" value="事业部总经理" style="whiteSpace=wrap;html=1;rounded=0;" parent="WIyWlLk6GJQsqaUBKTNV-1" vertex="1">
          <mxGeometry x="-210" y="680" width="120" height="60" as="geometry" />
        </mxCell>
        <mxCell id="4LG-1AffiDdCxsdQH5-A-39" style="edgeStyle=orthogonalEdgeStyle;rounded=0;orthogonalLoop=1;jettySize=auto;html=1;" parent="WIyWlLk6GJQsqaUBKTNV-1" source="4LG-1AffiDdCxsdQH5-A-10" target="4LG-1AffiDdCxsdQH5-A-40" edge="1">
          <mxGeometry relative="1" as="geometry">
            <mxPoint x="465" y="800" as="targetPoint" />
            <Array as="points">
              <mxPoint x="465" y="790" />
            </Array>
          </mxGeometry>
        </mxCell>
        <mxCell id="4LG-1AffiDdCxsdQH5-A-10" value="CDO" style="rounded=0;whiteSpace=wrap;html=1;" parent="WIyWlLk6GJQsqaUBKTNV-1" vertex="1">
          <mxGeometry x="400" y="680" width="130" height="50" as="geometry" />
        </mxCell>
        <mxCell id="4LG-1AffiDdCxsdQH5-A-22" value="" style="edgeStyle=orthogonalEdgeStyle;rounded=0;orthogonalLoop=1;jettySize=auto;html=1;" parent="WIyWlLk6GJQsqaUBKTNV-1" source="4LG-1AffiDdCxsdQH5-A-13" target="4LG-1AffiDdCxsdQH5-A-21" edge="1">
          <mxGeometry relative="1" as="geometry">
            <Array as="points">
              <mxPoint x="-150" y="770" />
              <mxPoint x="20" y="770" />
            </Array>
          </mxGeometry>
        </mxCell>
        <mxCell id="4LG-1AffiDdCxsdQH5-A-13" value="活动运营" style="whiteSpace=wrap;html=1;rounded=0;" parent="WIyWlLk6GJQsqaUBKTNV-1" vertex="1">
          <mxGeometry x="-210" y="820" width="120" height="60" as="geometry" />
        </mxCell>
        <mxCell id="4LG-1AffiDdCxsdQH5-A-25" value="" style="edgeStyle=orthogonalEdgeStyle;rounded=0;orthogonalLoop=1;jettySize=auto;html=1;" parent="WIyWlLk6GJQsqaUBKTNV-1" source="4LG-1AffiDdCxsdQH5-A-16" target="4LG-1AffiDdCxsdQH5-A-24" edge="1">
          <mxGeometry relative="1" as="geometry">
            <Array as="points">
              <mxPoint x="-310" y="770" />
              <mxPoint x="-510" y="770" />
            </Array>
          </mxGeometry>
        </mxCell>
        <mxCell id="4LG-1AffiDdCxsdQH5-A-16" value="渠道运营" style="rounded=0;whiteSpace=wrap;html=1;" parent="WIyWlLk6GJQsqaUBKTNV-1" vertex="1">
          <mxGeometry x="-370" y="820" width="120" height="60" as="geometry" />
        </mxCell>
        <mxCell id="4LG-1AffiDdCxsdQH5-A-19" value="&lt;font style=&quot;font-size: 14px&quot;&gt;&lt;b&gt;部门角色：&lt;/b&gt;&lt;/font&gt;&lt;br&gt;通过渠道投放拉新&lt;br&gt;&lt;br&gt;&lt;b&gt;&lt;font style=&quot;font-size: 14px&quot;&gt;主要指标：&lt;br&gt;&lt;/font&gt;&lt;/b&gt;渠道ROAS&lt;br&gt;线索量&lt;br&gt;新用户量" style="rounded=1;whiteSpace=wrap;html=1;" parent="WIyWlLk6GJQsqaUBKTNV-1" vertex="1">
          <mxGeometry x="-370" y="910" width="130" height="110" as="geometry" />
        </mxCell>
        <mxCell id="4LG-1AffiDdCxsdQH5-A-20" value="&lt;font style=&quot;font-size: 14px&quot;&gt;部门角色：&lt;br&gt;&lt;/font&gt;做活动达成一些目的&lt;br&gt;比如促活或者营收&lt;br&gt;&lt;br&gt;&lt;font style=&quot;font-size: 14px&quot;&gt;主要指标：&lt;br&gt;&lt;/font&gt;营收&lt;br&gt;线索量&lt;br&gt;DAu" style="rounded=1;whiteSpace=wrap;html=1;" parent="WIyWlLk6GJQsqaUBKTNV-1" vertex="1">
          <mxGeometry x="-210" y="910" width="130" height="120" as="geometry" />
        </mxCell>
        <mxCell id="4LG-1AffiDdCxsdQH5-A-21" value="销售团队" style="whiteSpace=wrap;html=1;rounded=0;" parent="WIyWlLk6GJQsqaUBKTNV-1" vertex="1">
          <mxGeometry x="-50" y="820" width="120" height="60" as="geometry" />
        </mxCell>
        <mxCell id="4LG-1AffiDdCxsdQH5-A-23" value="&lt;font style=&quot;font-size: 14px&quot;&gt;&lt;b&gt;部门角色&lt;/b&gt;&lt;/font&gt;：&lt;br&gt;促进顾客成单&lt;br&gt;&lt;br&gt;&lt;font style=&quot;font-size: 14px&quot;&gt;&lt;b&gt;主要指标：&lt;br&gt;&lt;/b&gt;&lt;/font&gt;营收&lt;br&gt;退款率" style="rounded=1;whiteSpace=wrap;html=1;" parent="WIyWlLk6GJQsqaUBKTNV-1" vertex="1">
          <mxGeometry x="-50" y="910" width="130" height="110" as="geometry" />
        </mxCell>
        <mxCell id="4LG-1AffiDdCxsdQH5-A-24" value="教研教务团队" style="whiteSpace=wrap;html=1;rounded=0;" parent="WIyWlLk6GJQsqaUBKTNV-1" vertex="1">
          <mxGeometry x="-570" y="820" width="120" height="60" as="geometry" />
        </mxCell>
        <mxCell id="4LG-1AffiDdCxsdQH5-A-26" value="&lt;font style=&quot;font-size: 14px&quot;&gt;&lt;b&gt;部门角色：&lt;/b&gt;&lt;/font&gt;&lt;br&gt;课程研发和学习任务&lt;br&gt;&lt;br&gt;&lt;b&gt;&lt;font style=&quot;font-size: 14px&quot;&gt;主要指标：&lt;br&gt;&lt;/font&gt;&lt;/b&gt;课程满意度&lt;br&gt;完课率" style="rounded=1;whiteSpace=wrap;html=1;" parent="WIyWlLk6GJQsqaUBKTNV-1" vertex="1">
          <mxGeometry x="-570" y="910" width="130" height="100" as="geometry" />
        </mxCell>
        <mxCell id="4LG-1AffiDdCxsdQH5-A-27" value="产品团队" style="whiteSpace=wrap;html=1;rounded=0;" parent="WIyWlLk6GJQsqaUBKTNV-1" vertex="1">
          <mxGeometry x="265" y="820" width="120" height="60" as="geometry" />
        </mxCell>
        <mxCell id="4LG-1AffiDdCxsdQH5-A-30" value="开发团队" style="whiteSpace=wrap;html=1;rounded=0;" parent="WIyWlLk6GJQsqaUBKTNV-1" vertex="1">
          <mxGeometry x="100" y="820" width="120" height="60" as="geometry" />
        </mxCell>
        <mxCell id="4LG-1AffiDdCxsdQH5-A-34" value="&lt;font style=&quot;font-size: 14px&quot;&gt;&lt;b&gt;部门角色&lt;/b&gt;&lt;/font&gt;：&lt;br&gt;产品开发&lt;br&gt;架构优化&lt;br&gt;&lt;font style=&quot;font-size: 14px&quot;&gt;&lt;b&gt;主要指标：&lt;br&gt;&lt;/b&gt;&lt;/font&gt;产品发版数&lt;br&gt;架构优化数" style="rounded=1;whiteSpace=wrap;html=1;" parent="WIyWlLk6GJQsqaUBKTNV-1" vertex="1">
          <mxGeometry x="95" y="910" width="130" height="110" as="geometry" />
        </mxCell>
        <mxCell id="4LG-1AffiDdCxsdQH5-A-35" value="&lt;font style=&quot;font-size: 14px&quot;&gt;&lt;b&gt;部门角色&lt;/b&gt;&lt;/font&gt;：&lt;br&gt;数据开发&lt;br&gt;数据分析&lt;br&gt;&lt;font style=&quot;font-size: 14px&quot;&gt;&lt;b&gt;主要指标：&lt;br&gt;&lt;/b&gt;&lt;/font&gt;定性内容多&lt;br&gt;难量化" style="rounded=1;whiteSpace=wrap;html=1;" parent="WIyWlLk6GJQsqaUBKTNV-1" vertex="1">
          <mxGeometry x="405" y="860" width="130" height="110" as="geometry" />
        </mxCell>
        <mxCell id="4LG-1AffiDdCxsdQH5-A-40" value="数据中台" style="rounded=0;whiteSpace=wrap;html=1;" parent="WIyWlLk6GJQsqaUBKTNV-1" vertex="1">
          <mxGeometry x="405" y="800" width="120" height="40" as="geometry" />
        </mxCell>
        <mxCell id="4LG-1AffiDdCxsdQH5-A-43" value="&lt;font style=&quot;font-size: 14px&quot;&gt;&lt;b&gt;部门角色&lt;/b&gt;&lt;/font&gt;：&lt;br&gt;产品设计&lt;br&gt;产品发布&lt;br&gt;&lt;font style=&quot;font-size: 14px&quot;&gt;&lt;b&gt;主要指标：&lt;br&gt;&lt;/b&gt;&lt;/font&gt;产品BUG数&lt;br&gt;DAU&lt;br&gt;留存率" style="rounded=1;whiteSpace=wrap;html=1;" parent="WIyWlLk6GJQsqaUBKTNV-1" vertex="1">
          <mxGeometry x="265" y="910" width="130" height="110" as="geometry" />
        </mxCell>
      </root>
    </mxGraphModel>
  </diagram>
  <diagram id="4gA5OxUVd_XXTZanAqwX" name="Page-2">
    <mxGraphModel dx="2656" dy="516" grid="1" gridSize="10" guides="1" tooltips="1" connect="1" arrows="1" fold="1" page="1" pageScale="1" pageWidth="827" pageHeight="1169" math="0" shadow="0">
      <root>
        <mxCell id="M1Kj_39iP2AGimqlnrWc-0" />
        <mxCell id="M1Kj_39iP2AGimqlnrWc-1" parent="M1Kj_39iP2AGimqlnrWc-0" />
        <mxCell id="tBodU4Q1IQQOX9P65XnI-179" style="edgeStyle=orthogonalEdgeStyle;rounded=0;orthogonalLoop=1;jettySize=auto;html=1;" edge="1" parent="M1Kj_39iP2AGimqlnrWc-1" source="tBodU4Q1IQQOX9P65XnI-172" target="tBodU4Q1IQQOX9P65XnI-127">
          <mxGeometry relative="1" as="geometry">
            <Array as="points">
              <mxPoint x="840" y="2150" />
              <mxPoint x="20" y="2150" />
            </Array>
          </mxGeometry>
        </mxCell>
        <mxCell id="tBodU4Q1IQQOX9P65XnI-180" value="这样确定下来&lt;br&gt;B事件为：&lt;br&gt;正反面比例超过60%" style="edgeLabel;html=1;align=center;verticalAlign=middle;resizable=0;points=[];" vertex="1" connectable="0" parent="tBodU4Q1IQQOX9P65XnI-179">
          <mxGeometry x="-0.0931" y="-1" relative="1" as="geometry">
            <mxPoint as="offset" />
          </mxGeometry>
        </mxCell>
        <mxCell id="tBodU4Q1IQQOX9P65XnI-172" value="" style="rounded=1;whiteSpace=wrap;html=1;align=left;" vertex="1" parent="M1Kj_39iP2AGimqlnrWc-1">
          <mxGeometry x="470" y="1770" width="740" height="270" as="geometry" />
        </mxCell>
        <UserObject label="https://jingyan.baidu.com/article/425e69e6d121b1be15fc1639.html" link="https://jingyan.baidu.com/article/425e69e6d121b1be15fc1639.html" id="tBodU4Q1IQQOX9P65XnI-163">
          <mxCell style="rounded=0;whiteSpace=wrap;html=1;align=left;" vertex="1" parent="M1Kj_39iP2AGimqlnrWc-1">
            <mxGeometry x="150" y="1665" width="430" height="50" as="geometry" />
          </mxCell>
        </UserObject>
        <mxCell id="tBodU4Q1IQQOX9P65XnI-128" value="" style="rounded=0;whiteSpace=wrap;html=1;align=center;" vertex="1" parent="M1Kj_39iP2AGimqlnrWc-1">
          <mxGeometry x="-60" y="1360" width="170" height="480" as="geometry" />
        </mxCell>
        <mxCell id="tBodU4Q1IQQOX9P65XnI-115" value="" style="rounded=0;whiteSpace=wrap;html=1;align=center;" vertex="1" parent="M1Kj_39iP2AGimqlnrWc-1">
          <mxGeometry x="-350" y="675" width="1900" height="335" as="geometry" />
        </mxCell>
        <mxCell id="tBodU4Q1IQQOX9P65XnI-83" value="" style="rounded=0;whiteSpace=wrap;html=1;align=left;fillColor=#d5e8d4;strokeColor=#82b366;" vertex="1" parent="M1Kj_39iP2AGimqlnrWc-1">
          <mxGeometry x="1370" y="180" width="170" height="480" as="geometry" />
        </mxCell>
        <mxCell id="tBodU4Q1IQQOX9P65XnI-82" value="" style="rounded=0;whiteSpace=wrap;html=1;align=left;fillColor=#fff2cc;strokeColor=#d6b656;" vertex="1" parent="M1Kj_39iP2AGimqlnrWc-1">
          <mxGeometry x="1190" y="180" width="170" height="480" as="geometry" />
        </mxCell>
        <mxCell id="tBodU4Q1IQQOX9P65XnI-64" value="" style="rounded=0;whiteSpace=wrap;html=1;align=left;fillColor=#dae8fc;strokeColor=#6c8ebf;" vertex="1" parent="M1Kj_39iP2AGimqlnrWc-1">
          <mxGeometry x="540" y="120" width="630" height="530" as="geometry" />
        </mxCell>
        <mxCell id="tBodU4Q1IQQOX9P65XnI-57" value="" style="rounded=0;whiteSpace=wrap;html=1;align=left;fillColor=#f8cecc;strokeColor=#b85450;" vertex="1" parent="M1Kj_39iP2AGimqlnrWc-1">
          <mxGeometry x="355" y="180" width="150" height="470" as="geometry" />
        </mxCell>
        <mxCell id="tBodU4Q1IQQOX9P65XnI-50" value="" style="rounded=0;whiteSpace=wrap;html=1;align=left;fillColor=#d5e8d4;strokeColor=#82b366;" vertex="1" parent="M1Kj_39iP2AGimqlnrWc-1">
          <mxGeometry x="185" y="180" width="150" height="470" as="geometry" />
        </mxCell>
        <mxCell id="tBodU4Q1IQQOX9P65XnI-53" value="" style="rounded=0;whiteSpace=wrap;html=1;align=left;" vertex="1" parent="M1Kj_39iP2AGimqlnrWc-1">
          <mxGeometry x="185" y="410" width="145" height="110" as="geometry" />
        </mxCell>
        <mxCell id="tBodU4Q1IQQOX9P65XnI-38" value="" style="rounded=0;whiteSpace=wrap;html=1;align=left;fillColor=#fff2cc;strokeColor=#d6b656;" vertex="1" parent="M1Kj_39iP2AGimqlnrWc-1">
          <mxGeometry y="180" width="160" height="470" as="geometry" />
        </mxCell>
        <mxCell id="tBodU4Q1IQQOX9P65XnI-44" value="" style="rounded=0;whiteSpace=wrap;html=1;align=left;" vertex="1" parent="M1Kj_39iP2AGimqlnrWc-1">
          <mxGeometry y="340" width="130" height="80" as="geometry" />
        </mxCell>
        <mxCell id="tBodU4Q1IQQOX9P65XnI-0" value="AB 流程" style="rounded=1;html=1;" vertex="1" parent="M1Kj_39iP2AGimqlnrWc-1">
          <mxGeometry width="120" height="60" as="geometry" />
        </mxCell>
        <mxCell id="tBodU4Q1IQQOX9P65XnI-13" value="" style="edgeStyle=orthogonalEdgeStyle;rounded=0;orthogonalLoop=1;jettySize=auto;html=1;" edge="1" parent="M1Kj_39iP2AGimqlnrWc-1" source="tBodU4Q1IQQOX9P65XnI-2" target="tBodU4Q1IQQOX9P65XnI-3">
          <mxGeometry relative="1" as="geometry" />
        </mxCell>
        <mxCell id="tBodU4Q1IQQOX9P65XnI-2" value="测试立项" style="rounded=1;whiteSpace=wrap;html=1;" vertex="1" parent="M1Kj_39iP2AGimqlnrWc-1">
          <mxGeometry x="20" y="200" width="120" height="60" as="geometry" />
        </mxCell>
        <mxCell id="tBodU4Q1IQQOX9P65XnI-14" value="" style="edgeStyle=orthogonalEdgeStyle;rounded=0;orthogonalLoop=1;jettySize=auto;html=1;" edge="1" parent="M1Kj_39iP2AGimqlnrWc-1" source="tBodU4Q1IQQOX9P65XnI-3" target="tBodU4Q1IQQOX9P65XnI-4">
          <mxGeometry relative="1" as="geometry" />
        </mxCell>
        <mxCell id="tBodU4Q1IQQOX9P65XnI-3" value="实验设计" style="rounded=1;whiteSpace=wrap;html=1;" vertex="1" parent="M1Kj_39iP2AGimqlnrWc-1">
          <mxGeometry x="200" y="200" width="120" height="60" as="geometry" />
        </mxCell>
        <mxCell id="tBodU4Q1IQQOX9P65XnI-15" value="" style="edgeStyle=orthogonalEdgeStyle;rounded=0;orthogonalLoop=1;jettySize=auto;html=1;entryX=0;entryY=0.5;entryDx=0;entryDy=0;" edge="1" parent="M1Kj_39iP2AGimqlnrWc-1" source="tBodU4Q1IQQOX9P65XnI-4" target="tBodU4Q1IQQOX9P65XnI-5">
          <mxGeometry relative="1" as="geometry" />
        </mxCell>
        <mxCell id="tBodU4Q1IQQOX9P65XnI-4" value="策略开发&lt;br&gt;埋点设计" style="rounded=1;whiteSpace=wrap;html=1;" vertex="1" parent="M1Kj_39iP2AGimqlnrWc-1">
          <mxGeometry x="370" y="200" width="120" height="60" as="geometry" />
        </mxCell>
        <mxCell id="tBodU4Q1IQQOX9P65XnI-16" value="" style="edgeStyle=orthogonalEdgeStyle;rounded=0;orthogonalLoop=1;jettySize=auto;html=1;" edge="1" parent="M1Kj_39iP2AGimqlnrWc-1" source="tBodU4Q1IQQOX9P65XnI-5" target="tBodU4Q1IQQOX9P65XnI-9">
          <mxGeometry relative="1" as="geometry" />
        </mxCell>
        <mxCell id="tBodU4Q1IQQOX9P65XnI-5" value="" style="rounded=1;whiteSpace=wrap;html=1;" vertex="1" parent="M1Kj_39iP2AGimqlnrWc-1">
          <mxGeometry x="550" y="130" width="420" height="200" as="geometry" />
        </mxCell>
        <mxCell id="tBodU4Q1IQQOX9P65XnI-22" value="" style="edgeStyle=orthogonalEdgeStyle;rounded=0;orthogonalLoop=1;jettySize=auto;html=1;" edge="1" parent="M1Kj_39iP2AGimqlnrWc-1" source="tBodU4Q1IQQOX9P65XnI-6" target="tBodU4Q1IQQOX9P65XnI-7">
          <mxGeometry relative="1" as="geometry">
            <Array as="points">
              <mxPoint x="740" y="200" />
              <mxPoint x="740" y="200" />
            </Array>
          </mxGeometry>
        </mxCell>
        <mxCell id="tBodU4Q1IQQOX9P65XnI-29" value="用户登录" style="edgeLabel;html=1;align=center;verticalAlign=middle;resizable=0;points=[];" vertex="1" connectable="0" parent="tBodU4Q1IQQOX9P65XnI-22">
          <mxGeometry x="0.1102" y="2" relative="1" as="geometry">
            <mxPoint as="offset" />
          </mxGeometry>
        </mxCell>
        <mxCell id="tBodU4Q1IQQOX9P65XnI-24" style="edgeStyle=orthogonalEdgeStyle;rounded=0;orthogonalLoop=1;jettySize=auto;html=1;" edge="1" parent="M1Kj_39iP2AGimqlnrWc-1" source="tBodU4Q1IQQOX9P65XnI-6" target="tBodU4Q1IQQOX9P65XnI-8">
          <mxGeometry relative="1" as="geometry" />
        </mxCell>
        <mxCell id="tBodU4Q1IQQOX9P65XnI-31" value="进入实验界面，埋点信息上报" style="edgeLabel;html=1;align=center;verticalAlign=middle;resizable=0;points=[];" vertex="1" connectable="0" parent="tBodU4Q1IQQOX9P65XnI-24">
          <mxGeometry x="-0.0309" y="1" relative="1" as="geometry">
            <mxPoint as="offset" />
          </mxGeometry>
        </mxCell>
        <mxCell id="tBodU4Q1IQQOX9P65XnI-6" value="用户" style="rounded=1;whiteSpace=wrap;html=1;" vertex="1" parent="M1Kj_39iP2AGimqlnrWc-1">
          <mxGeometry x="580" y="160" width="120" height="60" as="geometry" />
        </mxCell>
        <mxCell id="tBodU4Q1IQQOX9P65XnI-23" value="" style="edgeStyle=orthogonalEdgeStyle;rounded=0;orthogonalLoop=1;jettySize=auto;html=1;" edge="1" parent="M1Kj_39iP2AGimqlnrWc-1" source="tBodU4Q1IQQOX9P65XnI-7" target="tBodU4Q1IQQOX9P65XnI-6">
          <mxGeometry relative="1" as="geometry">
            <Array as="points">
              <mxPoint x="760" y="180" />
              <mxPoint x="760" y="180" />
            </Array>
          </mxGeometry>
        </mxCell>
        <mxCell id="tBodU4Q1IQQOX9P65XnI-30" value="返回策略" style="edgeLabel;html=1;align=center;verticalAlign=middle;resizable=0;points=[];" vertex="1" connectable="0" parent="tBodU4Q1IQQOX9P65XnI-23">
          <mxGeometry x="-0.2171" y="-1" relative="1" as="geometry">
            <mxPoint as="offset" />
          </mxGeometry>
        </mxCell>
        <mxCell id="tBodU4Q1IQQOX9P65XnI-7" value="分流机制&lt;br&gt;判断用户所属策略" style="rounded=1;whiteSpace=wrap;html=1;" vertex="1" parent="M1Kj_39iP2AGimqlnrWc-1">
          <mxGeometry x="810" y="160" width="120" height="60" as="geometry" />
        </mxCell>
        <mxCell id="tBodU4Q1IQQOX9P65XnI-8" value="获取数据，&lt;br&gt;检验" style="rounded=1;whiteSpace=wrap;html=1;" vertex="1" parent="M1Kj_39iP2AGimqlnrWc-1">
          <mxGeometry x="700" y="260" width="120" height="60" as="geometry" />
        </mxCell>
        <mxCell id="tBodU4Q1IQQOX9P65XnI-17" value="" style="edgeStyle=orthogonalEdgeStyle;rounded=0;orthogonalLoop=1;jettySize=auto;html=1;" edge="1" parent="M1Kj_39iP2AGimqlnrWc-1" source="tBodU4Q1IQQOX9P65XnI-9" target="tBodU4Q1IQQOX9P65XnI-10">
          <mxGeometry relative="1" as="geometry" />
        </mxCell>
        <mxCell id="tBodU4Q1IQQOX9P65XnI-21" style="edgeStyle=orthogonalEdgeStyle;rounded=0;orthogonalLoop=1;jettySize=auto;html=1;" edge="1" parent="M1Kj_39iP2AGimqlnrWc-1" source="tBodU4Q1IQQOX9P65XnI-9" target="tBodU4Q1IQQOX9P65XnI-2">
          <mxGeometry relative="1" as="geometry">
            <Array as="points">
              <mxPoint x="1090" y="90" />
              <mxPoint x="80" y="90" />
            </Array>
          </mxGeometry>
        </mxCell>
        <mxCell id="tBodU4Q1IQQOX9P65XnI-32" value="改进设计方案" style="edgeLabel;html=1;align=center;verticalAlign=middle;resizable=0;points=[];" vertex="1" connectable="0" parent="tBodU4Q1IQQOX9P65XnI-21">
          <mxGeometry x="-0.0843" y="-2" relative="1" as="geometry">
            <mxPoint as="offset" />
          </mxGeometry>
        </mxCell>
        <mxCell id="tBodU4Q1IQQOX9P65XnI-35" style="edgeStyle=orthogonalEdgeStyle;rounded=0;orthogonalLoop=1;jettySize=auto;html=1;" edge="1" parent="M1Kj_39iP2AGimqlnrWc-1" source="tBodU4Q1IQQOX9P65XnI-9" target="tBodU4Q1IQQOX9P65XnI-5">
          <mxGeometry relative="1" as="geometry">
            <Array as="points">
              <mxPoint x="1090" y="370" />
              <mxPoint x="760" y="370" />
            </Array>
          </mxGeometry>
        </mxCell>
        <mxCell id="tBodU4Q1IQQOX9P65XnI-36" value="调整流量，重新测试" style="edgeLabel;html=1;align=center;verticalAlign=middle;resizable=0;points=[];" vertex="1" connectable="0" parent="tBodU4Q1IQQOX9P65XnI-35">
          <mxGeometry x="0.1672" y="4" relative="1" as="geometry">
            <mxPoint as="offset" />
          </mxGeometry>
        </mxCell>
        <mxCell id="tBodU4Q1IQQOX9P65XnI-9" value="埋点收集数据并分析" style="rounded=1;whiteSpace=wrap;html=1;" vertex="1" parent="M1Kj_39iP2AGimqlnrWc-1">
          <mxGeometry x="1030" y="200" width="120" height="60" as="geometry" />
        </mxCell>
        <mxCell id="tBodU4Q1IQQOX9P65XnI-18" value="" style="edgeStyle=orthogonalEdgeStyle;rounded=0;orthogonalLoop=1;jettySize=auto;html=1;" edge="1" parent="M1Kj_39iP2AGimqlnrWc-1" source="tBodU4Q1IQQOX9P65XnI-10" target="tBodU4Q1IQQOX9P65XnI-11">
          <mxGeometry relative="1" as="geometry" />
        </mxCell>
        <mxCell id="tBodU4Q1IQQOX9P65XnI-10" value="检验并选择优质策略" style="rounded=1;whiteSpace=wrap;html=1;" vertex="1" parent="M1Kj_39iP2AGimqlnrWc-1">
          <mxGeometry x="1210" y="200" width="120" height="60" as="geometry" />
        </mxCell>
        <mxCell id="tBodU4Q1IQQOX9P65XnI-11" value="发版与推全" style="rounded=1;whiteSpace=wrap;html=1;" vertex="1" parent="M1Kj_39iP2AGimqlnrWc-1">
          <mxGeometry x="1390" y="200" width="120" height="60" as="geometry" />
        </mxCell>
        <mxCell id="tBodU4Q1IQQOX9P65XnI-26" value="设定目标&lt;br&gt;&lt;br&gt;制定方案" style="text;html=1;strokeColor=none;fillColor=none;align=center;verticalAlign=middle;whiteSpace=wrap;rounded=0;" vertex="1" parent="M1Kj_39iP2AGimqlnrWc-1">
          <mxGeometry x="50" y="280" width="50" height="20" as="geometry" />
        </mxCell>
        <mxCell id="tBodU4Q1IQQOX9P65XnI-27" value="选择检验指标&lt;br&gt;&lt;br&gt;策略数据选择&lt;br&gt;&lt;br&gt;分组策略&lt;br&gt;&lt;br&gt;原假设、备择假设&lt;br&gt;&lt;br&gt;计算样本量" style="text;html=1;strokeColor=none;fillColor=none;align=left;verticalAlign=middle;whiteSpace=wrap;rounded=0;" vertex="1" parent="M1Kj_39iP2AGimqlnrWc-1">
          <mxGeometry x="200" y="330" width="120" height="20" as="geometry" />
        </mxCell>
        <mxCell id="tBodU4Q1IQQOX9P65XnI-28" value="各组策略开发&lt;br&gt;&lt;br&gt;基础埋点&lt;br&gt;&lt;br&gt;一类指标&lt;br&gt;&lt;br&gt;二类指标" style="text;html=1;strokeColor=none;fillColor=none;align=left;verticalAlign=middle;whiteSpace=wrap;rounded=0;" vertex="1" parent="M1Kj_39iP2AGimqlnrWc-1">
          <mxGeometry x="370" y="320" width="110" height="20" as="geometry" />
        </mxCell>
        <mxCell id="tBodU4Q1IQQOX9P65XnI-33" value="描述统计&lt;br&gt;&lt;br&gt;分析分流是否合理" style="text;html=1;strokeColor=none;fillColor=none;align=left;verticalAlign=middle;whiteSpace=wrap;rounded=0;" vertex="1" parent="M1Kj_39iP2AGimqlnrWc-1">
          <mxGeometry x="1040" y="280" width="110" height="20" as="geometry" />
        </mxCell>
        <mxCell id="tBodU4Q1IQQOX9P65XnI-37" value="&lt;font face=&quot;helvetica&quot;&gt;利用T检验进行比较分析&lt;br&gt;&lt;/font&gt;&lt;br style=&quot;color: rgb(0 , 0 , 0) ; font-family: &amp;#34;helvetica&amp;#34; ; font-size: 12px ; font-style: normal ; font-weight: 400 ; letter-spacing: normal ; text-align: left ; text-indent: 0px ; text-transform: none ; word-spacing: 0px ; background-color: rgb(248 , 249 , 250)&quot;&gt;&lt;span style=&quot;color: rgb(0 , 0 , 0) ; font-family: &amp;#34;helvetica&amp;#34; ; font-size: 12px ; font-style: normal ; font-weight: 400 ; letter-spacing: normal ; text-align: left ; text-indent: 0px ; text-transform: none ; word-spacing: 0px ; background-color: rgb(248 , 249 , 250) ; display: inline ; float: none&quot;&gt;生成结论报告&lt;/span&gt;" style="text;whiteSpace=wrap;html=1;" vertex="1" parent="M1Kj_39iP2AGimqlnrWc-1">
          <mxGeometry x="1210" y="270" width="130" height="60" as="geometry" />
        </mxCell>
        <mxCell id="tBodU4Q1IQQOX9P65XnI-90" style="edgeStyle=orthogonalEdgeStyle;rounded=0;orthogonalLoop=1;jettySize=auto;html=1;entryX=1;entryY=0.75;entryDx=0;entryDy=0;" edge="1" parent="M1Kj_39iP2AGimqlnrWc-1" source="tBodU4Q1IQQOX9P65XnI-39" target="tBodU4Q1IQQOX9P65XnI-46">
          <mxGeometry relative="1" as="geometry" />
        </mxCell>
        <mxCell id="tBodU4Q1IQQOX9P65XnI-39" value="工作内容&lt;br&gt;&lt;br&gt;1 说明测试目的&lt;br&gt;2 说明测试影响人群&lt;br&gt;3 说明项目周期" style="text;html=1;strokeColor=none;fillColor=none;align=left;verticalAlign=middle;whiteSpace=wrap;rounded=0;" vertex="1" parent="M1Kj_39iP2AGimqlnrWc-1">
          <mxGeometry y="370" width="140" height="20" as="geometry" />
        </mxCell>
        <mxCell id="tBodU4Q1IQQOX9P65XnI-40" value="接触部门&lt;br&gt;&lt;br&gt;增长部门、产品部门、运营部门、开发部门、产品VP" style="text;html=1;strokeColor=none;fillColor=none;align=left;verticalAlign=middle;whiteSpace=wrap;rounded=0;" vertex="1" parent="M1Kj_39iP2AGimqlnrWc-1">
          <mxGeometry y="460" width="130" height="20" as="geometry" />
        </mxCell>
        <mxCell id="tBodU4Q1IQQOX9P65XnI-41" value="通过标准&lt;br&gt;&lt;br&gt;会议通过/VP邮件通过" style="text;html=1;strokeColor=none;fillColor=none;align=left;verticalAlign=middle;whiteSpace=wrap;rounded=0;" vertex="1" parent="M1Kj_39iP2AGimqlnrWc-1">
          <mxGeometry y="550" width="130" height="20" as="geometry" />
        </mxCell>
        <mxCell id="tBodU4Q1IQQOX9P65XnI-46" value="&lt;span style=&quot;color: rgb(0 , 0 , 0) ; font-family: &amp;#34;helvetica&amp;#34; ; font-size: 12px ; font-style: normal ; font-weight: 400 ; letter-spacing: normal ; text-align: left ; text-indent: 0px ; text-transform: none ; word-spacing: 0px ; background-color: rgb(248 , 249 , 250) ; display: inline ; float: none&quot;&gt;测试目的：&lt;br&gt;&lt;/span&gt;&lt;br style=&quot;color: rgb(0 , 0 , 0) ; font-family: &amp;#34;helvetica&amp;#34; ; font-size: 12px ; font-style: normal ; font-weight: 400 ; letter-spacing: normal ; text-align: left ; text-indent: 0px ; text-transform: none ; word-spacing: 0px ; background-color: rgb(248 , 249 , 250)&quot;&gt;&lt;span style=&quot;color: rgb(0 , 0 , 0) ; font-family: &amp;#34;helvetica&amp;#34; ; font-size: 12px ; font-style: normal ; font-weight: 400 ; letter-spacing: normal ; text-align: left ; text-indent: 0px ; text-transform: none ; word-spacing: 0px ; background-color: rgb(248 , 249 , 250) ; display: inline ; float: none&quot;&gt;1 改进目的&lt;/span&gt;&lt;br style=&quot;color: rgb(0 , 0 , 0) ; font-family: &amp;#34;helvetica&amp;#34; ; font-size: 12px ; font-style: normal ; font-weight: 400 ; letter-spacing: normal ; text-align: left ; text-indent: 0px ; text-transform: none ; word-spacing: 0px ; background-color: rgb(248 , 249 , 250)&quot;&gt;&lt;span style=&quot;color: rgb(0 , 0 , 0) ; font-family: &amp;#34;helvetica&amp;#34; ; font-size: 12px ; font-style: normal ; font-weight: 400 ; letter-spacing: normal ; text-align: left ; text-indent: 0px ; text-transform: none ; word-spacing: 0px ; background-color: rgb(248 , 249 , 250) ; display: inline ; float: none&quot;&gt;2 改进产品位置&lt;br&gt;3 改进的一类、二类关键指标&lt;br&gt;4 产品改进与目的的逻辑关系&lt;br&gt;&lt;/span&gt;" style="rounded=0;whiteSpace=wrap;html=1;align=left;" vertex="1" parent="M1Kj_39iP2AGimqlnrWc-1">
          <mxGeometry x="-230" y="305" width="180" height="100" as="geometry" />
        </mxCell>
        <mxCell id="tBodU4Q1IQQOX9P65XnI-47" value="&lt;span style=&quot;color: rgb(0 , 0 , 0) ; font-family: &amp;#34;helvetica&amp;#34; ; font-size: 12px ; font-style: normal ; font-weight: 400 ; letter-spacing: normal ; text-align: left ; text-indent: 0px ; text-transform: none ; word-spacing: 0px ; background-color: rgb(248 , 249 , 250) ; display: inline ; float: none&quot;&gt;测试影响人群：&lt;br&gt;&lt;/span&gt;&lt;br style=&quot;color: rgb(0 , 0 , 0) ; font-family: &amp;#34;helvetica&amp;#34; ; font-size: 12px ; font-style: normal ; font-weight: 400 ; letter-spacing: normal ; text-align: left ; text-indent: 0px ; text-transform: none ; word-spacing: 0px ; background-color: rgb(248 , 249 , 250)&quot;&gt;&lt;span style=&quot;color: rgb(0 , 0 , 0) ; font-family: &amp;#34;helvetica&amp;#34; ; font-size: 12px ; font-style: normal ; font-weight: 400 ; letter-spacing: normal ; text-align: left ; text-indent: 0px ; text-transform: none ; word-spacing: 0px ; background-color: rgb(248 , 249 , 250) ; display: inline ; float: none&quot;&gt;1 是否是特殊人群&lt;br&gt;2 分流使用正常分流还是特殊分流&lt;br&gt;&lt;br&gt;&lt;/span&gt;" style="rounded=0;whiteSpace=wrap;html=1;align=left;" vertex="1" parent="M1Kj_39iP2AGimqlnrWc-1">
          <mxGeometry x="-230" y="415" width="180" height="100" as="geometry" />
        </mxCell>
        <mxCell id="tBodU4Q1IQQOX9P65XnI-48" value="&lt;span style=&quot;color: rgb(0 , 0 , 0) ; font-family: &amp;#34;helvetica&amp;#34; ; font-size: 12px ; font-style: normal ; font-weight: 400 ; letter-spacing: normal ; text-align: left ; text-indent: 0px ; text-transform: none ; word-spacing: 0px ; background-color: rgb(248 , 249 , 250) ; display: inline ; float: none&quot;&gt;项目周期：&lt;br&gt;&lt;/span&gt;&lt;br style=&quot;color: rgb(0 , 0 , 0) ; font-family: &amp;#34;helvetica&amp;#34; ; font-size: 12px ; font-style: normal ; font-weight: 400 ; letter-spacing: normal ; text-align: left ; text-indent: 0px ; text-transform: none ; word-spacing: 0px ; background-color: rgb(248 , 249 , 250)&quot;&gt;&lt;span style=&quot;color: rgb(0 , 0 , 0) ; font-family: &amp;#34;helvetica&amp;#34; ; font-size: 12px ; font-style: normal ; font-weight: 400 ; letter-spacing: normal ; text-align: left ; text-indent: 0px ; text-transform: none ; word-spacing: 0px ; background-color: rgb(248 , 249 , 250) ; display: inline ; float: none&quot;&gt;1 预计分流启动时间&lt;br&gt;2 预计AA测试时间&lt;br&gt;3 预计灰度发布时间&lt;br&gt;4 预计测试结束时间&lt;br&gt;5 预计结果分析时间&lt;br&gt;6 预计测试复盘时间&lt;br&gt;7 预计发版时间&lt;br&gt;&lt;/span&gt;&lt;span style=&quot;color: rgb(0 , 0 , 0) ; font-family: &amp;#34;helvetica&amp;#34; ; font-size: 12px ; font-style: normal ; font-weight: 400 ; letter-spacing: normal ; text-align: left ; text-indent: 0px ; text-transform: none ; word-spacing: 0px ; background-color: rgb(248 , 249 , 250) ; display: inline ; float: none&quot;&gt;&lt;br&gt;&lt;/span&gt;" style="rounded=0;whiteSpace=wrap;html=1;align=left;" vertex="1" parent="M1Kj_39iP2AGimqlnrWc-1">
          <mxGeometry x="-230" y="525" width="180" height="150" as="geometry" />
        </mxCell>
        <mxCell id="tBodU4Q1IQQOX9P65XnI-51" value="工作内容&lt;br&gt;&lt;br&gt;1 确定实验方案&lt;br&gt;准备原假设与备择假设&lt;br&gt;&lt;br&gt;2 计算最小样本量，确定分流大小&lt;br&gt;&lt;br&gt;" style="text;html=1;strokeColor=none;fillColor=none;align=left;verticalAlign=middle;whiteSpace=wrap;rounded=0;" vertex="1" parent="M1Kj_39iP2AGimqlnrWc-1">
          <mxGeometry x="190" y="460" width="140" height="20" as="geometry" />
        </mxCell>
        <mxCell id="tBodU4Q1IQQOX9P65XnI-52" value="接触部门&lt;br&gt;&lt;br&gt;数据部门自己负责" style="text;html=1;strokeColor=none;fillColor=none;align=left;verticalAlign=middle;whiteSpace=wrap;rounded=0;" vertex="1" parent="M1Kj_39iP2AGimqlnrWc-1">
          <mxGeometry x="190" y="550" width="130" height="20" as="geometry" />
        </mxCell>
        <mxCell id="tBodU4Q1IQQOX9P65XnI-56" value="通过标准&lt;br&gt;&lt;br&gt;数据分析主管通过" style="text;html=1;strokeColor=none;fillColor=none;align=left;verticalAlign=middle;whiteSpace=wrap;rounded=0;" vertex="1" parent="M1Kj_39iP2AGimqlnrWc-1">
          <mxGeometry x="190" y="610" width="100" height="20" as="geometry" />
        </mxCell>
        <mxCell id="tBodU4Q1IQQOX9P65XnI-58" value="工作内容&lt;br&gt;&lt;br&gt;1 确定实验方案&lt;br&gt;准备原假设与备择假设&lt;br&gt;&lt;br&gt;2 计算最小样本量，确定分流大小&lt;br&gt;&lt;br&gt;" style="text;html=1;strokeColor=none;fillColor=none;align=left;verticalAlign=middle;whiteSpace=wrap;rounded=0;" vertex="1" parent="M1Kj_39iP2AGimqlnrWc-1">
          <mxGeometry x="365" y="455" width="140" height="20" as="geometry" />
        </mxCell>
        <mxCell id="tBodU4Q1IQQOX9P65XnI-59" value="" style="rounded=0;whiteSpace=wrap;html=1;align=left;" vertex="1" parent="M1Kj_39iP2AGimqlnrWc-1">
          <mxGeometry x="355" y="380" width="145" height="150" as="geometry" />
        </mxCell>
        <mxCell id="tBodU4Q1IQQOX9P65XnI-60" value="工作内容&lt;br&gt;&lt;br&gt;1 开发对比策略&lt;br&gt;2 设计主要埋点产出数据&lt;br&gt;3 设计存储表结构&lt;br&gt;4 设计展示报表结构&lt;br&gt;5 设置分流机制&lt;br&gt;6提交以上需求" style="text;html=1;strokeColor=none;fillColor=none;align=left;verticalAlign=middle;whiteSpace=wrap;rounded=0;" vertex="1" parent="M1Kj_39iP2AGimqlnrWc-1">
          <mxGeometry x="362.5" y="440" width="135" height="20" as="geometry" />
        </mxCell>
        <mxCell id="tBodU4Q1IQQOX9P65XnI-62" value="接触部门&lt;br&gt;&lt;br&gt;前端开发部门、后端开发部门、数据开发部门" style="text;html=1;strokeColor=none;fillColor=none;align=left;verticalAlign=middle;whiteSpace=wrap;rounded=0;" vertex="1" parent="M1Kj_39iP2AGimqlnrWc-1">
          <mxGeometry x="360" y="550" width="130" height="20" as="geometry" />
        </mxCell>
        <mxCell id="tBodU4Q1IQQOX9P65XnI-63" value="通过标准&lt;br&gt;&lt;br&gt;各开发领导通过" style="text;html=1;strokeColor=none;fillColor=none;align=left;verticalAlign=middle;whiteSpace=wrap;rounded=0;" vertex="1" parent="M1Kj_39iP2AGimqlnrWc-1">
          <mxGeometry x="360" y="610" width="100" height="20" as="geometry" />
        </mxCell>
        <mxCell id="tBodU4Q1IQQOX9P65XnI-65" value="" style="rounded=0;whiteSpace=wrap;html=1;align=left;" vertex="1" parent="M1Kj_39iP2AGimqlnrWc-1">
          <mxGeometry x="540" y="400" width="310" height="250" as="geometry" />
        </mxCell>
        <mxCell id="tBodU4Q1IQQOX9P65XnI-66" value="" style="rounded=0;whiteSpace=wrap;html=1;align=left;" vertex="1" parent="M1Kj_39iP2AGimqlnrWc-1">
          <mxGeometry x="850" y="400" width="320" height="250" as="geometry" />
        </mxCell>
        <mxCell id="tBodU4Q1IQQOX9P65XnI-67" value="AA测试" style="rounded=0;whiteSpace=wrap;html=1;align=left;" vertex="1" parent="M1Kj_39iP2AGimqlnrWc-1">
          <mxGeometry x="600" y="410" width="130" height="20" as="geometry" />
        </mxCell>
        <mxCell id="tBodU4Q1IQQOX9P65XnI-68" value="AB测试埋点数据收集" style="rounded=0;whiteSpace=wrap;html=1;align=left;" vertex="1" parent="M1Kj_39iP2AGimqlnrWc-1">
          <mxGeometry x="945" y="410" width="130" height="20" as="geometry" />
        </mxCell>
        <mxCell id="tBodU4Q1IQQOX9P65XnI-69" value="工作内容&lt;br&gt;&lt;br&gt;1在分流启动后分析各分组是否符合流量分配大小比例&lt;br&gt;&lt;br&gt;2 分析各组的用户属性，是否符合整体用户属性分布" style="text;html=1;strokeColor=none;fillColor=none;align=left;verticalAlign=middle;whiteSpace=wrap;rounded=0;" vertex="1" parent="M1Kj_39iP2AGimqlnrWc-1">
          <mxGeometry x="550" y="480" width="290" height="20" as="geometry" />
        </mxCell>
        <mxCell id="tBodU4Q1IQQOX9P65XnI-70" value="接触部门&lt;br&gt;&lt;br&gt;前端开发部门" style="text;html=1;strokeColor=none;fillColor=none;align=left;verticalAlign=middle;whiteSpace=wrap;rounded=0;" vertex="1" parent="M1Kj_39iP2AGimqlnrWc-1">
          <mxGeometry x="550" y="550" width="130" height="20" as="geometry" />
        </mxCell>
        <mxCell id="tBodU4Q1IQQOX9P65XnI-71" value="通过标准&lt;br&gt;&lt;br&gt;数据分析主管通过" style="text;html=1;strokeColor=none;fillColor=none;align=left;verticalAlign=middle;whiteSpace=wrap;rounded=0;" vertex="1" parent="M1Kj_39iP2AGimqlnrWc-1">
          <mxGeometry x="550" y="610" width="100" height="20" as="geometry" />
        </mxCell>
        <mxCell id="tBodU4Q1IQQOX9P65XnI-74" value="接触部门&lt;br&gt;&lt;br&gt;数据部门自己负责" style="text;html=1;strokeColor=none;fillColor=none;align=left;verticalAlign=middle;whiteSpace=wrap;rounded=0;" vertex="1" parent="M1Kj_39iP2AGimqlnrWc-1">
          <mxGeometry x="860" y="561" width="130" height="20" as="geometry" />
        </mxCell>
        <mxCell id="tBodU4Q1IQQOX9P65XnI-75" value="通过标准&lt;br&gt;&lt;br&gt;数据分析主管通过" style="text;html=1;strokeColor=none;fillColor=none;align=left;verticalAlign=middle;whiteSpace=wrap;rounded=0;" vertex="1" parent="M1Kj_39iP2AGimqlnrWc-1">
          <mxGeometry x="860" y="613" width="100" height="20" as="geometry" />
        </mxCell>
        <mxCell id="tBodU4Q1IQQOX9P65XnI-76" value="" style="endArrow=none;html=1;" edge="1" parent="M1Kj_39iP2AGimqlnrWc-1">
          <mxGeometry width="50" height="50" relative="1" as="geometry">
            <mxPoint x="540" y="529.41" as="sourcePoint" />
            <mxPoint x="820" y="529.41" as="targetPoint" />
            <Array as="points">
              <mxPoint x="700" y="529.41" />
              <mxPoint x="750" y="529.41" />
            </Array>
          </mxGeometry>
        </mxCell>
        <mxCell id="tBodU4Q1IQQOX9P65XnI-77" value="" style="endArrow=none;html=1;" edge="1" parent="M1Kj_39iP2AGimqlnrWc-1">
          <mxGeometry width="50" height="50" relative="1" as="geometry">
            <mxPoint x="540" y="589.9999999999999" as="sourcePoint" />
            <mxPoint x="819.9999999999995" y="589.9999999999999" as="targetPoint" />
            <Array as="points">
              <mxPoint x="700" y="590" />
              <mxPoint x="750" y="590" />
            </Array>
          </mxGeometry>
        </mxCell>
        <mxCell id="tBodU4Q1IQQOX9P65XnI-78" value="" style="endArrow=none;html=1;" edge="1" parent="M1Kj_39iP2AGimqlnrWc-1">
          <mxGeometry width="50" height="50" relative="1" as="geometry">
            <mxPoint x="850" y="539.9999999999998" as="sourcePoint" />
            <mxPoint x="1129.9999999999995" y="539.9999999999998" as="targetPoint" />
            <Array as="points">
              <mxPoint x="1010" y="539.9999999999999" />
              <mxPoint x="1060" y="539.9999999999999" />
            </Array>
          </mxGeometry>
        </mxCell>
        <mxCell id="tBodU4Q1IQQOX9P65XnI-79" value="" style="endArrow=none;html=1;" edge="1" parent="M1Kj_39iP2AGimqlnrWc-1">
          <mxGeometry width="50" height="50" relative="1" as="geometry">
            <mxPoint x="850" y="600" as="sourcePoint" />
            <mxPoint x="1129.9999999999995" y="600" as="targetPoint" />
            <Array as="points">
              <mxPoint x="1010" y="600" />
              <mxPoint x="1060" y="600" />
            </Array>
          </mxGeometry>
        </mxCell>
        <mxCell id="tBodU4Q1IQQOX9P65XnI-80" value="工作内容&lt;br&gt;&lt;br&gt;1灰度策略启动后，分析各分组是否符合流量分配大小占比&lt;br&gt;2 分析各组的用户属性，是否符合整体用户属性分布&lt;br&gt;3 分析各组的埋点数据，个埋点是否正确打到对应策略组，各埋点数据是否属性完备" style="text;html=1;strokeColor=none;fillColor=none;align=left;verticalAlign=middle;whiteSpace=wrap;rounded=0;" vertex="1" parent="M1Kj_39iP2AGimqlnrWc-1">
          <mxGeometry x="860" y="470" width="290" height="20" as="geometry" />
        </mxCell>
        <mxCell id="tBodU4Q1IQQOX9P65XnI-84" value="工作内容&lt;br&gt;&lt;br&gt;1 按计划验证试验结果显著性，作出数据决策&lt;br&gt;2 推导业务层面收益，作出报告&lt;br&gt;3 试验复盘会议，收集反馈" style="rounded=0;whiteSpace=wrap;html=1;align=left;" vertex="1" parent="M1Kj_39iP2AGimqlnrWc-1">
          <mxGeometry x="1190" y="340" width="160" height="150" as="geometry" />
        </mxCell>
        <mxCell id="tBodU4Q1IQQOX9P65XnI-85" value="接触部门&lt;br&gt;&lt;br&gt;增长部门、产品部门、运营部门、开发部门、产品VP" style="text;html=1;strokeColor=none;fillColor=none;align=left;verticalAlign=middle;whiteSpace=wrap;rounded=0;" vertex="1" parent="M1Kj_39iP2AGimqlnrWc-1">
          <mxGeometry x="1200" y="520" width="130" height="20" as="geometry" />
        </mxCell>
        <mxCell id="tBodU4Q1IQQOX9P65XnI-86" value="通过标准&lt;br&gt;&lt;br&gt;会议通过/VP邮件通过" style="text;html=1;strokeColor=none;fillColor=none;align=left;verticalAlign=middle;whiteSpace=wrap;rounded=0;" vertex="1" parent="M1Kj_39iP2AGimqlnrWc-1">
          <mxGeometry x="1200" y="595" width="130" height="20" as="geometry" />
        </mxCell>
        <mxCell id="tBodU4Q1IQQOX9P65XnI-87" value="工作内容&lt;br&gt;&lt;br&gt;1 对优质策略逐渐扩大流量，分阶段检验策略有效性&lt;br&gt;&lt;br&gt;2 对推全后的策略保持监控&lt;br&gt;" style="rounded=0;whiteSpace=wrap;html=1;align=left;" vertex="1" parent="M1Kj_39iP2AGimqlnrWc-1">
          <mxGeometry x="1375" y="340" width="160" height="150" as="geometry" />
        </mxCell>
        <mxCell id="tBodU4Q1IQQOX9P65XnI-88" value="接触部门&lt;br&gt;&lt;br&gt;自己部门" style="text;html=1;strokeColor=none;fillColor=none;align=left;verticalAlign=middle;whiteSpace=wrap;rounded=0;" vertex="1" parent="M1Kj_39iP2AGimqlnrWc-1">
          <mxGeometry x="1375" y="520" width="130" height="20" as="geometry" />
        </mxCell>
        <mxCell id="tBodU4Q1IQQOX9P65XnI-89" value="通过标准&lt;br&gt;&lt;br&gt;数据分析师通过" style="text;html=1;strokeColor=none;fillColor=none;align=left;verticalAlign=middle;whiteSpace=wrap;rounded=0;" vertex="1" parent="M1Kj_39iP2AGimqlnrWc-1">
          <mxGeometry x="1370" y="595" width="130" height="20" as="geometry" />
        </mxCell>
        <mxCell id="tBodU4Q1IQQOX9P65XnI-91" value="设定目标" style="rounded=1;whiteSpace=wrap;html=1;align=center;fillColor=#fff2cc;strokeColor=#d6b656;" vertex="1" parent="M1Kj_39iP2AGimqlnrWc-1">
          <mxGeometry y="685" width="120" height="60" as="geometry" />
        </mxCell>
        <mxCell id="tBodU4Q1IQQOX9P65XnI-92" value="规划项目进度" style="rounded=1;whiteSpace=wrap;html=1;align=center;fillColor=#fff2cc;strokeColor=#d6b656;" vertex="1" parent="M1Kj_39iP2AGimqlnrWc-1">
          <mxGeometry y="745" width="120" height="60" as="geometry" />
        </mxCell>
        <mxCell id="tBodU4Q1IQQOX9P65XnI-93" value="前期统计分析" style="rounded=1;whiteSpace=wrap;html=1;align=center;fillColor=#f8cecc;strokeColor=#b85450;" vertex="1" parent="M1Kj_39iP2AGimqlnrWc-1">
          <mxGeometry y="805" width="120" height="60" as="geometry" />
        </mxCell>
        <mxCell id="tBodU4Q1IQQOX9P65XnI-94" value="指标选择" style="rounded=1;whiteSpace=wrap;html=1;align=center;fillColor=#fff2cc;strokeColor=#d6b656;" vertex="1" parent="M1Kj_39iP2AGimqlnrWc-1">
          <mxGeometry x="205" y="680" width="120" height="60" as="geometry" />
        </mxCell>
        <mxCell id="tBodU4Q1IQQOX9P65XnI-95" value="分组策略" style="rounded=1;whiteSpace=wrap;html=1;align=center;fillColor=#fff2cc;strokeColor=#d6b656;" vertex="1" parent="M1Kj_39iP2AGimqlnrWc-1">
          <mxGeometry x="205" y="740" width="120" height="60" as="geometry" />
        </mxCell>
        <mxCell id="tBodU4Q1IQQOX9P65XnI-96" value="检验策略" style="rounded=1;whiteSpace=wrap;html=1;align=center;fillColor=#f8cecc;strokeColor=#b85450;" vertex="1" parent="M1Kj_39iP2AGimqlnrWc-1">
          <mxGeometry x="205" y="800" width="120" height="60" as="geometry" />
        </mxCell>
        <mxCell id="tBodU4Q1IQQOX9P65XnI-97" value="策略开发" style="rounded=1;whiteSpace=wrap;html=1;align=center;fillColor=#d5e8d4;strokeColor=#82b366;" vertex="1" parent="M1Kj_39iP2AGimqlnrWc-1">
          <mxGeometry x="370" y="680" width="120" height="60" as="geometry" />
        </mxCell>
        <mxCell id="tBodU4Q1IQQOX9P65XnI-98" value="埋点" style="rounded=1;whiteSpace=wrap;html=1;align=center;fillColor=#d5e8d4;strokeColor=#82b366;" vertex="1" parent="M1Kj_39iP2AGimqlnrWc-1">
          <mxGeometry x="370" y="740" width="120" height="60" as="geometry" />
        </mxCell>
        <mxCell id="tBodU4Q1IQQOX9P65XnI-99" value="一类、二类指标" style="rounded=1;whiteSpace=wrap;html=1;align=center;fillColor=#fff2cc;strokeColor=#d6b656;" vertex="1" parent="M1Kj_39iP2AGimqlnrWc-1">
          <mxGeometry x="370" y="800" width="120" height="60" as="geometry" />
        </mxCell>
        <mxCell id="tBodU4Q1IQQOX9P65XnI-101" value="原假设与备择假设" style="rounded=1;whiteSpace=wrap;html=1;align=center;fillColor=#f8cecc;strokeColor=#b85450;" vertex="1" parent="M1Kj_39iP2AGimqlnrWc-1">
          <mxGeometry x="205" y="860" width="120" height="60" as="geometry" />
        </mxCell>
        <mxCell id="tBodU4Q1IQQOX9P65XnI-102" value="样本量计算" style="rounded=1;whiteSpace=wrap;html=1;align=center;fillColor=#f8cecc;strokeColor=#b85450;" vertex="1" parent="M1Kj_39iP2AGimqlnrWc-1">
          <mxGeometry x="205" y="920" width="120" height="60" as="geometry" />
        </mxCell>
        <mxCell id="tBodU4Q1IQQOX9P65XnI-103" value="用户分流" style="rounded=1;whiteSpace=wrap;html=1;align=center;fillColor=#d5e8d4;strokeColor=#82b366;" vertex="1" parent="M1Kj_39iP2AGimqlnrWc-1">
          <mxGeometry x="625" y="675" width="120" height="60" as="geometry" />
        </mxCell>
        <mxCell id="tBodU4Q1IQQOX9P65XnI-104" value="AA test" style="rounded=1;whiteSpace=wrap;html=1;align=center;fillColor=#f8cecc;strokeColor=#b85450;" vertex="1" parent="M1Kj_39iP2AGimqlnrWc-1">
          <mxGeometry x="625" y="735" width="120" height="60" as="geometry" />
        </mxCell>
        <mxCell id="tBodU4Q1IQQOX9P65XnI-105" value="检验与决策" style="rounded=1;whiteSpace=wrap;html=1;align=center;fillColor=#f8cecc;strokeColor=#b85450;" vertex="1" parent="M1Kj_39iP2AGimqlnrWc-1">
          <mxGeometry x="1210" y="685" width="120" height="60" as="geometry" />
        </mxCell>
        <mxCell id="tBodU4Q1IQQOX9P65XnI-106" value="业务报告" style="rounded=1;whiteSpace=wrap;html=1;align=center;fillColor=#fff2cc;strokeColor=#d6b656;" vertex="1" parent="M1Kj_39iP2AGimqlnrWc-1">
          <mxGeometry x="1210" y="745" width="120" height="60" as="geometry" />
        </mxCell>
        <mxCell id="tBodU4Q1IQQOX9P65XnI-107" value="描述统计" style="rounded=1;whiteSpace=wrap;html=1;align=center;fillColor=#f8cecc;strokeColor=#b85450;" vertex="1" parent="M1Kj_39iP2AGimqlnrWc-1">
          <mxGeometry x="1385" y="685" width="120" height="60" as="geometry" />
        </mxCell>
        <mxCell id="tBodU4Q1IQQOX9P65XnI-109" value="数据收集、存储、计算、展示" style="rounded=1;whiteSpace=wrap;html=1;align=center;fillColor=#d5e8d4;strokeColor=#82b366;" vertex="1" parent="M1Kj_39iP2AGimqlnrWc-1">
          <mxGeometry x="1050" y="685" width="120" height="60" as="geometry" />
        </mxCell>
        <mxCell id="tBodU4Q1IQQOX9P65XnI-110" value="数据校验" style="rounded=1;whiteSpace=wrap;html=1;align=center;fillColor=#f8cecc;strokeColor=#b85450;" vertex="1" parent="M1Kj_39iP2AGimqlnrWc-1">
          <mxGeometry x="1050" y="745" width="120" height="60" as="geometry" />
        </mxCell>
        <mxCell id="tBodU4Q1IQQOX9P65XnI-111" value="业务知识" style="rounded=1;whiteSpace=wrap;html=1;align=center;fillColor=#fff2cc;strokeColor=#d6b656;" vertex="1" parent="M1Kj_39iP2AGimqlnrWc-1">
          <mxGeometry x="-230" y="685" width="120" height="60" as="geometry" />
        </mxCell>
        <mxCell id="tBodU4Q1IQQOX9P65XnI-112" value="编程技能" style="rounded=1;whiteSpace=wrap;html=1;align=center;fillColor=#d5e8d4;strokeColor=#82b366;" vertex="1" parent="M1Kj_39iP2AGimqlnrWc-1">
          <mxGeometry x="-230" y="745" width="120" height="60" as="geometry" />
        </mxCell>
        <mxCell id="tBodU4Q1IQQOX9P65XnI-113" value="统计学知识" style="rounded=1;whiteSpace=wrap;html=1;align=center;fillColor=#f8cecc;strokeColor=#b85450;" vertex="1" parent="M1Kj_39iP2AGimqlnrWc-1">
          <mxGeometry x="-230" y="805" width="120" height="60" as="geometry" />
        </mxCell>
        <mxCell id="tBodU4Q1IQQOX9P65XnI-114" value="知识图谱" style="rounded=0;whiteSpace=wrap;html=1;align=center;" vertex="1" parent="M1Kj_39iP2AGimqlnrWc-1">
          <mxGeometry x="-490" y="680" width="120" height="40" as="geometry" />
        </mxCell>
        <mxCell id="tBodU4Q1IQQOX9P65XnI-116" value="假设检验" style="rounded=1;whiteSpace=wrap;html=1;align=center;" vertex="1" parent="M1Kj_39iP2AGimqlnrWc-1">
          <mxGeometry x="-240" y="1130" width="120" height="60" as="geometry" />
        </mxCell>
        <mxCell id="tBodU4Q1IQQOX9P65XnI-136" value="" style="edgeStyle=orthogonalEdgeStyle;rounded=0;orthogonalLoop=1;jettySize=auto;html=1;" edge="1" parent="M1Kj_39iP2AGimqlnrWc-1" source="tBodU4Q1IQQOX9P65XnI-117" target="tBodU4Q1IQQOX9P65XnI-118">
          <mxGeometry relative="1" as="geometry" />
        </mxCell>
        <mxCell id="tBodU4Q1IQQOX9P65XnI-117" value="想证明A不成立" style="rounded=1;whiteSpace=wrap;html=1;align=center;" vertex="1" parent="M1Kj_39iP2AGimqlnrWc-1">
          <mxGeometry x="-40" y="1130" width="120" height="60" as="geometry" />
        </mxCell>
        <mxCell id="tBodU4Q1IQQOX9P65XnI-137" value="" style="edgeStyle=orthogonalEdgeStyle;rounded=0;orthogonalLoop=1;jettySize=auto;html=1;" edge="1" parent="M1Kj_39iP2AGimqlnrWc-1" source="tBodU4Q1IQQOX9P65XnI-118">
          <mxGeometry relative="1" as="geometry">
            <mxPoint x="20" y="1360" as="targetPoint" />
            <Array as="points">
              <mxPoint x="20" y="1350" />
              <mxPoint x="20" y="1350" />
            </Array>
          </mxGeometry>
        </mxCell>
        <mxCell id="tBodU4Q1IQQOX9P65XnI-118" value="找到当A成立时，很大概率不会发生的小概率事件B" style="rounded=1;whiteSpace=wrap;html=1;align=center;" vertex="1" parent="M1Kj_39iP2AGimqlnrWc-1">
          <mxGeometry x="-40" y="1230" width="120" height="60" as="geometry" />
        </mxCell>
        <mxCell id="tBodU4Q1IQQOX9P65XnI-119" value="1 给定一个显著性水平alpha&amp;nbsp;" style="rounded=1;whiteSpace=wrap;html=1;align=center;" vertex="1" parent="M1Kj_39iP2AGimqlnrWc-1">
          <mxGeometry x="-40" y="1420" width="120" height="60" as="geometry" />
        </mxCell>
        <mxCell id="tBodU4Q1IQQOX9P65XnI-181" style="edgeStyle=orthogonalEdgeStyle;rounded=0;orthogonalLoop=1;jettySize=auto;html=1;entryX=0.25;entryY=0;entryDx=0;entryDy=0;" edge="1" parent="M1Kj_39iP2AGimqlnrWc-1" source="tBodU4Q1IQQOX9P65XnI-120">
          <mxGeometry relative="1" as="geometry">
            <mxPoint x="-200.00000000000023" y="1580" as="targetPoint" />
          </mxGeometry>
        </mxCell>
        <mxCell id="tBodU4Q1IQQOX9P65XnI-120" value="2 计算A成立时的样本分布" style="rounded=1;whiteSpace=wrap;html=1;align=center;" vertex="1" parent="M1Kj_39iP2AGimqlnrWc-1">
          <mxGeometry x="-40" y="1500" width="120" height="60" as="geometry" />
        </mxCell>
        <mxCell id="tBodU4Q1IQQOX9P65XnI-121" value="3 以A的样本分布来衡量实验中比B还极端的事件出现的概率 P值" style="rounded=1;whiteSpace=wrap;html=1;align=center;" vertex="1" parent="M1Kj_39iP2AGimqlnrWc-1">
          <mxGeometry x="-40" y="1580" width="120" height="60" as="geometry" />
        </mxCell>
        <mxCell id="tBodU4Q1IQQOX9P65XnI-122" value="4 对比以上P值和显著性水平alpha" style="rounded=1;whiteSpace=wrap;html=1;align=center;" vertex="1" parent="M1Kj_39iP2AGimqlnrWc-1">
          <mxGeometry x="-40" y="1660" width="120" height="60" as="geometry" />
        </mxCell>
        <mxCell id="tBodU4Q1IQQOX9P65XnI-131" value="P &amp;gt; alpha" style="edgeStyle=orthogonalEdgeStyle;rounded=0;orthogonalLoop=1;jettySize=auto;html=1;" edge="1" parent="M1Kj_39iP2AGimqlnrWc-1" source="tBodU4Q1IQQOX9P65XnI-123" target="tBodU4Q1IQQOX9P65XnI-124">
          <mxGeometry relative="1" as="geometry" />
        </mxCell>
        <mxCell id="tBodU4Q1IQQOX9P65XnI-132" value="P &amp;lt;= alpha" style="edgeStyle=orthogonalEdgeStyle;rounded=0;orthogonalLoop=1;jettySize=auto;html=1;" edge="1" parent="M1Kj_39iP2AGimqlnrWc-1" source="tBodU4Q1IQQOX9P65XnI-123" target="tBodU4Q1IQQOX9P65XnI-126">
          <mxGeometry x="0.1438" y="5" relative="1" as="geometry">
            <Array as="points">
              <mxPoint x="20" y="1870" />
              <mxPoint x="20" y="1870" />
            </Array>
            <mxPoint as="offset" />
          </mxGeometry>
        </mxCell>
        <mxCell id="tBodU4Q1IQQOX9P65XnI-123" value="5 P值是否大于&lt;br&gt;显著性水平alpha" style="rhombus;whiteSpace=wrap;html=1;align=center;" vertex="1" parent="M1Kj_39iP2AGimqlnrWc-1">
          <mxGeometry x="-45" y="1750" width="130" height="80" as="geometry" />
        </mxCell>
        <mxCell id="tBodU4Q1IQQOX9P65XnI-135" value="" style="edgeStyle=orthogonalEdgeStyle;rounded=0;orthogonalLoop=1;jettySize=auto;html=1;" edge="1" parent="M1Kj_39iP2AGimqlnrWc-1" source="tBodU4Q1IQQOX9P65XnI-124" target="tBodU4Q1IQQOX9P65XnI-125">
          <mxGeometry relative="1" as="geometry" />
        </mxCell>
        <mxCell id="tBodU4Q1IQQOX9P65XnI-124" value="B 并不是A发生时的小概率事件" style="rounded=1;whiteSpace=wrap;html=1;align=center;" vertex="1" parent="M1Kj_39iP2AGimqlnrWc-1">
          <mxGeometry x="110" y="1900" width="110" height="60" as="geometry" />
        </mxCell>
        <mxCell id="tBodU4Q1IQQOX9P65XnI-125" value="B发生了也没法证明A不成立" style="rounded=1;whiteSpace=wrap;html=1;align=center;" vertex="1" parent="M1Kj_39iP2AGimqlnrWc-1">
          <mxGeometry x="105" y="2000" width="120" height="60" as="geometry" />
        </mxCell>
        <mxCell id="tBodU4Q1IQQOX9P65XnI-134" value="" style="edgeStyle=orthogonalEdgeStyle;rounded=0;orthogonalLoop=1;jettySize=auto;html=1;" edge="1" parent="M1Kj_39iP2AGimqlnrWc-1" source="tBodU4Q1IQQOX9P65XnI-126" target="tBodU4Q1IQQOX9P65XnI-127">
          <mxGeometry relative="1" as="geometry">
            <Array as="points">
              <mxPoint x="20" y="1970" />
              <mxPoint x="20" y="1970" />
            </Array>
          </mxGeometry>
        </mxCell>
        <mxCell id="tBodU4Q1IQQOX9P65XnI-126" value="&lt;span style=&quot;color: rgb(0 , 0 , 0) ; font-family: &amp;#34;helvetica&amp;#34; ; font-size: 12px ; font-style: normal ; font-weight: 400 ; letter-spacing: normal ; text-align: center ; text-indent: 0px ; text-transform: none ; word-spacing: 0px ; background-color: rgb(248 , 249 , 250) ; display: inline ; float: none&quot;&gt;B 并不是A发生时的&lt;br&gt;小概率事件&lt;/span&gt;" style="rounded=1;whiteSpace=wrap;html=1;align=center;" vertex="1" parent="M1Kj_39iP2AGimqlnrWc-1">
          <mxGeometry x="-40" y="1900" width="120" height="60" as="geometry" />
        </mxCell>
        <mxCell id="tBodU4Q1IQQOX9P65XnI-127" value="可以证明B发生时&lt;br&gt;A不成立" style="rounded=1;whiteSpace=wrap;html=1;align=center;" vertex="1" parent="M1Kj_39iP2AGimqlnrWc-1">
          <mxGeometry x="-40" y="2000" width="120" height="60" as="geometry" />
        </mxCell>
        <mxCell id="tBodU4Q1IQQOX9P65XnI-129" value="AB的关系类似于&lt;br&gt;&lt;br&gt;A这个人穷 B这个人只用最低价位的牙膏&lt;br&gt;&lt;br&gt;然后去验B和A 是不是存在足够强的关系&lt;br&gt;&lt;br&gt;如果是&lt;br&gt;&lt;br&gt;就可以用B来验证A" style="rounded=0;whiteSpace=wrap;html=1;align=center;" vertex="1" parent="M1Kj_39iP2AGimqlnrWc-1">
          <mxGeometry x="-470" y="1220" width="160" height="200" as="geometry" />
        </mxCell>
        <mxCell id="tBodU4Q1IQQOX9P65XnI-130" value="证明当A成立时，B是小概率事件" style="text;html=1;strokeColor=none;fillColor=none;align=center;verticalAlign=middle;whiteSpace=wrap;rounded=0;" vertex="1" parent="M1Kj_39iP2AGimqlnrWc-1">
          <mxGeometry x="-20" y="1380" width="100" height="20" as="geometry" />
        </mxCell>
        <mxCell id="tBodU4Q1IQQOX9P65XnI-143" value="" style="edgeStyle=orthogonalEdgeStyle;rounded=0;orthogonalLoop=1;jettySize=auto;html=1;" edge="1" parent="M1Kj_39iP2AGimqlnrWc-1" source="tBodU4Q1IQQOX9P65XnI-140" target="tBodU4Q1IQQOX9P65XnI-142">
          <mxGeometry relative="1" as="geometry" />
        </mxCell>
        <mxCell id="tBodU4Q1IQQOX9P65XnI-140" value="想知道什么情况下&lt;br&gt;硬币不均匀" style="rounded=1;whiteSpace=wrap;html=1;align=center;" vertex="1" parent="M1Kj_39iP2AGimqlnrWc-1">
          <mxGeometry x="130" y="990" width="120" height="60" as="geometry" />
        </mxCell>
        <mxCell id="tBodU4Q1IQQOX9P65XnI-142" value="我是游戏厅老板，硬币均匀我就赚钱，为了验硬币，我买了机器，快速投100枚币" style="rounded=0;whiteSpace=wrap;html=1;align=center;" vertex="1" parent="M1Kj_39iP2AGimqlnrWc-1">
          <mxGeometry x="280" y="990" width="120" height="60" as="geometry" />
        </mxCell>
        <mxCell id="tBodU4Q1IQQOX9P65XnI-144" value="原假设H0：硬币均匀 A&amp;nbsp;&lt;br&gt;备择假设H1：硬币不均匀 NOT A&amp;nbsp;" style="rounded=1;whiteSpace=wrap;html=1;align=center;" vertex="1" parent="M1Kj_39iP2AGimqlnrWc-1">
          <mxGeometry x="130" y="1060" width="260" height="60" as="geometry" />
        </mxCell>
        <mxCell id="tBodU4Q1IQQOX9P65XnI-168" value="" style="edgeStyle=orthogonalEdgeStyle;rounded=0;orthogonalLoop=1;jettySize=auto;html=1;" edge="1" parent="M1Kj_39iP2AGimqlnrWc-1" source="tBodU4Q1IQQOX9P65XnI-145" target="tBodU4Q1IQQOX9P65XnI-146">
          <mxGeometry relative="1" as="geometry" />
        </mxCell>
        <mxCell id="tBodU4Q1IQQOX9P65XnI-145" value="想证明硬币不均匀" style="rounded=1;whiteSpace=wrap;html=1;align=center;" vertex="1" parent="M1Kj_39iP2AGimqlnrWc-1">
          <mxGeometry x="185" y="1130" width="120" height="60" as="geometry" />
        </mxCell>
        <mxCell id="tBodU4Q1IQQOX9P65XnI-169" value="" style="edgeStyle=orthogonalEdgeStyle;rounded=0;orthogonalLoop=1;jettySize=auto;html=1;" edge="1" parent="M1Kj_39iP2AGimqlnrWc-1" source="tBodU4Q1IQQOX9P65XnI-146" target="tBodU4Q1IQQOX9P65XnI-147">
          <mxGeometry relative="1" as="geometry" />
        </mxCell>
        <mxCell id="tBodU4Q1IQQOX9P65XnI-146" value="B：投100次硬币，正面反面悬殊过大&lt;br&gt;&lt;br&gt;如果硬币是均匀的（A成立）&lt;br&gt;&lt;br&gt;事件B就是个小概率事件" style="rounded=1;whiteSpace=wrap;html=1;align=left;" vertex="1" parent="M1Kj_39iP2AGimqlnrWc-1">
          <mxGeometry x="145" y="1230" width="200" height="100" as="geometry" />
        </mxCell>
        <mxCell id="tBodU4Q1IQQOX9P65XnI-149" value="" style="edgeStyle=orthogonalEdgeStyle;rounded=0;orthogonalLoop=1;jettySize=auto;html=1;" edge="1" parent="M1Kj_39iP2AGimqlnrWc-1" source="tBodU4Q1IQQOX9P65XnI-147" target="tBodU4Q1IQQOX9P65XnI-148">
          <mxGeometry relative="1" as="geometry">
            <Array as="points">
              <mxPoint x="370" y="1450" />
              <mxPoint x="370" y="1450" />
            </Array>
          </mxGeometry>
        </mxCell>
        <mxCell id="tBodU4Q1IQQOX9P65XnI-170" value="" style="edgeStyle=orthogonalEdgeStyle;rounded=0;orthogonalLoop=1;jettySize=auto;html=1;" edge="1" parent="M1Kj_39iP2AGimqlnrWc-1" source="tBodU4Q1IQQOX9P65XnI-147" target="tBodU4Q1IQQOX9P65XnI-152">
          <mxGeometry relative="1" as="geometry" />
        </mxCell>
        <mxCell id="tBodU4Q1IQQOX9P65XnI-147" value="给定alpha&amp;nbsp; = 0.05&amp;nbsp;" style="rounded=1;whiteSpace=wrap;html=1;align=left;" vertex="1" parent="M1Kj_39iP2AGimqlnrWc-1">
          <mxGeometry x="185" y="1420" width="120" height="60" as="geometry" />
        </mxCell>
        <mxCell id="tBodU4Q1IQQOX9P65XnI-148" value="判定标准：如果出现拒真（一类，假阳性）错误，带来的后果有多严重。&lt;br&gt;后果越严重,alpha值就要越小" style="rounded=0;whiteSpace=wrap;html=1;align=left;" vertex="1" parent="M1Kj_39iP2AGimqlnrWc-1">
          <mxGeometry x="390" y="1415" width="135" height="70" as="geometry" />
        </mxCell>
        <mxCell id="tBodU4Q1IQQOX9P65XnI-155" value="" style="edgeStyle=orthogonalEdgeStyle;rounded=0;orthogonalLoop=1;jettySize=auto;html=1;entryX=0;entryY=0.5;entryDx=0;entryDy=0;" edge="1" parent="M1Kj_39iP2AGimqlnrWc-1" source="tBodU4Q1IQQOX9P65XnI-152" target="tBodU4Q1IQQOX9P65XnI-153">
          <mxGeometry relative="1" as="geometry">
            <Array as="points" />
          </mxGeometry>
        </mxCell>
        <mxCell id="tBodU4Q1IQQOX9P65XnI-152" value="&lt;br&gt;总体分布：&lt;br&gt;符合p = 0.5 的二项分布&lt;br&gt;&lt;br&gt;样本分布：&lt;br&gt;100次投币，出现正面次数占比（正面的概率）(正反都一样 毕竟0.5二项" style="rounded=1;whiteSpace=wrap;html=1;align=left;" vertex="1" parent="M1Kj_39iP2AGimqlnrWc-1">
          <mxGeometry x="180" y="1520" width="130" height="120" as="geometry" />
        </mxCell>
        <mxCell id="tBodU4Q1IQQOX9P65XnI-153" value="假设硬币均匀，那就是只有正反面（0-1分布），概率0.5&amp;nbsp;" style="rounded=0;whiteSpace=wrap;html=1;align=left;" vertex="1" parent="M1Kj_39iP2AGimqlnrWc-1">
          <mxGeometry x="397.5" y="1550" width="120" height="60" as="geometry" />
        </mxCell>
        <mxCell id="tBodU4Q1IQQOX9P65XnI-171" style="edgeStyle=orthogonalEdgeStyle;rounded=0;orthogonalLoop=1;jettySize=auto;html=1;entryX=0.5;entryY=0;entryDx=0;entryDy=0;" edge="1" parent="M1Kj_39iP2AGimqlnrWc-1" source="tBodU4Q1IQQOX9P65XnI-158" target="tBodU4Q1IQQOX9P65XnI-162">
          <mxGeometry relative="1" as="geometry">
            <Array as="points">
              <mxPoint x="483" y="1625" />
              <mxPoint x="483" y="1735" />
              <mxPoint x="665" y="1735" />
            </Array>
          </mxGeometry>
        </mxCell>
        <mxCell id="tBodU4Q1IQQOX9P65XnI-158" value="&lt;table border=&quot;0&quot; cellpadding=&quot;0&quot; cellspacing=&quot;0&quot; width=&quot;73&quot; style=&quot;border-collapse: collapse ; width: 55pt&quot;&gt;&#xa; &lt;colgroup&gt;&lt;col width=&quot;73&quot; style=&quot;width: 55pt&quot;&gt;&#xa; &lt;/colgroup&gt;&lt;tbody&gt;&lt;tr style=&quot;height: 15.0pt&quot;&gt;&#xa;&#xa;  &lt;td height=&quot;20&quot; width=&quot;73&quot; style=&quot;height: 15.0pt ; width: 55pt&quot;&gt;BINOM.DIST(J42,100,0.5,0)&lt;/td&gt;&#xa;&#xa; &lt;/tr&gt;&#xa;&lt;/tbody&gt;&lt;/table&gt;" style="text;whiteSpace=wrap;html=1;" vertex="1" parent="M1Kj_39iP2AGimqlnrWc-1">
          <mxGeometry x="170" y="1560" width="180" height="130" as="geometry" />
        </mxCell>
        <mxCell id="tBodU4Q1IQQOX9P65XnI-159" value="" style="shape=image;verticalLabelPosition=bottom;labelBackgroundColor=#ffffff;verticalAlign=top;aspect=fixed;imageAspect=0;image=data:image/png,iVBORw0KGgoAAAANSUhEUgAAAWcAAAC8CAYAAACkNm/VAAAe90lEQVR4Ae2diXMV1Z7H/dNm5k2N9abq1Yw1OjO88T3fIE9FkEhYJCEJIWQxBIwyKEiQCAKKrEJwIxFE1rBkIRAQSQTCvgQTAoEEf1PfE86ls9zbffp29+3le6pudd++p8/yOX2/ffr36/71cyIi586dw4KJBHwjMDQ0JIODg1mV/+TJE/n999+Nyujv7x+V33T/UTvzCwkESOA51EVxDpA4qyIBEiABBwSeO3nyJMXZAShmIQESIIEgCXDmHCRt1kUCJEACDglQnB2CYjYSIAESCJIAxTlI2qyLBEiABBwSoDg7BMVsJEACJBAkAYpzkLRZFwmQAAk4JEBxdgiK2UiABEggSAIU5yBpsy4SIAEScEiA4uwQFLORAAmQQJAEKM5B0mZdJEACJOCQAMXZIShmIwESIIEgCVCcg6TNukiABEjAIQGKs0NQzEYCJEACQRKwFeeBgQFZtmyZlJWVya5du0a17dKlS1JZWSmLFi2S9vZ2QVjIVatWqe9r1qwxDu84qnB+IQESIIEEE7AV561bt8ru3btleHhY5syZI3fu3Enhgih3d3fL7du3Zfbs2XLw4EGBKCNVV1dLZ2dnKm+6FeyLkKX8kAGPAR4DcT8GoHdOk23I0KVLl8rFixdVeStXrpSOjo5U2TNmzEit5+XlSVNTk9TX16tta9eulb1796Z+5woJkAAJkIBzArYzZ8yAYb5AqqurU+YLXfz06dP1quTn50tfX598+OGHUlVVpWbZ+/fvT/3OFRIgARIgAecEbMX5k08+kcOHD6sSS0tL5ebNm/Lw4UP1HaaMe/fuyYMHD2TWrFmpWvEqIJg8enp6Utu4QgIkQAIk4JyArThj1gwRrqioSJks8B22Z8yM582bJ8XFxXLgwAFlf8ZMu6SkRDZv3uy8FcxJAiRAAiQwioCtOCM3ZsKPHj1K7YgXbeqEOzTgLNQJs2psYyIBEiABEnBPwJE4uy+ee5IACZAACbghQHF2Q437kAAJkIDPBCjOPgNm8SRAAiTghgDF2Q017kMCJEACPhOgOPsMmMWTAAmQgBsCFGc31LgPCZAACfhMgOLsM2AWTwIkQAJuCFCc3VDjPiRAAiTgMwGKs8+AWTwJkAAJuCFgK84m8Zzx5KCO51xbWyuDg4Nu2sR9SIAESCDxBGxDhprEc75w4YKKSAeq77///qjwooknTQAkQAIkYEDAduZsEs8Zs+zCwkL59NNP1ZtTnMycGWyfAdaDDLD+/Y9n5K8lJ+RvJScE60HWzbp4rBsF24eQ46BJl0ziOff29kp5ebmsW7dORau7ceNGumK5nQQCJfD48RNZveOy/GFas/zDmyMfrGMbfmMigbARsJ05m8RzbmxslI0bN6o+btu2bdw7B8PWebYnGQQQVfGtJaeVKEOQ67ZfUh8t1PgNeZhIIEwEbMXZJJ7zlStXVND9mpoamTt3LoPth2mkE9yW1nN9SphffKdFznbfT5E4031fsA0zaeRhIoEwEbAVZzTWJJ4z8sL2zEQCYSFQvbZLCfCnDePfzINtEGfkYSKBMBFwJM5hajDbQgImBAYGh+WPbx9XAnzt1vhbO7EN4ow8yMtEAmEhQHEOy0iwHb4Q+PbQLSW++bWdacuf+V6nyoO8TCQQFgIU57CMBNvhCwEtvN8dvp22fC3gyMtEAmEhQHEOy0iwHZ4TcGqysDN9eN4wFkgCDghQnB1AYpZoEtDOvpp19s6+TE7DaPaerY46AYpz1EeQ7U9L4M9FbcqW7OQ2OX27HfbhPc9pkfKHAAlQnAOEzaqCI9B99YES5pcKWhyJLQR50vwRMW/7mfc8BzdSrCkdAYpzOjLcHmkCW5quK3F2YtLQHV2z87LaZ+n6br2JSxLIGQGKc87Qs2I/CRQsP6eE9ofm9HdpjK3/0vWHap8/5Z+QR4y3MRYPvwdMwDZkaMDtYXUkkDUBBDJ6Pm/kwZPevsdG5b1ZfUYJ9L4Td4z2Y2YS8JqA7czZJNh+R0eHLFiwQH2Kiork8OHDXreX5ZGALYGTZ39TAvtG5WnbvGMz7Nh7Q+1btOLnsT/xOwkESsBWnE2C7VtbXlZWJt3d9rY7xnNmjFuv4xwv/mTEsbd4TZtxvObjLWdVWFFErMO6121jeck+3j2N52wSbB+vqULq6upSwfatYs11EgiKwOsVHWr2ixm0m4RZM+JtYBbNRAK5ImA7czYJtj80NKT6sXz5cmlubs5Vn1hvggnAxgxhhc3ZbRB92JtRBuzPTCSQKwK24mwSbB+dwLR95syZomfRueoY600mAdydAWHF3RpuE+7UwB0bKAd3cDCRQC4I2IqzSbB9dOCLL76QhoaGXPSFdZKA4L5miCruc84mvbehW5WDe5+ZSCAXBGzFGY0yCbbPGXMuhpF1agJ4IhDijCcEs0l4ShDl4HFuJhLIBQFH4pyLhrFOEjAloKPQvTC3xXTXcfkxIXlh7kkl0BMF6R+3AzeQgMcEKM4eA2VxuSOw7/iII8+re5T1XRt7jzl/yjB3vWfNcSNAcY7biCa4Pyu3XFIz3Q3fXPGEAsqBaeOjLZc8KY+FkIAJAYqzCS3mDTWBvCUjj16fOOPu/uaxnUM5EOe3lpg/aTi2LH4nAVMCFGdTYswfSgJDw0/kX2YcU2LaPzByv322DUU5EGeUi/KZSCBIAhTnIGmzLt8I/HzxvhLSVxae8rQOlAeBRvlMJBAkAYpzkLRZl28Edv44ErDIJH6zk8bo+6ZRPhMJBEmAIUODpM26fCOg3wG4a/9NT+vQoo/ymUggSAKcOQdJm3X5RuBvpe2+mB+0uQTlM5FAkARsxdkknjMa3traKuXl5bJo0SK5evVqkH1hXQkl4Kfjzg9HY0KHid02JGArzibxnCHks2fPlv7+ftUMJ28xZjznZMe39SK+8Vd7TqtZ89/LT/gSfxnlwimIerxoL8tI7jGfs3jOmDWXlJTI2rVrZefOnfL4sdkrggxPLMxOAoqAflgED6H4kbx+uMWPNrLM+BGwnTmbxHM+dOiQVFVVSU9Pj6xYsUL27NkTP2LsUegI6Mes8fi2HwmPb2Pm7NVj4X60kWXGj4CtOJvEc8blGt6cgrRr1y6GDo3f8RLKHvkdoMjLgEqhBMhGhZKArTibxHNGuNCFCxcKZtvFxcVy7969UHaajYoPgVt3H6lZ7b/POelrp1A+Zs+oj4kEgiBgK85ohEk8Z+R/8CC7WLpBdJx1xIPAkfZeJZpzlp31tUMoH+KM+phIIAgCjsQ5iIawDhJwQ0A7A1dt88cZqNuE8iHOXkW80+VySQLpCFCc05Hh9kgQKK07r0SzqdkfZ6CGgPIhzqiPiQSCIEBxDoIy6/CNwMslbUo0s30tlV0DUT7EGfUxkUAQBCjOQVBmHb4QGHg4rAQTIT2Hh3/3pQ5dKMrXIUlRLxMJ+E2A4uw3YZbvG4FTv/QrcX6zOphg+KgHs2fUy0QCfhOgOPtNmOX7RuCrfSNhQt/b0O1bHdaCUQ/EGfUykYDfBBgy1G/CLN83AkvXByuW+mSAeplIwG8CnDn7TZjl+0ZgatWImaEjIDODNqOgXiYS8JsAxdlvwizfFwJw0P3z03cGBuWg0w5I1Ou3A9IXaCw0UgRsxdkknvPg4KAUFRVJaWmpVFRURAoEGxstAt1XBpT99y8lwQbBT926d2UgWsDY2sgRsBVnk3jOiONcU1MTOQhscPQINB4deSikrO6XQBuvH3pB/Uwk4CcBW3FGlLmLFy+qNqxcuVI6OjpS7ZkxY0ZqPS8vT/r6+gTL9evXS0tLS+q3TCsMtp/cwOPZBJ1/d/XIwyfLPmsPNAD+B5+NvA4L9WfTfu6bzOPe02D7JvGcEVz/8uXLcv78efVGlO5uerUznZj4m3sCcz8YCUR09FSwgYh0oCXUz0QCfhKwnTmbxHO2NrS2tlba24O1B1rr53q8CfybDuHZG2wITx2iFPUzkYCfBGzF2SSec1tbm5SVlUllZaUsWbJEhoaG/Gw7y04ogV+fxrl4qcCZ6cxrTDq28407wZ4YvO4Hyws3AVtxRvNN4jnDtIG7NphIwC8C2/deV3dqVK/t8quKjOW+s/ycqv+nlrsZ8/FHEsiGgCNxzqYC7ksCXhPQ7wxsPHrb66Idlbdm52UlzvVfXXaUn5lIwA0BirMbatwnZwTw8Me/zjyuxPF2b27e7n6g5a6qHzNoJhLwiwDF2S+yLNcXAnhUG8GHJped8qV8J4XC1ow2+P3eQidtYZ74EqA4x3dsY9mzdQ09Shg/3Ozva6ns4NEpaEeIv2dLgOKcLUHuHyiBGUvPKHHO9YtWtVMQJg4mEvCDAEOG+kGVZfpCAIGH/ml6s/oEFewoXUfoFExHhtu9IsCZs1ckWY7vBPTTeZg95zrRKZjrEYh//RTn+I9xbHr40ZeXlEnjs91Xct4nOgVzPgSxbwDFOfZDHJ8O4g4N3CURVHB9O3J0CtoR4u/ZELAVZ5N4zroh27dvl+XLl+uvXJJA1gRwTzOEGfc4hyXQPZ2CWQ8rC8hAwFacTeI5o56enh4VX6OwsDBDtfyJBMwI7DlyW4kzng4MS8ITgjhh8EnBsIxIvNphK84m8ZyfPHkiCDHa1dUlTsWZ8ZyTGdfWNJ5x4f+1KiFctelUaOIof/l1h2rTjOqToWmTKVfmD/b/l7N4zkeOHJH6+noVdL+goECGh4fjdSpjb3JG4MV5LUoIEZEuLIlOwbCMRDzbYTtzNonn3NjYKIsXL1az58mTJ0tTU1M8qbFXgRLQIvjC3PDFUH7mFGQkxkAPigRUZivOJvGcNS+EDJ0/f77+yiUJZEUAoTlh2y0IYaAh7RRk+NCshpg7T0DAVpyxj0k8Z10H7M9MJOAFAe14w1N5YUt8UjBsIxKf9jgS5/h0lz2JIgE9Ow1jHAs+KRjFIyoabaY4R2OcEt3KZ3bd8L0WStvD0UYmEvCSAMXZS5osy3MCWvzC6AzUnX128qBTUDPhMnsCFOfsGbIEHwlos0EYnYG629rsQqegJsKlFwQYMtQLiizDNwJhdgbqTtMpqElw6SUBzpy9pMmyPCegZ6VhdAbqzurZPdrKRAJeEaA4e0WS5fhC4Jk9N3zOQN1hbRenU1AT4dILAhRnLyiyDF8IaNELszNQdzwKJxHdVi6jQYDiHI1xSmQrtbkgzM5APTBRML/otnIZDQIU52iMUyJbGQVnoB6YKLVVt5nLcBOwFWeTYPv9/f2CEKMlJSWyadOmcPecrQs9gSjNRvUsn07B0B9WkWmgrTibBNuHkN+6dUuGhoZkypQpamlHgvGcg40nG6X4vX/KP6YCHh053hn6eMloI4Izoc1RYsy2Bvv/8zSes2mw/c7OTtm2bZtUVVXZ6TJ/J4G0BC5de6DE7sV3WtLmCdsPOuY02s5EAtkSsJ05480mCBuKVFdXJ+3t7ak6p0+fnlrPz89XM+WWlhbBbHvWrFly79691O9cIQETAg0/3VTiXLHmgsluOc2LtmL2vGv/zZy2g5XHg4CtOJsE24c5QyeIulXI9XYuScAJAS10EOmoJH1CKf/kl6g0me0MMQFbcTYJtn/69GkpLi5WJo2ysjJ59Ci8Dw6EeEzYNBGBOQOz0EvXH0aGB9qKNkfJFBMZuAlsqK04g4lJsH28N/Dhw+j8oRI45qHvcpRFLnVSod059MdZ2BvoSJzD3gm2L14EtHkgSvZmPQLaHEO7sybCpVsCFGe35LifbwS0wEXJ3qxh6BML7c6aCJduCTBkqFty3M83AinTQITszRpGlE0yug9choMAZ87hGAe24imBOIhb6uRCuzOP6ywIUJyzgMddvSegzQJRtDdrGlE2y+g+cJl7AhTn3I8BW2AhEAdhi8MJxjIkXM0RAYpzjsCz2okJpEwCEbQ36x7FwTSj+8Jl7ghQnHPHnjWPIdB9ZUA9xPFSQXTiaYzpQuor+oAHUtAnJhJwQ4Di7IYa9/GFwNbG60rQatZ1+VJ+kIWiDxBn9ImJBNwQsBVnN/GcCwoKGM/ZzWgkfB+88QSC9kPz7ciTQB/Qlyi8xSXysGPaAVtxNonnfP/+fbl69ap6fBvxnBF8n4kEnBB4/PiJPJ93XAlab9+zAFpO9g1jnt6+x6ov6BP6xkQCpgRsxdk0njMaAFGeOnUqg+2fCzaQd5QDp+9sPK3E7JXSE7EJVo++YPaMvkV5bNh27/7HngbbN43njCBJtbW10tTUZHqiYP4EE6jbfkkJ2eodl2NDIY59is3gRKAjtjNnk3jO6G99fb1s3LgxAl1nE8NE4PWKDiXOLWd/C1OzsmrLybO/qT69UXk6q3K4czIJ2IqzaTznSZMmCWI544P4zkwkYEcgrvbZuNnR7caRv3tLwFacUZ1JPGdvm8fSkkBA39lQ+OG52HU3dQfKsejfgRK7wQl5hxyJc8j7wOZFnIC+J3hLU/zuCY7TvdsRP8wi13yGDI3ckMWrwbgq02+t7r4av7dWW596RF+ZSMApAc6cnZJiPl8ItJ7rU06zPxe1+VJ+GAr9n+I21Uf0lYkEnBKgODslxXy+ENAmjU8benwpPwyFrmvoUeJcvTb6j6WHgWdS2kBxTspIh7CfA4PD8se3R54KvHZrMIQt9KZJ6BseRkFf0WcmEnBCgOLshBLz+ELgu8Mj8SdmvtfpS/lhKjS/tlMJ9LeHboWpWWxLiAlQnEM8OHFvGkQZM8okCFaSTkRxP26D6h/FOSjSrGcUgaRd6ifFhDNqkPklKwIU56zwcWe3BOAAxKw5SU4y9BV9jrPz0+3xwP3GE7AVZ5N4zij+/PnzsnDhQhU6dHx13EICIsNPfpdJ85N3e5m+bXDS/FaGEeUfwZaArTibxHMeHh6W1atXK3Hu7u62rZwZkklgz5ERR+BfFrSr0ABJoYCHUF4tO6Vmz4hYx0QCmQjYirObeM4IGepUnBHflPFivYsXG3aWnZ1n5b8LRm6fW7ejI3Fj//2PZ+QfpzWrD9bDPl5sn7f/zZzGc8aZwEScM505+Fv8CFhnzTBvJDEhZjVsz/+78BTNG0k8ABz22XbmbBrPGfVSnB3ST1g2iDFMGRAmiHRSE0KJQpjBIU4vF0jqePrVb1txNonnDJtaTU2NvPHGG7JgwQLGc/Zr1CJaLmfNzwbubPd9+cO0ZvXBOhMJjCVgK87YAaL76NGj1L5Pnjx7YeXQ0JDAEchEApkIDD4alpdLRu7QSPKs2cpIv8bqlYWnBHyYSMBKgCFDrTS47hsBHeDo1UUd6lY63yqKUMEwb+i7N8CHiQSsBBzNnK07cJ0ETAnoR5efzzsuv8YwZrMpD2t+8AAX2J/BiYkENAGKsybBpS8EKD72WHnysmeUxBwU5ySOekB97u0bEthTMSvkZXtm6NrsA17gxkQCFGceA74QwBu1tT31tfIOOrxsKMMhCE44kYEbBdoGWAJ+pjgnYJCD7iKERQszhcY5fXJzzioJOSnOSRjlgPqIh0xwm5x+Zx6F2Ry89Yrjr6XtwnugzRnGZQ+Kc1xGMof90KKsn/7Dpfkblad5ae5yTCDQf68YMXHgQRU8RYjb7piSRYDinKzx9qy3eDCps+u+rNx6Uf6rsFXZSiHKEGjMnpMaN8MrwBBjPKQCcQbX/yxsVazBHOyZ4k+A4hz/Mfash+kEGeKBS3CKsmeoUwWd6b6fst+DMz44GeKkSKFOYYrliufivGnTJikrK5OVK1fK48ePYwktjp2yCi+CwWshyLSkSARzJFjHxnqVkmlsXpzXIhVrLkjDTzfl0vWHwTSUtXhKwFNx7uzslCVLlqgG1tXVycGDB20bi/imr5efcCQGmQ5G/jYyq/Kbw3/MPS6Vq1vl231n5OzZs4xHfM7beL928ZPBHOwxBhgLv8eb5Xvzv4LGYWw9jedsq66WDF9//bV88803asv+/fvlyy+/tPzKVRIgARIgAacEPJ0579y5U7799ltVN2bNMHEwkQAJkAAJmBPwVJwPHz4sa9asUa2AMP/444/mLeIeJEACJEAC4mnI0IcPH0pJSYlUV1dLeXm54DsTCZAACZCAOQFPZ866+sHBQb3KJQmQAAmQgAsCvoizi3akdhkYGHA84+7v73eUF29ruXz5snoj+P37Zq8Ewu2AaFOmBA/srVu3MmVx9NudO3cc5cObaHp7ex09jHD37l3V76tXr4r1DTZOKurr67Pd5/z581m/CYdjbj8aHHP7q/C4/c9DJ8579uyR48ePpz1atU37wIED8uabb8r06dMz3rLX3d0teXl5UlVVJa+++qrMmzdP8NLaTOmLL76QOXPmCO4+eeutt+T111+X77//Pu0uW7dulalTp8rSpUuzem/iu+++m7aOffv2yYULFwQHIPowd+5cKSoqGvX6sLE7r1q1SuVD/lmzZqk+oYx0qaenR5UJs9Tnn3+u+o39Mp2cJk+eLDNnzpQdO3YITpZuEsd8Ymocc5Gk/c+tR0JOxRmiNmXKFCWeEFB8XnvttYziXFpaqtoPIfvtt9/kwYMHsnDhQmufRq1v2LAhJZgffPCBEhqI1unTp0fl01/wrkSI2c2bN6W4uFg5NWGm0fXqfNYl+tHa2iodHR3K3o799+7dm/YhHMyCXn755VH9Rt/nz59vLXbUOupoa2uTn3/+OeV03bJlixw7dmxUPv0F/cDDQEgQ3c8++0xu3LghlZWVOsu45caNG1V/4dh9++231Ylg+/btcuTIkXF59Qa8yBcz7G3btqn+gC2uUtIljvnIca6Pd475xEeK/r8l7X9upZFTccaleUVFxahLZ7tZFGayECXM1nTKJM5NTU2yevVqJZ6YDcNMAeH86aef9O6jlhBOfWCgnosXL6rLdr1tVOanX7Q4698ghngIp729XW8at8TMdKywZpo5o47ly5fLRx99JF999ZUq77vvvpNDhw6NK1tvKCwslObmZnVL4+bNm9XmRYsW6Z/HLXEr5NGjR1V/ly1bpn7X28ZlfroB4qwTZvWY7a1YsUJvGrfkmI8+mXLMxx0iakNS/+dWGjkVZzTk2rVro2yWmIVluow+c+aMEj0988XsOZ3QonyI7e7du+Xjjz+WkydPqr6jDNhi0yXMgK13mmAWDZFLlyDCsOmaJJwkMJO1puvXr1u/jlqHXRv14KPt27jkQ//TJZxYYMLBjBi2drDArDhdQh485WlNP/zwg7o6sW6zrmcy91jzWdc55s9ocMyfsbCuJfV/bmWQc3G2NibM606ddboPJk4uvU+mE4bOY12iDtM7Y0zqcOIQtLbHifPUmh/rma4uxubFd5yMfv3114l+SrvNtA6njmZdIU56Thy0yIeEJSYXmez/yIeYGvggYYIAs5adXd+0DjfObDdOYEx2dNvwGDP6kymh3zBZIt27d0/xGh4ezrSLmlCZ1IHCTB3mpk5HtAemSJgGcaVs129rBynOVhoZ1jNdfk60m515Bk5HODPhRNQDpm3EE5WHmbl27OnZKq4IMjlPTetw4xA0dZ7i6gUmH/2BIxXrcNymS5j96/w1NTVSUFCgbNzp8rupw9TRbOqsw58aTmmk+vp6QT9g/8/0FC1MWRBxTAxgo4Y9Hw5anAgmSm7rMHVmmzqBcXLEsf7OO+/I+vXrlY8IZslMVw0wv6HPCAGBPi9evFgdAxP1G9vc1GHqMHdzcwFiDUE74PNZt26dcrjrEBfp+qK3U5w1iadLnOncOOtMHJtw1uXn56s/Hc6osIVjFpVJnGGjxqPxOKBhe4aZZteuXWnF2U0dpg5BN85TmGKmTZum7P4wocAujmW6GSFmUPhzwgYOoYKdHREPM4m5aR0Yeu1TwB/JiaMZwmnioIVw4sEsJC3SWM805hBu9BnCg7FGwkk/XUAxN3Vof4lTZzbaYOoEhlO+q6tLWlpa1N1PmAE3NjamNUfiahAnLyTckQTTGlIm35JpHW4c5m5uLoBPzZqgL5nG3JqX4myl8XTd1Fln6uTCAEGUsETCzBmzQWxLl/DntNrWcXcEbg1MN3N2U4d2/uHP48QhiDq0qDl1nqJ/uJsDAoVZN54otUsQnYaGBnVQo42oyy6Z1mHqgHLjoMVJBc5SCA6uetauXauunNL1BX3ALZPgBM44MeE7hC5dMq1Di7Muz4kz29QJDKd8bW2tElcc4zjBYCacydyEq0T8D7HEFQaO/Uyi5qYOtMXEYW56cwGY4vjGiQimDUxCcMsprpadJIrzBJRMnXUowtTJhZmK1fEJgcelcrqEvJhFWROce5kuDU3rcOMQNHWejm2/Fnfr9nTrYATxwd02ThMYOanD1AHlxkGLqwDMHiGImBWjH1bH80R9gkkDV0zIjz+2Ezu1SR0QSFNntjarTdTeibbhJI7ZPq400F/MQNEXPTmZaB+0CSKOqxjcpmpn+nJTh6nDHHWY3lwAmzYmE5js4IoXd02hXieJ4uyEEvOQAAmQgEcEnPqvKM4eAWcxJEACJGAlgJm2qf/Kuj/F2UqD6yRAAiTgIQFT/5W1ak9DhloL5joJkAAJJJ2AG/+VZsaZsybBJQmQAAmEiADFOUSDwaaQAAmQgCZAcdYkuCQBEiCBEBGgOIdoMNgUEiABEtAEKM6aBJckQAIkECIC/w/OKEopcP5XZwAAAABJRU5ErkJggg==;" vertex="1" parent="M1Kj_39iP2AGimqlnrWc-1">
          <mxGeometry x="550" y="1472" width="359" height="188" as="geometry" />
        </mxCell>
        <mxCell id="tBodU4Q1IQQOX9P65XnI-161" value="总体期望0.5&amp;nbsp;&lt;br&gt;总体方差 0.5*(1-0.5) = 0.25" style="rounded=0;whiteSpace=wrap;html=1;align=left;" vertex="1" parent="M1Kj_39iP2AGimqlnrWc-1">
          <mxGeometry x="775" y="1770" width="190" height="60" as="geometry" />
        </mxCell>
        <mxCell id="tBodU4Q1IQQOX9P65XnI-162" value="利用中心极限定理，把二项分布的总体分布化为样本分布&lt;br&gt;&lt;br&gt;套用正态分布 利用正态分布求P值" style="rounded=1;whiteSpace=wrap;html=1;align=left;" vertex="1" parent="M1Kj_39iP2AGimqlnrWc-1">
          <mxGeometry x="573.5" y="1790" width="183" height="60" as="geometry" />
        </mxCell>
        <mxCell id="tBodU4Q1IQQOX9P65XnI-164" value="" style="shape=image;verticalLabelPosition=bottom;labelBackgroundColor=#ffffff;verticalAlign=top;aspect=fixed;imageAspect=0;image=data:image/png,iVBORw0KGgoAAAANSUhEUgAAAo0AAACMCAYAAAAZbpPBAAAgAElEQVR4Ae29CdQUxdX/3/H/ct7fOeoJGmMSEhSCbGrEaMS4IrhvAUSCoiCioKKIIq6gooIbwQ2JGwqKCmrUiIq74BZATTSir/uucSExi1v2+p9PDd9+apqup59tZnqauufMdHdVd1fVvberv31v1a3IJOh3v/tdIqU4h0VuW3GkVJ8tCbqVH7kFWeRHFqEm1eNAkfW+yG2rnoa0riTJIEreRhnJ9CIcF7ltRZBPPbch6FZ+pBdkkR9ZhJpUjwNF1vsit616GtK6kiSDiJ3wCzwIOhB0IOhA0IGgA0EHgg4EHWhMB4KlsXXgO1wdOGA5wEMWKB8cCLLIhxxCLarLgSLrfZHbVl0taXlpkkEAjS3nYbgycCDmgB6oOCHs1IwDQRY1Y30ouIYcKLLeF7ltNVSZZhUtGQTQ2Cy2hZMDB9I5oAcqPTekVpMDSVn861//arT4tPz//Oc/9prXX3/dvPzyy97rP/zwQ/Pmm2+at99+O/5xTHpr6L777jO33npr6i1mz55tXnjhhdQ8Ev/0pz/Za//yl7/E5/z73/82zz77bHz8hz/8wdsu2vv+++/H5/73v/81n3/+uT2GL3/+85/NSy+9ZBYsWGDOOecc849//CM+N+zUjgNJva9dTdq+5CK3re25VZk7SgbR3XffHXcIFKWMyhRb27sWuW215WwoPehWfnQgKYsTTjjB9OnTxwwaNMgMGDDAbLvttma//fazxzvuuKMh36WPPvrIbLPNNgYwedFFF5kpU6a42WX7RxxxhBk5cqQ55ZRT4h/HpIsAXGeccYY599xz498FF1wQ75P+y1/+UqfbLfXiHrvuumtcz6eeeso8+uijZtSoUeb3v/992fkccE/qPXDgQDNhwgQzb948c8ABB5idd97ZbLbZZoZ7AmihuXPnmiOPPNLuCyDbA2PMiSeeaM4++2wdmq+//tpsvfXWZquttrJ8bN++vW3zaaedZi677DLz1ltvxecCTh955JEygEomfN9nn31W+f30pz8122+/vfnggw/ie4SdlnEgqfctu0s+rypy2/LJ8VVrJRlEF154oe1EedghZax6Sf2nFLlt9S+d+m5B0K38yC8pi0mTJhkAF7RixQqz4YYbGgEl0slP0ujRo80ll1xizjvvPAu+kvk6HjdunPn5z39uxowZE/84Jl30z3/+0zz55JMWSD3xxBOme/fuZtq0aWbIkCE2DWAKoBVhxdt4440tsJs1a5bBKnjMMceYO++80/Tv39+CyVdffVWnx1vA58KFC+Pj5557zgwfPrzMKKBMrJjTp0+3fOjdu7d55513lGVB9L333muPP/vsM3PPPfeYhx56KP4BQN1jrKIAR94h3Gvy5Mlm7NixZv/994/vmbbzwAMPmB/+8IfmmWeeScsOac3kQFLvm3l5rk8vcttyzXincpKBdU+/8sor9oEnXxnOuYXZLXLbCiOkOm1I0K38CC4pi9NPP926a59++mkDwNlhhx3Mb3/7W7Ns2TJzxx13GPJFuGZx/wLksNztvvvuFgwCIM8//3xzxRVX6FS7BRw9/vjjBnClH8fHHnts2Xn333+/BaxLliyxVk5cx1juIAAqZYr23ntv069fP3PjjTeaa665xnTp0sWCRoDcoYce6gWNGACwNGJF3XLLLa0LmfqlkUAjedwXIPi3v/3NngrolfsbwErbsYQCAim/a9eulhfUk3Ty4fnzzz9v91Xe5ptvbnmiY3dLXTfddNO4HDcv7LeMA0m9b9ld8nlVkduWT46vWivJILryyivjzoLTlLHqJfWfUuS21b906rsFQbfyI7+kLACFv/jFL6zLFaCDNWzq1KnmrLPOMjNmzCgDjbh9ScN9e9ttt5n111/f/OpXvzIPP/ywBXZY+lzivlgJcQPrxzGWRJeuu+466yYGYFEutNNOO1krIta2L774wqYBwqgfbmlAI5bGvn37Nhk0YhWEdtttNwsaN9poI2sJBQgC+mgb5IJGjqnTwQcfbPMAnIxbFN10003W3Y2LmvtTHyyTnTp1sm2CB0nCpd2xY0fr4k/L+9GPfmS+/PLLZFY4bgUHknrfilvl7tIity13zPZUSDKIrr32WvtVqvOUoeMibYvctiLJqR7bEnQrP1JLygLQKPc0Yxt79eplrWvUmHTX0ui24rHHHjPbbbddnMSxLHeMF8S9PHToUO8PoMY1ovHjx5s111zTWjlJw3KJ5e7www/XKRZEMvmmJaAR4IdFEwI04p4+/vjjDe5xAOrf//73GKi5oBGAx2QXJu/gGoc/LjEpBrc6FkzaIwshFttPPvnEWmRlpeQ6ytt3333N1Vdf7d4m3qe8XXbZJT4OO23DgaTet81d83GXIrctHxzOroVkYN3TfBlrYLUysm9Rf2cUuW31J41i1TjoVn7kmZSFQCMWszPPPNO6ibF0AbAaA40AH64dPHiwHfuH5VGTYgA+X331lR2PB8gDkAFI2eqH9dCdWYz7Nooi6yKHW7iAOcZl7RITcACNN9xwg8ETxASWo446ys5Wbsw9TR7gEHC35557WoB38cUX21vj7nZJoBGwB8AUMTkGMOsSFkostIDELbbYwtaZyURYSCkP4Cyi7pyPRdVHATT6ONO69KTet+5u+bq6yG3LF6f9tZEMLGj82c9+ZsNFcLoy/JfWb06R21a/UilGzYNu5UeOSVkA/LDmAZw0AYZZxEw2YUJHmqWRiSsCWoAixjLOnDnTjjF0WwqQwvUMYYEDsPHjWixuIsoFYDGZBbDFWEFc2GussYa56667dJrdCjT+5je/sW5kPupxW2PtO+yww7xjGhl/6bp8L7/8cns9N1VbVBCgUa51vE0Qad/4xjfs7Gmdpy31ZzY3M6tpM/zAXf3pp5/qFLsdNmxYo4CRkwJoLGNZmx0k9b7NbpyDGxW5bTlgb5OqIBlEjHGhMxMpQ8dF2ha5bUWSUz22JehWfqSWlAWgEIsdAJHJL/oxYQUXahI0ci7j9RSfEWshQG7ixInW2qeWvvjii3aSCq5W3LRJYKbzuP6QQw6xlkPSbr/9dus2Bgwy65gxhK4bW6CRcwlpQ7iebt26Gc2YBrxpX2UwxpCwNiIAK5NbNCs6WTfc64DXo48+2l4CYOzQoYOd1MPEG8Z0iuAX4XK4BmJMIzR//nzzgx/8wLYFayuzoXv06GFBMECYHzEjk4QFNrink1xp/XFS71t/x/zcochtyw+XG6+JZBDhsnFdKMpo/PL6zC1y2+pTIsWpddCt/MgyKQtiKOJ2xVWb/AHAiGkoGjFihAVTimdIOuASdysTO95991176htvvGEtlbiYAY9Y39Zbbz07axprHLOnDzroIDuJZs6cOXEIHs4HzJ166ql2HCE3Y8wgQI2Z0hCAj9iKV111lZ1hzTF1oJ4ATix8BBN3ibGWgF0RVkTc1SLq5xIuaGZaM4aRsjp37hwPUSIEztprr20B7S233GLzcK2L3HGeWEyJS3nzzTfbsZqAXPeXDHLOjHTCADHeM1DbciCp921799rerchtqy1nm166ZBBWhGk6z8KZgQNeDuiB8p4QMqrGgaQsmBDy8ccfp5bPmD4X2GB5BAi5hKUN4MkMahFhygCDLhHEe+nSpWbRokVm8eLFBvcyYXhcAgC6VkXlYRHUubiYKQ/gR1xJEXEQCUQud7jS2f71r38ti8fIWE0BXPLdYN0cYwEkoDaBzBnn6bq1yVfIHfa1Ggz7EKvAKK7vyqQmb1hFBr657WryxeHERjmQ1PtGT66zzCK3rV5EIRkE0FgvEgv1zDUH9EDlupKrSeWCLFYTQYdmlnGgyHpf5LaVCTHHB5JBxE74BR4EHQg6EHQg6EDQgaADQQeCDjSmA8HSmGNkH6pWPxzgIQuUDw4EWeRDDqEW1eVAkfW+yG2rrpa0vDTJIIDGlvMwXBk4EHNAD1ScEHZqxoEgi5qxPhRcQw4UWe+L3LYaqkyzipYMAmhsFtvCyYED6RzQA5WeG1KryYEgi2pyO5SVFw4UWe+L3La86E9WPSSD6O677y6bHaeMrBvUY36R21aP8ihSnYNu5UeaQRb5kUWoSfU4UGS9L3LbqqchrStJMoguvPBCw5JQCqGgjNbdPp9XF7lt+eT46lOroFv5kXWQRX5kEWpSPQ4UWe+L3LbqaUjrSpIMrHuamGMBNLaOoeHq1ZsDeqBWby7ko/VBFvmQQ6hFdTlQZL0vctuqqyUtL00yiFhFgAC3ImXouEjbIretSHKqx7YE3cqP1IIs8iOLUJPqcaDIel/ktlVPQ1pXkmQQsVg9a5+KlKHjIm2L3LYiyake2xJ0Kz9SC7LIjyxCTarHgSLrfZHbVj0NaV1JkoF1Tw8aNChed1QZrbt9Pq8uctvyyfHVp1ZBt/Ij6yCL/Mgi1KR6HCiy3he5bdXTkNaVJBlY0Pizn/3MvP322/aOymjd7fN5dZHblk+Orz61CrqVH1kHWeRHFqEm1eNAkfW+yG2rnoa0riTJIJoxY4bZaaed4rspI04o0E6R21YgMdVlU4Ju5UdsQRb5kUWoSfU4UGS9L3LbqqchrStJMohuuukm849//CO+mzLihALtFLltBRJTXTYl6FZ+xBZkkR9ZhJpUjwNF1vsit616GtK6kiSDsCJM6/gYrg4csBzQAxXYUXsOBFnUXgahBtXnQJH1vshtq76mtKxEySCAxpbxL1wVOFDGAT1QZYnhoCYcCLKoCdtDoTXmQJH1vshtq7HaNLl4ySBiJ/wCD4IOBB0IOhB0IOhA0IGgA0EHGtOBYGlsMs4OJwYO+DnAQxYoHxwIssiHHEItqsuBIut9kdtWXS1peWmSQQCNLedhuDJwIOaAHqg4IezUjANBFjVjfSi4hhwost4XuW01VJlmFS0Z5AI0/va3vzVXXHFFkxvw5ZdfmmeeeabJ5+tENVrHf/rTn8w999xjHnzwwVV+CxcujGNXcv6vf/1r89///leX2u3LL79sDjrooLI0HYwZMyZez5u0f/3rX+bPf/6zoe6ff/552Yx1XUO8TPjAuVn09NNPm7PPPrusjMauOf/88+29k21o7JqQ13QOJHXLvbKt9bvSuuXWvR73G5NFsj133HGHefHFF+Pkiy66yLzwwgvxcVN3brnllvi5zXp+0/L/85//2KJef/11Q7/iow8//NC8+eabtm8iti4/jklvDd13333m1ltvTb3F7NmzG+UJ/SjX/uUvf4mv//e//22effbZ+PgPf/iDt1209/3334/PberOV199ZcaNG9fU0+15S5cuNX//+9+bdY178pNPPmneeecdNyk3+83R+9xUuokVKXLbmsiCmp8mGUR33323BTGqkTJ0fPDBB5s+ffqYvn372t8mm2xitt12W7tPfMddd93Vnnr77bebvfbaywwcODD+bbbZZvE+6fvss4+ZNWuWbh1vH3jgATN+/Pj4OLlDx06nLKKT3GWXXXTY5G2ybXRqtOuXv/yl/XXt2jXeHzp0qLn++uvtvekAhw0bZnbbbTfz6aefxuW99NJLBv6kETyjM4QHW2+9tb3vz3/+c/O9733PDBkyxCxZssSsWLHCnHrqqWby5Mn2d+yxx5r/+Z//MSeccEKcdsEFF8S3X7ZsmdFv0aJFZquttjIjRoyI05544gnz17/+1Z7/wQcf2Loddthhht+BBx5ooigyhxxyiD0+9NBDzW233RbfO+y0jgNJ3XLv1tb6XQndcutb7/uuLPhIevjhh81DDz1k3nrrrbKmkbfBBhsYwo7RF/CjX+GDkX2etS+++KLsmrQDzuUZE/H8IiNW2howYIDtL/fbbz97vOOOO9rnW+ey/eijj8w222xjQSegdcqUKW522f4RRxxhRo4caU455ZT4xzHpIj5KzzjjDHPuuefGP/oR95g+zyXqxT3oz6k3x0899ZR59NFHzahRo+IVw9xruCf1pm+fMGGCmTdvnjnggAPMzjvvbPs97kFfDc2dO9cceeSRdl8AWfc68cQT7Qewjpu6JVTcFlts4T391VdfNaeffnpZfs+ePZsMGuHjXXfdVQYSX3vtNbP//vuX3TMvB67e56VObVWPIretrXhU6ftIBtGFF15oOzWAEaQMXwUOP/zw1A4keT73AZA1hejQefixoOinDobrL730UjN//vz4VnyVDh8+PD5240zGiSk7ybY9//zzpkuXLraTpKNcd9114/0f//jH5uabby67Cx0tAFYEKHRfFqTDRzpFACb5Rx11lMHKBzjnZbTnnnvqctt5zZw5056nc+l0AdZYP0466SRr4dQFgEQ6an7HH3+8GTx4sN0/5phj7JYOXG3EAkFn/vHHH9uO86yzzrL7AFQ6aSwTWAgCtQ0HxPe0u7WVfldSt9LqXa9prizoG/hQmz59uv3w22677ezHGm177LHH7MIGCxYsMFOnTrW/DTfcMN7nmQHQZRHPNM+ZaNKkSRZwccyHIfcUUAKIkZ+k0aNHm0suucScd955Fnwl83WMZY2PT/WTbDl2LW7//Oc/DRYxwCwfkt27dzfTpk2zH6ukAUzp70R8/G688cYW2NH3YBWkT7nzzjtN//79LZgEgCUJEEqfJnruuedsvwzYShKWSGQAH3r37l0GxADZ9957b/KSzGMstt/5znfKeAHAFVD9/e9/HwNV3cx9JzVmcXzjjTcs8P3FL35hjSGXX365bmH7ZZ7pvJGr93mrW2vrU+S2tZY31bpeMrDu6VdeeSV2cyrDrQgAg44Eagw04sLFmsjXNRZJrGz77ruvPd57771tJ+TeV/s8gHRSgEF+7733nsFNI2LVGhesCTTi7sWC5gIxXZO2TbaNDpSXiIDYD3/4w3gfy4Asje69vv76a/si4WXwm9/8xrqn2ef3xz/+0Vo1sMR+85vftG3q3Lmz5cXVV19tz91jjz3c29kv88suu8y6yeHZNddcY370ox/ZDpYO7m9/+1t8fr9+/axbHgDKlzvn8YX/05/+1L5o+KqWq+3dd981P/nJTwzlbbrpptYqCYjs1auXBehYFAJojFnb6p2kbrk3bCv9xmJWKd1y61vv+64sAI30Q6KLL77YfsQBwHm+sNJBeBL4CAPgseW5+b//+z9d5t3ieeBDzyWeQ0ASQ0hw++6www6GIQpYLunHXOsXH4u4fwFy9EO77767BUEASA0pce89duxY8/jjj5vPPvss/nGMl8Kl+++/3/ZJeDToy3Ad89EJAVApU0TfTN9y44032v6HD2n6Y4AcHgkskGmgEYMDH6rcf8sttzSAT+qXRgKN5HFfZKK+DdDbkiEBgEbK1XuDLWCPPhpavnz5KnxB5sieuiNr+mwR8hLRvz7yyCP2kHNciyYyA6znjVy9z1vdWlufIrettbyp1vWSQXTllVfGDy+FK8OtCNYwrH0QoJEHDnfxDTfcYDsunTtnzhzDDzDFVzqEG4V7Kk/nulteqqeddpqbVLYPaMTFy9cxYAeQC8ADDNG5yiVbdlHKQbJtdKR0DHRadD6Mb8TdzJcwFgGNEzrzzDMt8KXTBZTxgsEtDDjGpc0+P8AfhEUSsMi5sjTyNQ1PcOljlVBnxdfuxIkTbXnwFSBI2Vg/tB64mgJfsRpghWU4wLXXXmtdJVhDcO9jFcDKAHEtLnaIFyV1o1OnLbjjArUtB5K65d69LfW7Urrl1rfe911ZJEEjY4Z5VgBuPKMCjQA7rHP60dcAOrIIwMbYYpe4NxYq0gFk9CdYMnn+6ctc0Ig1jDRACsNF1l9/ffOrX/3KfnwC7HimXeK+1A2gqh/HWBJduu6666ybmP5RfTF9Dx//9J1yu6NP1I9+FdCIpRFg1VTQSJ8J4Vmhf9loo41sf0qfihuXtkEuaOSYOmloD30vBgAR12FscH9pY9gBjXxE+Qj50Vb4w9ApZAtYpR/Hi4NxAgL48y5g2BBA1rUak0+/637sUy7gPm/k6n3e6tba+hS5ba3lTbWulwwigAcPrUgZOmZLRyJXLaAR98pVV11lMNm71ioBQx4yrGZ0aj169DC4LZSn+wJq+EIF2NBJ4R5hH8sh4/xcouORpZGvRL4o6eQacy+412s/rW10BgA1rAt8NQNeseikUbKD4osz6Z7mOix6WBr5OuXFtP3221vwTBmdOnWyX+7wA8IiyDgbrJp03oBY5AEoBxTTVhFjhBjIjQUCEE0nxzgtxkDx48Uh6wjAGiAL0R6AKXIDxGN9CNS2HEjqVqX0u1K61bbcqO3dXFkAGrEo4QVhaAaggY85AAQT4AQa8TjQz+jHs9YU0Ejf6I63puWAQj78IMY2Yt2X+5V0FzS6nMJdTj1EHMtyx3hBnnf6SN8PoMY1IsDxmmuuaa2cpNFvYDmkDxcBIvHqtAQ0AvywaEKARvp5hs3w4QpApX9m4h/kgkYsgYwn5aMcoAl/mkNMPoQHvF++9a1vxfzgfaJhANzPtTRSHnn0m+64dM7DwgiAXWutteyW95eIseHoDG1ziXGbeSNX7/NWt9bWp8htay1vqnW9ZGDd03yJ8cULKcOtSBI06lz3HPYFDHno6LAAPEcffXQqaGRAMQ8+X3buD6sZHZhLLmgknfu6YxrdcxvbT7aN2Xe4j5gcQocMIKOjAUTifuCF4xKg0qU00EinDZCkE+UFgaWRzo3OkzE9TEbRywgATIeEu5kxm3SGAE0sg1gxsVAxRgfiejppADYdFp0/VkeAKIAxWVc6QnjP+EXAKNcAOLCoIG860UBtx4GkblVCvyulW23HhXzcyZUFz8X3v/99++HLpAZZ+KkpH1wCjTwjstyxxWKm57SxVmEVTEZ+EGjEoo9ln6Er9CkArMZAI5Y1ruWZBuBgedSkGIAW/RUWN0AegAxAylY/rIduP8CYbfob+jgIFzDHyY9GLGf0uXiO8DwBmOm38HY05p4mD3AIWGOIEPpJ3wXh7nZJoJG+nr5RhNcEMOsSH87JiBbwUMRwHPedoX0AoUsuaFQ6/Wca8TENQHcNFryLGOLDB0aSku1L5tfi2NX7WpRfyTKL3LZK8q0t7y0ZWNBIqBe5QpXhFtYS0AjAwiWLKyDN0kjHB1hLEh1f0vTvgsZPPvlkFdCY/HJM3lPHybbRgdPpAdYAWAyYZyA6Y4tOPvnkMosAHSuAi0He+hJNA410vIxfomNkfA3WPmZkYpnli5qOXqEpuA9jmXAL8cPa2L59+3hfafrKxdrA/XQ9VlLKgOj03MlC3AuQClEOnSUDxJEL1s1AbcuBpG5VQr8rqVtty43a3s2VBSCKD7M0ckEjzyXPkn4MQWkKaMRShivXJYAf1jyAhSxfPHt4U/gQTLM0AkwERPiYBogyLIgxzi7RB+F6hvBEANj4ca2GppBHufRtTGbBRYtFEU/EGmusYWcEu/cUaKSfANzxUYnbmkk0fAD7xjTST8uSyP3wPHE9pLaoHNLlWse7BZH2jW98w37Y6jy2lM1wGven9xP5rjXWvS6Z7oJG3N/wxwWNDGsCcEPIBSLSAQQQ5d2VBhgBsAD7vJGr93mrW2vrU+S2tZY31bpeMogAZHQuImXomG1zQCNABVcybgrGjGCxY4Yd6XLJcs/mvFQZT0nnyWBvvoKxNNKpi0hnokkWpbUNQEbnCwCk06EjwSoAmKMzFQEWu3XrZjbffPPYVZ4GGnU+oJGOqF27drbuuOkBolg0qT+dOWXzNc+4IP04T/tssY7I5cy9+coWYZmQZcF1O5NGPTVmh/P5iiacD2OcArU9B5K6VUn9rpRutT1XanNHVxZNBY18TDGEQz8sTE0BjdwfIOda7gGFWOx4/hUiiy3jH+mnkqCRcxm2Qn8CcU/6HupC/yDCrc4kFT5C+XhOAjOdx/V8kPORATH+mf4YMAhQZviL68YWaORcgBrheujrNPklDTQSqxBviAhABjhXDMNk3fjgBbzycQ4BGDt06GB5QpsY09lUSoJDXZdMx7KKxZQ2/eAHP7Af2y5o5D0FQE8jLI4AQ/pffq4cuI6Z43kjV+/zVrfW1qfIbWstb6p1vWQQ4UKhkxEpg2M6Mx5+zbjFssWDzxg99vnh9lQ4Ar4g+fpkkHHyh/sD8CnCfceDTEfm/ph9nYzByDhHBojj+sBFA4BjLAuDyxmDyL77Jaoyklu3bbiGAbS4VQBvjHnCJQVh7cRKirtDwJFz1ltvPRu3TPcFzMm9pTRt6ZzgK25irIMMaOdeuIvZ5/5J4sXjgsJkPsd0+FgRsVwCdnFZM1aRuuJehwDYvDToNLEuIBM6Tzo75AAoxhKir+q0ckJa8zjg6hZXVlK/K6VbzWtxfs92ZYHFTeOxkzXG+sdzQp/z3e9+t6wfAjTRDyUtfcl7cIx71Z1cxgccblf6q+QPAEbEAxF9A32qwsSQDrjk465jx46xVwALKJZKnmnAI0CV/ogPZvoUtnhMcJfzca4QPJwPmAMECdjy0QpQU9sAfPTj9ClY1zimDtQTwEnfkuxf+Qjl/SDCioi7WkT9XIJHAHMss5TFWG8Nc8Llvvbaa68SR9O93t2HX+47Q/uETHMJgP6///u/ljeK/kH/CoDGo8SwBdqXRgBF19LJPkQfjpFF3p60a2uV5up9repQqXKL3LZK8ayt7ysZtOmKMHRmdAppxBcuPxEuUoFNpbEFECbHCOFGxl3gEiCOr1cGobsdrntOcl+NVjqdFh0pHQHAC3ewS+4kH9KTx0w2SVoNdD2dqAiwJjcIoJexRoDWJAEyAYGNEdYD7seYH1wn8IF6AKDVCXM9Y6Do+KmHOzORPMbq8CKVa7ux8kJe0ziQ1K1K6neldKtpLc3/WUlZ+GrMJAdcoXIhp52X9pwmz+PZdidh8EwmZ+DqGvoxRWUgDWAjQKNzsEoCPN0JeTzjrqeGc+kr+VAk0P/ixYvtMBRC8bgEAHStisrDIqhzcTFTHnrljh2k7Xzcyh2ua9nikaF8EX20O+wlOaOcvhN+0/cwztN1a3MPwG1TCYNEGlpjGk0AACAASURBVOEdcmWJtT/Zx+F9Yawo/R98bi4xBCgph+beo1LnN1XvK1V+Je9b5LZVkm9teW/JoE1BY1tWsBL3UqMrce9wz9WbA0G38iP/IIv8yCLUpHocKLLeF7lt1dOQ1pUkGUTshF/gQdCBoANBB4IOBB0IOhB0IOhAYzoQLI2tA9/h6sABywEeskD54ECQRT7kEGpRXQ4UWe+L3LbqaknLS5MMAmhsOQ/DlYEDMQf0QMUJYadmHAiyqBnrQ8E15ECR9b7IbauhyjSraMkggMZmsS2cHDiQzgE9UOm5IbWaHAiyqCa3Q1l54UCR9b7IbcuL/mTVQzKIiCXmzq5TRtYNqpHPDDuW36KOzAJMEisHkJdsgy89T21LtqVIx1lyY7Y6MvPJg/hwyRmlzK5MzgJn1jyhMdxZnOIjAd/TZvK79yYIu/SHLbNVFZZE92F2KjPRRdSLsCZECnDJ1xb3nFrsZ8mCOhGCxY1sQJrvGWL2L+Gp3BignJ/GF3ji8lfrHfvujRyRp2L9cV9Cm7j3SM6yRZeSAZjzKgvaE6g6HMjSe2a8s1KOG3FCNUs+D431E74+CF3nOpfS6tSYfjPTnL7m2WefdW9jn1eeQWawu1RkvS9y21wZ5nlfMogIU+CGuFFGrSvPy4ClvYijxoo1LGLvEuEgiDVG/d02+NK5Ni9tc9tRtP0sudFZEziZ+HWEOSLYuUsAQ+LPKaYngO24446zcToJLSJC5ugEW+JVJkEPMfZYT9al5L0Ju0GQXn7nnHOOLdcN2cEKGSy7prAdAEV0kueF+KV03KI86laWLKg7sfqIe0cYFJHvGeIFS8w+wsSwzjErlkA+vhCrj6D+ekZZws93b3hMPEHCvuy1115xOC4AJsHMdQ8C3rtE/D9iLLqUR1m49Qv7leVAlt4D6Fj84MILL7TxaomdKUp7Hnz9hK8P4iOGmJQsRCHy1cmn3zwPrJnOghD0bwpPR2xMwjtRz2233daGXFMZRdb7IrdN8sv7VjLIrXuar0AC1op4kRB3S0SMMdKS5EvnPDU6eU04bjsOZMmNl77bSdN5u4FyWWsbQCLQSExL7km8OBc0sra5Yl/SgRKsV0S8TcBoEjQm763z2RIw3Y2RScxMlpYDHAo0EryY9YMh6oxFQpRH3cqSBS8yXnxY91zQ6HuGCPZMbFSIc1gnHfLxhRdnknz3ZkUQXqAQ4FL3JiYpL/c0oj+gD9C5OiePslDdwrbyHMjSe5ZHBAiKunfvbj9mfM+DzmPr9hO+PojYn8SkpP8Q+erk02/AInkQfRELMkB8cGOBhAhMTh1ERdb7IrdN8sv7VjKIeAm61hVl1LoBrGSiFxR1IVgsS++JWKGAlVUACG4bfOlcl5e2qQ1F3GbJDTfmj3/8Y+uCxH2zySabxGwAFLJSDZ2uQKMyk6BR6eguoEUWKIIT84UP2HRBY2P3lhXAdfdMnjzZLm0GgBVo5Iuf5cTQRVaxcCmPupUlC9X/7rvvLgONvmeIlxTLrhGomdVDtBqSjy+svsHwEl7Qck377q26sMXCy2pT0OzZs20AffTBdSUyjIDVnFh5h1WSXMqjLNz6hf3KcqCpek8tGMKSXL0m+Tyotmn9BHnJPog0hlq4oNFXJ59+77333jE45H58vOIpYSUeVgvi44t1wbVUJOcUWe+L3DZkVw8kGUQsw+ea0ZVR60aw7BUvHBHuTHdlAl4WuMr48nPb4EvnPnlpm9pUxG2W3Ohghw8fbpdIa9++fex2wQ3N8pR0hk0FjXS4LB3G8AXcnhBrkuMeYolHgcase7P8JSvqiHiRsLQc5IJGysJVzko7rPvtWivyqFtZslB7ky9J3zOEbLB4sD76OuusEy9b6eML7jNelizB1rNnT8M4U9+9VRcsNLipWVUFYnk+5MsH5AEHHGBXLiEdECmZBdAo7oUtHGiq3vPxuuaaa9rVdFzOJZ8H5SX7CdLT+iDSk6DRVyeffmOlZwykCAMJQ3DoZ3jeeJ6wkGKVF+WxD1LdWrstcttay5tqXS8ZWPc0L0hNGlBGtSriK4exSiwRKGLMGYOCfeS2wT3HTc9L29z6FW0/S264aQB2WIqY3ETHzZJruGMAi1ixABp8Tcv9DI98lkYsWKy9C4Dg3rKEYa0aPHiwtXBl3Zu1ZNX5Ui8+orAkUhc6awaiA3ZZL1cdOeP4BgwYEIsvj7qVJQtV3veSVL6eIfgoCzDgjqEFUGN80T0Yq6gxkEpjq3uzj9sN91tyYovOR194WWKt5jz0BhkBMt1JUnmUhdoQtpXnQFP1nprwccmYXpZ3FfmeB7ef0Lls3T5I6UnQ2JQ6Sb/pg7C0f/LJJ7qdXa+bPooPMSbzQbfeeqsZM2ZMfE6R9b7IbYsFmPMdycCCRsYFaSKBMmpdf8ZzsB6qaODAgTGwJY364oIUqQ2+dM7LS9tU5yJus+TGgG7G0YmwHgESWMMbNzM/3JrbbbedefTRR3VaGWhkjI+75vfTTz9t0A++2keMGGHvwTEvAyatNHZvOmjcqyJeALoHdenUqZMZNGiQBSq77rprrEO41pmkJcqjbmXJQnVPviR9zxATj9x2wl9cdml84aXJrGcR4xKxyvjuzazsrbbaahXACPjXOs68VHv16mVnpboywvIybtw4FVVWxzgx7Kw2HMjSeyawoVci3h0vv/yyDk3yeSAj2U/4+iDdJAkafXVK02/uwXh+jZ/Gi8IwHurQrVu32KvCeuRM+BO5z6bSirItctvqRUaSQYQFYOedd47rrYw4oUY7WJmwQjGOivFTu+++u60JDzxg4sMPP7QWBh5wtw2+dC7OS9tqxNKqFJslN76ecXEy+YLxOFirsOK55LqnARkPPvigBW4AD4WHAmwyeQPrImPbklZo1z3tuzfpTKbA1ewj1z3NmFrGP/ECYEavO3wij7qVJQsm88BbxmjiymcfS6rvGaLdjLXi+WPSEMMMoDS+IFPA/5w5c+y4Y4A51kDfvXHfYRlGL/gxdhTieeel/sADD9gJVBMnTrTp7l9wT7vcCPtZek/fwOQp9Iy+Bj2FfM8DeWn9hK8P4mMJvaWf45nCKt9YndL0m/G7uKgJA3bMMcfY6A7UAzCJZ2Xx4sX2eXGHbOWxD7KMbYO/IretDdhTlVtIBhEPDtYCkTJ0XMstLxgAIQ82lgho2bJlZvny5Xafr0Pyk23wpeepbbXka6XLzpIb7kUsjkxiciefqF7IV8MlcBMzJk4/xhVBgBvkjttH+qDr2TL+jg47Se69ySPeoIBo8lyOAaVuHenECdHD2DyX8qpbjckCOYiv2srN63uG4B88B8S5/UYaX/hAYGY7IXrcGfJp90aWqoO24i/ygedYlNPIHcZCfl5lkVb3kFYZDjSm95SIDhIOav78+fEkrcaeh7R+wtcH0bdJh9kqpmtanaiLT7/RY4ZlufqN1ZGPNqJFJPU8eVwZztbmrkVuW2042vxSJYPchtxpfpOyr1Cjs88MZwQONI8DQbeax69Knh1kUUnuhnvnlQNF1vsity2v+pSsl2QQQGOSM+E4cKAFHNAD1YJLwyVtzIEgizZmaLhdXXCgyHpf5LbVhXI5HpwIYYRf4EHQgaADQQeCDgQdCDoQdCDoQGM6ECyN9QLzQz1zzQEeskD54ECQRT7kEGpRXQ4UWe+L3LbqaknLS5MMAmhsOQ/DlYEDMQf0QMUJYadmHAiyqBnrQ8E15ECR9b7IbauhyjSraMkggMZmsS2cHDiQzgE9UOm5IbWaHAiyqCa3Q1l54UCR9b7IbcuL/mTVQzKIiCnlhhxRRtYNqpFPSANi4VFHAvsm6ZFHHrF5yTYQI46l3ojhSJBVUZ7apjqtTtsseRLCBVkm5eRLF++WLl1qWCpQxMoixPd0V1QgMC7hmtAZLTnI+b46sdII8QcJk+GSLz1ZZ/eaPO772u3W9f3334+D/jeWTjgd5KbfCy+8EJ9OTDxWrmDNaZcIqURsTcKciJAR8nniiSeUZLcEXGdtcdIV5ofg6iqPLSF/uB6qN1mUNTYcVJQDWXpP34AOsgqUS8RZJPyWu/45+fQ16HHyfHQxqce+Psin976+RvVK9ntF1vsit03yzPtWMohYnYNVM0TK0HGttrwcevfubVfdYO1ZVqNwiYe7S5cudnWRZBtGjRplF3YnGDTLLgkk5KVtbjtWl/0sedIpszQca4xPmjTJDBkyxLLGly6+saJCFEXmjTfesElXXnmlDQY9efJku9ILwAdiyT+WwSOdlUfoqH11Ih4g65pfeumlNvA9K81AvnTy6km3fO22jVz5R3xFVnwhgLpLaem8ZAl2znPID4AHAdxZYhB5brDBBnGcxblz59qA7MRfZQlAYuAhZ553Vu8hgDjryUO85HmGicd6xBFH2LW/SWfdb2I38iOW3XrrrRcHia8nWdhGhr+qcCBL73lPoIP0EWPHjo3fOXy0sAgB75PDDz/c6iEVps/ZcMMNbb9C8HriM0L0Obyz1lprrbJ2pfVBPr1vrK/hpsl+j7Qi632R21amJDk+kAxy657mq47o9yKi5hOVX0TwZtKS9M4779hI+kpnqaUAGsWN2m2z5AnQABSI6KSxYPnSOY+lvPr06WP69esXg0ZWd5B1mU6cFwBf7O6ygwcddJBZsmSJtRyk6RjAU9YydE6rEfnSqYseKNU/z9ssWfByBfwRcNsFjb50VorhhZokloJcsWKFTeYlyKozEEuh8SKGAIwET6csAUUAvdazvv766+PlRElX0Hd78co/zmGFGlE9yUJ1DtvKcyBL71mWljXvRfRBvGewGPKRIurevbt9p/ARiu5D9EWsAAORxvrQ7kpFvj7Ip/eN9TVp/R7lFlnvi9w2qzR18CcZRKxv6S7jpoxat2HatGlm3rx5cTVY6gx3oQh3V//+/e2qIm4bcBWwJvDMmTMND55WkuG6vLRNbVidtlnyxE3JspGAflyPrLUK+dLJAxBitXKX+uvZs2esz6ycQJ5LrHiCpZGXQVaduI5luiZMmODewu4n0+tJt5rSbhqZtgZvWjprSgPKZ82aVea+Y6k2EYCPl+gf//hHK1tc1qwsA2iEsDq6L+wdd9zR4NpmCTXqywoYvGD1Aaj7ynrkrtpTT7JQO8K28hxoqt5TE4a7dOzYMR4Oodrx0cJSohAWcdzTIj5etaISaS5o1Dls3T7Ip/fu+cm+Jq3f4/wi632R2+bKOs/7kkHE1z0dtEgZOq7VlrVo3bV9cVu662yyjBsuRKwMbht4CDt06GAXe2fJOffBzUvbasXTWpabJU8+XFjLmI66ffv2savHl07nvc8++9gmuaAR9xEfDIxF3G+//azbVO0GgLRr186CENIaqxNWB9yz/NwXgy+9nnSrsXaLV2ybChpx3+OO4yOP9XhPOeUUa3kBnLuEJQYgiAz4oMOKTBruPH6cj8uPJQrXWGMNaw1GtliTn3rqKXvf0aNHu7c0PONTp04tS6snWZRVPBxUlANN1XvGz7MePctfusRH7ZprrmnXfSadtaEZPiHCiPHWW2/psOzdo8RkH+TTe85P62t8/R7nF1nvi9w26Ubet5KBdU/z8pXbRxm1bgBWCHfNTcYtYUX0kdowZ84cc9JJJ8WnDRo0KLZ+5KVtceVWo50seeI6GjZsmB1rSKdNB/3xxx9bF3IyHRDHhw7rUuP2obNmIDoAk694XKUHHnigHas7dOjQMi5zz759+1oQklUnrFqMy9t1113L7pGWXk+6ldVuNbapoFHns0V2WHuxLLqWRvJkSWbcmGjGjBl27CjHTF7DhT1x4kQ7BpUPwxEjRpiFCxfa07mna0kmcaeddrLWS92PbT3Jwq132K8sB5qi91iuGT/vWr3dWvHRw4fkV199ZfbYY4+yyXY777xzmS66Bgv3Hm4fRHqa3ut8t69B/339HucXWe+L3DbJOu9bycCCRsYG6gtJGbVuAONCsFiIBg4cGANb0qgvX2IitQGLBFYPEfuauZmXtqluq9M2S56MP2QcnQiL1ZNPPmktjsl0ZssCJg499FD769Spk+HjAFc24yBFWKFxa9LR40IVASqZ5OKrEy8XwChEp921a1e770sns550y9du20jnr6mgkUH5vAghQGOvXr3sPpZDDQ9h1ungwYOtBRJrMnyFpk+fbmXDscY5kg7AZJIAVkTJn3NIF/ESZQJCkupJFsm6h+PKcaApes8HahIw/vrXv7YTT1Qz3jUvv/yyHXPP0CgI3WRIDTopckGjrw/y6X1aX8Pz4ev3KLPIel/ktklf8r6VDCJmJfKFJFKGjmu15YXBCwJLz1VXXRVPRuABZqwa7kdmXvJic9vAQ8tsS4ABVgwsEaK8tE31WZ22WfIkPA6uSsat3XDDDXa2IpZDX7rLO9c9Ddik08fFyWxsgCRAhntjhb7tttts5066r064TgE43OP4448348aNs8X50smsJ93ytVvPFsD7wQcfNIwjxvLHPm44XzrX8SKFX0xmwlII4d7jep7XXXbZxSxatMimH3fcceawww4z8+fPt3JhnCMTj3huFy9ebE444YT4Hu+++64FhjfeeKOd0ep6EZikhBsxSfUki2Tdw3HlOJCl9+hvjx49bB9EP8SPj0cAH1Zzjhn+xGQ7iA8hXNSEe8LtjDcMYkw2z8xGG21kn4nly5d7+yCf3jfW19hCjCkby01akfW+yG2TPPO+lQwiHgRM8iJl6LiWW4AhgJAHVRYLYu3xEEJ87ZGfbAMPOsCBsVbMNBPlqW2q0+q0zZInQA6LIwDBndjgSxfvcG3rfLaMfb3gggvMm2++qVOsJYx07s/9RGl1Aqxi5SScixvX0ZfOvepNt9LarWcL/lx22WVlP9z+vnTaT6xX+MUsaZcWLFhgwSceABF8xArMMyqLLnmUP2XKFBvXUeey5aXNvQGULjGJxo0xq7x6k4XqHbaV50Bjeg/YS+o950O8a7CK86HjWsTRNcCiO5SKjyj3PrJGYo1P64PS9L6xvkZccvs90oqs90Vum+SZ961kkNuQO5VgoBpdiXuHe67eHAi6lR/5B1nkRxahJtXjQJH1vshtq56GtK4kySCAxtbxMVwdOGA5oAcqsKP2HAiyqL0MQg2qz4Ei632R21Z9TWlZiZJBxE74BR4EHQg6EHQg6EDQgaADQQeCDjSmA8HS2DLQHa4KHCjjAA9ZoHxwIMgiH3IItaguB4qs90VuW3W1pOWlSQYBNLach+HKwIGYA3qg4oSwUzMOBFnUjPWh4BpyoMh6X+S21VBlmlW0ZBBAY7PYFk4OHEjngB6o9NyQWk0OBFlUk9uhrLxwoMh6X+S25UV/suohGUQESmZlDZEydFzLLbHhWEqQOhJrL0mEQyGPn0JvEPRbadoqrEee2pZsS5GOs+RGLE1k98QTT6zSbJbVUqB5ZbL6AmEsCHvhEuEwSHcDeiv/008/LQsGT4w2QlQQW80ldIM1zRVaw81jf+nSpXYdWqVT97R651W3smThyycMF89Psl2sxsPKTKzAIyJOnZ41tupPuNZNV6gSwomwCgYxVj///HPdxoYyYWlB+KswYMjWvQdx7UTUhTiuxPJ0KVlnNy/srx4c8Om12/q0vsanm1yH7rlrS7NohKub3E+ErhPCx6WW9EHJMrkf5dDvKcyYyiiy3he5bZJf3reSQTRq1KiyALnKqHUDeGmw3NghhxxiV3hhaSeXiKTfpUsXu1oEK0ZcccUVNlvx9Yjrxo8ln/Tw5qVtbjuKtp8lNzpO5Hr66aebvffe264bLh5cc801Vl5nnnmmkiw4IZgustx8883jJeWI5UhQemRPEPikbAkmTWBpiA6cawn4ztrUBKCGiCnI+uWsDsO9iOvpEiudRFFk10Mmnc6aFYbWWmst9zS7nyx/lRNqkJAlC18+MiIwOuu9T5o0yQwZMsTWnnWhN9xwQ3PyySfbgNvEvIRYdUfPm9uf7LDDDja2HTLiRxBviHPGjh1r5UFAb55lXvLsE3cV+RAAHOLjYrfddoufc0AlRPBjAopPnjzZ1sV9YedRFrbS4a8qHPDptVt4Wl9Dfppufv3111Yf119//ThAPefShx111FGxbmqFMt5BBP1myT9Rc/sgX5no/X777WeoP8/Lc889pyJW6QPjjALshGe69kKUDCKWYpOVjmopo9ZVxCp07LHHxtXgBcEKEKLPPvvMvjR0nLYluDMvHFFe2qb6FHGbJTcCsZ922mm26VjtOnfubAEDHT3AgnwXNLIiC6srQC+++GK8wg8rg6xYscKmY20aP3683ecPQAnQEWjEcnXzzTfH+d27d7dAhQ5Ylit0a/fdd4/PISh8nz59TL9+/WLQyDJkr776qnGXB9MFedStLFn48gFmAta0D8CNxQ+wCA8g+MMqO0ly+xNenEl655137AtV6a+88oqVBcG+tWwoevHSSy/ZUygPsJ8kPiRkpQS8Ah5FeZSF6ha2leeAT69Vsq+v8ekmYJB7slKRVjXiXryfksHsSWcxig8++MD2HyqzuX2Qr0w+5rCwQ8l+r8h6X+S2SUfyvpUMIvdFSaWVUesGTJs2zcybNy+uBkua4UYU4Rro37+/BQhE3MetkCSslK4rMS9tS9azSMdZcqNDddd25WucFT9EyfWOWSJQX/AAlQ4dOujUeIuVi7VaIYAk9+Qagcb4RGMsGMECliRWapgwYUKcDAiZO3fuKkt1cUK9gMYsWfjyWfkF6y0vUaz0rKkLYRnWC4tjALXrrksCb4Adw0sA7HJN49rmuZw5c6a1FmqlJ5Zhoz5YLflwwPoIsWY4Fp1Zs2aVDS3o2bNn/MyzTCF6IgrPuTixem59ep3kRrKv8emmrkuCRvSYd9S1115btsoU5/NBw0dnGvFB1JQ+iGuTZWKhp//EaMJSnCy5Kiqy3he5bZJf3reSQeQu70WllVHrBpx66qn2haN64CrjxS567bXXrGsRCwWWK9cVwDlYhPbcc0+dbrd5aVtZpQp2kCU33IhbbbWVtd6x1usaa6xhlixZEnMh2ZFjNcR6BViZOnWqadeuXXwuOwAGAI6sTsOGDbNLAAJEk6CR89Zcc82y5egAlwxh4CdARKe+zz772HLcda1VcL2AxixZ+PL5ABs+fLjp2LGjad++vV16kbZjOcSNLOKjzR1/Cu/d/gT3GS9wllQD5DHOlI8GgD8ferxsxUv4zEuW67E4jh492hbDkAGGBPByZl1xWSMZZgDwZCwq7rrgUZBUwtan10nOJPsan27quiSAY036o48+2i6Jia5r6ATn+0BjU/sgX5m8w9Zdd137POEx0ZAPzi/y+63IbZOs876VDHI7exrLkbueJ+t78iXoI17ycmlxDpai5PlqtO8eIb31HGiK3JgEAaCbOHGiGTBggOEDQJTsyHElYakaPHiwueqqq+xYO52LFRkAKrCHC2no0KF2PWPGI3KNLFy6BjAJQGRyjQirFq6eXXfd1eAa5QOEyRxMkgEYMenDtWQL6Oh6tnnUrSxZ+PLhIwAQXjABjRcd6+buscceZZNOGAeqlxZW4C222MJlSdk+YxUBeXPmzDEMLRANGjTIWhBHjBgRj1elXNeSqHOpC+nkY+HEbX3ggQfa8czIXZRHWahuYVt5Dvj0Ollysq/x6aauS4JGpbOlj6C/EflAI/lZfZDuwTZZJuAUgwh06623mjFjxsSnF1nvi9y2WIA535EMcgsaGcskqwK8HDhwYBkoxMIhtyX5jHl0rR777ruvYUyjS2q0mxb225YDWXIDoLlADkDCxAtRsiMH3GnmPO5SgAvEAHAAI2BGhFUK8IFlEn0BHDJBipmGgEgRusJMbF4umllPvbp27Wrrpntwn06dOhmADS5bUb2AxixZ+PIZI8j4UhEWPgb3M4YLCyEEv3BbA+Ag3NgATREvTWaWigB4uJqxJGI5FLHPUBOsyCqTe6MXEHKTjNGDXr162XR3xjzeBtzaovCcixOr59an10luJPsan27quiSAYxiFPiYZ24i7WpQEjc3pg3QPtskyu3XrFg/dYDwwE/5ERdb7IrdN8sv7VjLILWgESPDiwAKEhUljL3n4cEniltpss81s2A6sGFg9XJJFwk1To920sN+2HMiSGxNP+FpevHix7RCxNkKAACa8MHYVKyT7uEIBfYA4rJMMNxBoYdYz1mc6bn4uKOR+rnuafaxgnIcLirF2EBNhsA7gJmfCDe6mJLnuaYAR9dpoo43sNcuXL49Pz6NuZcnCl08IGya5wC/GTDERhpcj4YpwURNihzGI8F/EbM7p06fr0J4Pn7HeMMRg0003tdZBQCbyB0TOmDEjntj07rvv2nM4l3FbskbyvAPykRGTc6QvAFnGdpHO5AAX1OdRFjFjwk7FOeDTa707fH2NTzcxRvDc8/GI3mriKDP8TzzxROuWZnwvugjxsURZPENcx6SY5vZBvjL5cKNM+k/6LnfIVpH1vshtq/gD0UYFSAa5BY20E2AIIORFrwHzy5YtM3pZYy0in5cbbkwRLzh3tqzS1Wgdh21lOJAlN2Q4ZcoU615RDXjpM/bN/eGCpCOnAwaguOPl0An3XKwLLjFQnA5bhK4AaubPnx9bOtEThWgitAsWriThqlU8NOrhlikAyzV51a0sWaTl0x7kgcUREKf2q53Iwh06QjqgPWnZB3wCJq+++uqyWJpYdwF8WIZxa4t4sTKpiReiS7ykSXdnqlInXpgXXHDBKuXmVRZum8J+ZTmQptd6d/j6GmqUppsMVXGfe8biQoTFod9h3C5eEBHPjXs+UR+g5vRBvjLpozCaYFlP6nnyWPUpwrbIbasX+UgGuQaNbc1MNbqt7xvuFzgQdCs/OhBkkR9ZhJpUjwNF1vsit616GtK6kiSDABpbx8dwdeCA5YAeqMCO2nMgyKL2Mgg1qD4Hiqz3RW5b9TWlZSVKBhE74Rd4EHQg6EDQgaADQQeCDgQdCDrQmA4EVQAmZAAAIABJREFUS2PLQHe4KnCgjAM8ZIHywYEgi3zIIdSiuhwost4XuW3V1ZKWlyYZBNDYch6GKwMHYg7ogYoTwk7NOBBkUTPWh4JryIEi632R21ZDlWlW0ZJBAI3NYls4OXAgnQN6oNJzQ2o1ORBkUU1uh7LywoEi632R25YX/cmqh2SQa9BInD7WriXulQI8uw0jTAp5/BQ7i3zC75CmRuqa5LHSw7ZtOZAlN8LoIDt3XXC3Bqx4oLh7xFSTjNkS51FEWA3C4LiBnrk392Wdcndd5LQ6EXfRvTfxB7keYpUZVhRipQeXWAaRMt0wNOTnVbfS2u22x5fve7Z07dKlS23IEY7hm8tHwoWICI/F8mruCjw++RMQmfBZbvgS7sO18JyQJS6lyZ/8vMrCrXvYrywHfHrtlsqz7C4IQZ7vujQdJCi9q/fcT5Sm92nvpcb6N8LMoffvvfeebmu3hLbiOeF5canIel/ktrkyzPO+ZJBb0MgD1rt3bxtln1Uj9t9//zJ+Eq+qS5cudhUJVpIgCDREYFeC/bJW9aRJk8yQIUPi69ToOCHstDkHsuSGfJDr6aefbvbee2+7brhbCYDeeuutZ2bNmmWTAS+sK4yM+Wl9V+IHEtCdNILAS7YE3N1uu+3s6iUEeKdT9tWJWJ7E/+NH7EHKJXbjG2+8YTbccENz8skn24DTxF2DCAbOOsfEHiRANavSiFS+jvOw9bVbdfPl+54tXUdMxiiKLJ9II2ac+Dhq1CjDakwQK2QQkJv1efv27WsBuU/+8Jxg/cRdJZi3eA5oJ0g49yfI+MKFC+29ffInM4+ysJUOf1XhgE+v3cJ5hlkx6swzz4yTfdf5dJA+7Kijjor7Jq1Q5tP7tPeSr38jkD4LGBDjlAUGWIITor/jXciWgPku6C2y3he5bbEC5nxHMsgtaCSoMtHvRbxIXn/9dR0agjeTliRABS8qES8aWaLUaOWFbdtzIEtufCGfdtpptmAsTp07d7Zf96oJoINOUqCR4LmswpAkVgxZsWKFTWbVoPHjx1s5A0hlLeQ67pNVJ27CUnRnnXWWvR9gUcHCCT7Nyg4Qnb7WuVaZNiOnQCWr3b5837NFW+FHnz59DCtgAPSSxNKLWP0Jkswa3iJedATt9sl/7ty51vrM+axnrXWsWalHQdoJkrzTTjvZW6bJX2WF51ycWD23Pr0WNwCHgC500QWNvut8Osj7yQ04z/19eu97L/n6twkTJph58+bZKvM86nmgn+PDCwL4ri7LZ4Zn2oq8pn+SQW5BI1H29dDAKZaXw+UowjXQv39/u2IFK3NgIYJwa2J5wsWF+5H1cUVqtI7Dtu05kCU3VnJhNRARwIKVQKBFixaZww8/3K4AJNDIesV80XPM13caYYViHWncou4HA0sPsjRgVp1kYZDLGQuowCHlAZCwgLK8HXWnEz/ssMPsEnuqTx51K6vdvnzfs0VbJ0+ebAB47vKK4gEfdVruE5kOGDBAWeaMM86wcm1M/joZS6bWGKccWXAArB06dNBp8VbyV0IeZaG6hW3lOeDT62TJybWnfdf5dBCLIu8oVojRcBqf3vveS77+jY/SoUOHWhDKMrojR44sqz7vOz7Q5Hkhs8h6X+S2lQk2xweSQW5B46mnnmrHM4qHuJvddTZfe+01a77HQoTlSlYNHqbhw4ebjh07mvbt28durqI/VOJTrbdZcmPcz1ZbbWWtVKzVusYaa5glS5bY8XHbb7+9BWQAC4FGlppjeAKdM+sNn3LKKWVNZEktPhIY38P9WJdVhPsYXciqE53+1KlTdZldX5mxTSI+TnAD8dCsu+66Brd39+7drUVM5+iB0nEetlnt9uX7nq2XXnrJ7LPPPrZpaaBx2LBhZUs9Yh1hfCnXde3a1VpFfPIXv1inFze1XP+4oXk5AuKRUbt27XSq3bryV0YeZaG6hW3lOeDT62TJSdDou86ng3yQMvSCdxDDVQTg0vTe917y9W98mOLh6NGjh1lnnXUMY4hFAE36IfpFd+nTIut9kdsmueZ9KxnkFjRiOXLXt2XMGRMTfMTLjJcTLgZeXrgomTwDoPj444/tZWq07x4hvfUcaIrcsAAefPDBZuLEidYaBUjBJQxYxL3DFz8WPblhVCvkCWCT+xlAAgCVVZCOlTFGIvKPOeYYa4VsTJdweeISFWHlYt1kEWMnyefFwCQd6NZbbzVjxozRKbn8ys+SRVa+GsezhWuYDzOsucgIIM1YL1n4sQLKhabrcF/jwsP6izuZ8VlQmvxJR44MAWA9cBFWYMaeDh482GBxIV+UlL/Sw3MuTqye26bqdRI0+q5rTAfFYZ4FdBRK0/vG3ku6h9u/0R/qw5kPKYZZufTFF1/YD2T3Y7fIel/ktrlyzfO+ZJBb0MhYD9eqNHDgQAsKxVQsP3Jbkcb4RtIYQM94FRHWKb2E1GjlhW3bcyBLbnwZ0+GJAPWAQ1zQWJT4MfGBySxYkXBVCvTTqfbq1cteiiUKwKg8EhnjiLVSdOmll9oB5I3VCQDKgHKXADoMeYCoL0McOK9bt27xl/0rr7xidtlll/iyPOpWY+2m4r78tGcL0DhixIhYRp06dTKDBg2K3XIMBeFjzSW5+0lDrliUffJnpijy1LOq+zBrFblDDDmR2zpN/romj7JQ3cK28hzw6XWy5CRo9F3n00HGROqjibGNuKuhNL33vZd8/RtjgF09ZtIO3g/6SRFl8l4UuecrrSjbIretXmQkGUS49AgPIFKGjmu1BUgAKBjbgYVBY6UIQQCYINwGbiwefGZcYg2CsBBh1ueBvuGGG+wXmh7svLStVjytRrlZciNkDhY7JkWccMIJ1tqYrJfrnkbefBCgp1issE5CzCzE+oyc+dH5QgcddJCdOEOoJr7OsRD66sT5jMPTbF97A2Ps2MltttnGhpLBUkk5EGAS9zd1x6rgDpfIo2752q1nyJfve7bEH7ZJ9zSD8qdPnx6fwgsOyyPPJ3xiXCjkkz+uQXgqeS5YsMCeT1QEwCrWyT333DMG8z75c1EeZWEbE/6qwgGfXkvvmRjJ5CrGyePxYB999V3n00EiNdAf4JZGv+mjfHrvey/5+jcALGOredcxQY9hNhBGECbvYLnkeXC9b0XW+yK3rSoPRRsUIhlEl112WdwRc19ltEEZrb4FLy8AISACSwS0bNmyGOQSt418XjS4EEQMOubLjrEo7ldfntqmuhZxmyU3ZDhlyhTr4k1rPx8xDDUQMRuXyQ7uTEV0At3Vj04WouMHwOBqwmImSqsTecRAc2N86nx0BbDourWxktGJM2MxqUvJY92n1tu0drvPUFo+dfY9W2oPLy332QK0Ez/OJSbUYPXnpavnl/w0+fMMS5baci4WXl6syOKpp56Kb++TPyfkVRZx5cNOxTmQptfSe94P0jFtFdM17TqfDn799dfWWs9wGje2qE/vfe+ltP4NBtEP0o8BRvV+A5TyrJDuGns4v8h6X+S2VfxhaKMCJIPcuqfbqJ1lt1GjyxLDQeBAG3Ag6FYbMLGNbhFk0UaMDLepKw4UWe+L3LZ6UTLJIIDGepFYqGeuOaAHKteVXE0qF2Sxmgg6NLOMA0XW+yK3rUyIOT6QDCJ2wi/wIOhA0IGgA0EHgg4EHQg6EHSgMR0IlsYcI/tQtfrhAA9ZoHxwIMgiH3IItaguB4qs90VuW3W1pOWlSQYBNLach+HKwIGYA3qg4oSwUzMOBFnUjPWh4BpyoMh6X+S21VBlmlW0ZBBAY7PYFk4OHEjngB6o9NyQWk0OBFlUk9uhrLxwoMh6X+S25UV/suohGUQPPfSQYWkvkTJ0XMst4QWIt0cdFeDXrc8jjzxi88h3w6YQIoE8VoxwKU9tc+tVtP0sufnkQzxN4vER249lAZPEii+EuRCxzisrsxDiwiXC9RC/jBAXIl+ZBBonzhq6orAWXEOIGEK9EJLHJe6T1Cvy86pbWbLw5RO6iLA67nrfxLfjWdOPmIsiVnMhpqq7kg68IswJzyLhikS+MllphvXlCXuSJMpSWBTlpZVJXl5loXqHbeU54NMxlZyWT4gu6ba26KQoTQd5d9JPuOGnOD+tD0ork3N9fZDvefCVWWS9L3LbpF9530oGEXHU3JVVlFHrBvAC7927t42yzxqbRMh3iZdQly5dbBw4xYIjn5cd1xE5n+CorEstykvbVJ8ibrPk1ph8Ro0aZcaOHWuDcxMA3AUaxAGMosgu0QXfACidO3c2kyZNMhtssEEcw3Hu3Lk26C1x/Aj+DujzlUknTjnE+iRwOMF6IYASwaNZ9o4g1jNnzrTpdNbo4lprrWWP3b886laWLHz5vMQIjH7hhReaww8/3PKGtgL+dtttt/iZ01q7V155pQ3APnnyZLu6jj5CBwwYYJeHJJ3VXgCRvjKJwQnPWcWHQP2syQvxkYBc1l9/fbNo0aKY5b4yOSGPsogrHnYqzgGfjqlgXz6rEREPVj9WYWGlo8Z0cL/99rNxYelHtF56Wh/kK9PXB/meB/Q+rUzaVmS9L3LbpJd530oGuXVPY+VgBQ4Rq4KweoeIBd1JSxKBTwUUeUkBLHgwITU6eU04bjsOZMnNJx+C47IKi4hl+gQaWde4T58+dtUF1nWFWGaQZQMhOlhWdoBY6k/LFAIYsQD4yrz++uvjpSrRFQUUnzBhgpk3b569H3qmNZUJIM7a01tuuaXNc//yqFtZsvDlY0llvWdR9+7drSxoP0AySSz7KMswQfUBiVhJ3CXPWKmHZQR9ZfIylOWS51wrQPFByzWsHuSCxrQyVa88ykJ1C9vKc8CnYyo5K5/zCFTPBxLk00HWQde693zEjh8/3p6f1gf5yvT1Qb7nwVcmBRdZ74vcNqs0dfAnGUSuCy9PikeUfb24qRdLPuG6EuGS7N+/v131hXWCtVQgFqZLLrlEp5kdd9zR4MaE1Og4M+y0OQey5OaTD+5k1m7FqkeH6a4gAgjh691duk5AjgYA+AByLBnIOtG4rFkxQa5lX5ksEUh9WeEFYCmQygtg6NChFviwhOXIkSPL+FQvoDFLFln5NBogvcMOO9j2z5492wLBWbNmlbmte/bsGT9/rJiDnFzCrYylEQDelDJZdhDg7lISNDZWZnjOXc6tfvtZOpaVD8foi5LDUJI6iFeEdw16fdhhh9lla319kK9MXx/kSs19HtLK1LlF1vsit03yy/tWMogwq8vNRKWVUesGsBYt4xlFF198cdlav6+99pp1Z/GlhmURcAjhGuMFhUWK5ZfWWGMNa+EgLy9tU5uKuM2Sm08+ALsOHTrYJS2vvfba2JoHaNlnn30sqwQasTwiY5dYb5yPg3bt2lnQiU6TRnm+MrkfFkyWpzvllFPM6NGj7S15CXBtjx49zDrrrGMYS+lSvYDGLFlk5bP2+5prrmnX2qb9uIxxz/Mxxxq48AzChQ3YZywirjNZaMjjpYhMeGlCjZWJRQeXID9ZcOxFxqxiaWyszPCci2ur57YxHcvSQfLxJrCuc5KSoBE9W3fddQ0fMFjjAYy+PshXJ18fRNlpz0NamapnkfW+yG2T/PK+lQyiZ5991gwePDiurzLihBrtYCly1/1l7Vl3cfZktQAWci8ymQJ35cSJEw3jqgCYUF7alqx7kY6bIrc0+cyZM8ecdNJJMSsGDRpkO00+Bp555hlr9cOyjL5iVXYtjVwEwMHFzXhW0YwZM+wYOY7TyhwxYoRZuHChPR1rpaxXJ598ssGaBn3wwQd2fJ89WPlXL6AxSxZZ+TSXlyAg7quvvnJZYCemwS/4hiURt/WBBx5o15nGSuvSxx9/bPr27WvBeVaZWHux9O66667uLVYBjY2VGZ7zMtatdgdZOpaVj2cj7V2TBI0YXACYEN6NMWPGePsgX5m+PkhCSz4PaWXq3CLrfZHbJvnlfSsZRIwHwxQvUoaOa7Vl/JQsGdRh4MCBMSjkmJlufImJGN9IGg+ZxrSRB5hgIgSUl7apzkXcZsnNJx+sfVixROzzEUCneuihh9pfp06dDGCSIRVYGuXCZuIKHz5YIDt27Bi7madPn25wqfrKnDp1qp3UQZmcg65ATLpydQXQxEB2Ub2AxixZ+PKZDcrEIxHP1ssvv2zTAIAQ0Qx69epl95lVLcLyj7sfsAnvRYBKJrn4yuSlqpmqyKJr16661G6TL+y0MnWBKzulhe3qwwGfjokDWfn77ruvHdOo87VN6iBjF9FViDHYu+yyi7cP8pXp64N8z0NamapfkfW+yG2T/PK+lQyifv36WTeuKqwMHddqC9DjJY7VgXFlGhjPC41xU7jCmB1LeBZmvzLjEmIwPV9jixcvttYJrI2ivLRN9SniNktuPvlgsUJugAsshDvttNMq7JF7mgxmNmNNRhforDVJgpm2jC+aP3++dTHjMvKV+e6779rZvjfeeKOdtS1LJx08M++591lnnWWGDx9u68JMygcffNBstNFG9plZvnx5XMc86laWLHz5AD4suYzzZNgAk04gnj0AJMM+mG2uZwtXNWO7SGegPqAeUImLHwvybbfdZseaku4rk3GsAH/ucfzxx5tx48bZMvkQhOd8LKAbCq2VVqaEkUdZqG5hW3kO+HRM7w5fvmomC7qOfTrIRM0TTzzRvmvQXcYeQml9kK9MXx/kex58ZVJukfW+yG2TnuV9KxlEuPRcUoabVqt9gCGAkBeXrErEfdPLGusH+bzcXEsQ50yZMsW6DNy656ltbr2Ktp8lN598sDQBPhg7h9UwScxAdOOhLViwwE6QwkopwnWNtYv7yHJFnq9MABIhNvjIcAkd42sfECPd4qVz2WWXxT8mYInyqltZskjLp008W1hqAd+u5R7QBr/wUIiQCS/MCy64oMxCg1WSdGZUuxPu0spEbgp54sZ1ZGiCy3PGu0K+MsnLqyzEr7CtPAfSdMx9d6TlUyv00I0cQJpPB7Ey8mGJZd3VOV8f5CszrQ/yPQ++MqmnW4fKc7i6JRS5bdXlZMtLkwxyG3Kn5U3zX6lG+88IOYEDLeNA0K2W8a0SVwVZVIKr4Z5550CR9b7Ibcu7Xql+kkEAjeJI2AYOtIIDeqBacYtwaRtxIMiijRgZblNXHCiy3he5bfWiZJJBxI77M49HJvwCD4IOBB2oZx1w+7SwX97HB34EfgQdCDrQUh1YxdJYzy+KUPcAdIIOBB2wOlAvn++hnoEDbcQBQECgwIFKcUD6FUBjsKwGy3LQgeLpQKV6znDfwIGcckAv9ZxWL1Srzjkg/QqgMQCG4gGGINMg0zrvoEP1AweaywG91N3riHJAyKq0n3tecv+aa64pi3iQzM/j8RVXXGFWrFgRV+3oo482X375ZXzcmh3CLhHA3aXPP/+8LHY0ESfcKBHuuchBsWWJ/EBIMv2IFMK9mkKEI2PBiVqQ9Ct68cUXy8vP+Qv33w9G5sELI7P44siYRSmuuMWR+c3lkbn//Mj88/6U/Jy3rwju1UwZPRaZxy+JzNKZDfL54JaSTJGrfp/fG5kXZjUck/4Ycn+sdN2KOyNz77mR+eq+hvuIf39ZEJnXb3DSU8rk3L/fX7rHR79yzn08Mv96MDIPXLCyjo825H18e+n8r1PKVNl52mbJwpu/qCSj389qaDvt4plaeF5kPrytIR2ZSGZsn7+mlLf82vJ0eMo9vGU+HplX5kTmy3sb7s356ME9UyODvF3eNib/8k4tHK12HPjsz8bMvdWYW35tzFdfr9r8rPzfPm/MmyvD0a34ozG33dXw+83KcFMvvdKQRv5rb5bKIeD3XfcZM+tGYz4sBcO3Gb4yP/nUmOtuNub5hriv9vw//smYG24p3evrRBs4vrsh5Bfn66VeqkTpn9WZABqscuP+iKHaGG2zzTZxmLvkeayWwwpsxE7l17lz5/iYVbsuuuii5CVlx4TxYkWnxog4lc2h119/3Xz/+9+3IZBYNYwfcZy174YIa859WVSEGNCsdsViI4Rzo80sP7vJJpvYfQV4HzlypA1Rxv0JmeQSi1GwKhnEEqjUdciQIfa+3/3ud22MWkAnPxar0ApcxC9270XYORZVAHCKVL6OK7WVftng3sSfiynPoOrRyGzdMzIj94jMgO0i8/Odyl8ivFCO2Dcyxw2KzPSjIrP9ph5gmec21nvdsmT0cEmGZx0SmX23icwZw0oyXDYzMheMbvj9sEMJMN56RkPauYdH5tvfjIxZHJn5p0dmly0jc9kxkdmia2QAKC6g2PUnkTlkt5VpnjJfnh2ZbTaOzHUnRuaAvpG56vjS+YAadOfioyNz1M8ic8LgUvqsCZHZf8fIzD6plP/ideVluuXnYj9LFr78RSUZnXNo6VnSc/be/Mj06lLiyz4/jcyVK/l14RENMuL5679tiS99NovMpUeXZISc/nZ3ZIynzP8+VOLzd9pH5snLGvj63NUlGc08tiTvW84o5WXJP+7Pws7qxwEAVbv/Z8x+w4zZcQ9jevcp50FW/h8+NiaKjLnsqtJ1gLOtdjTmwhml3533ltKPO9WY4Uc2pD+7coWyISON6bqZMYeNLd0HUOgr87kXSuece7Ex2+xszJnnl+4NqGq/vjFTLzLm4NHGHHBYeRtOOL10nZOql7qTZIYNG2YD8U+YMMG4P61+5Z7r7m+//fZ2iVA3zbfPCjpaKcp3jpvO+vRY7hqjzTffvLHsVfJYhAFQTExYVtk5++yz7fKn7PMjlmZLaLfddosBHNdffPHFBkCbFkeYZSRZAIJliwGV7jmsIubGu4Vnn332mU3bY489DAtXAMTPPPNM873vfc988skntrqAXlYkE0BnywILOuZawGc1SPoVYTJ9//33G8rMMWh5eFpkjt+/4YXCi+vdeQ3HWD+226Th+K2bAmisNnjJkhFWKgFFLIadv1eyPLn1fP+WyOy+VYMclXfTxMhMGVlKP3VoZP66oLR/15TInDik4XwAxYH9GkCjr8yTD4jMbWeWrvtiYWS27Fbap5yJB62832MNFsve3SPzp5XWrmSZqmOetlmy8OW/NDsylx/bwM8fbxQZ+DNvUsn6SBsBgOKX2+bD9orMUzNK17rPos5prEzyThpSDhoB6lgfuZ5nfY/epf3G5G/LaujRwt7qxoFb7zJmxNENrQY0As5EWfl7DzZm+90bQCMWS4E53YPtIWOMeWyJm2IMALH9+g2Ai+t+MdMYX5lXzjFm4cOle3zwkTFr/H+l/RnXGHP0SXYfa5P5veMR/N3vjfnxtk0CjZMmTbJWLFZQcn8slZokVmEisD4k0MhqWmnrcLvXNgYasZixJKkLKgUaWXyBRTtYFYclY10CNHLt0qVL42WAyceqhiWOgOiijz76yHznO98xN9xwg13QgXXrsRB26dLFtn3PPffUqc3eAtBY0pbt6NGjzcyZM+0qdWk3Emgk7+STTy5bnrlHjx5ll8Az6gj4A/g9/PDDdtEEVg5yl1AFqFEullmtc+7eCICKXKtBMWgk2n0Z5Rg0XjSm4SXPi2HqYSW3lV5Ivz6nZIXEYsTLBtej8sK2OrzIktHV48sByU69IvPG3PK6YUl2XddWdistVGluYSyU044s3QMgyT0BPrI0+soE+A3bpeT+vPbEyBy+V+ke4/aLDO3Aggbg1DAILNiAKQDUqL0jc/PE8nrnTceyZJGVT3uwAG6wfslC6LbvmSsis+fW5e13QR3nbrtxaSgJ1mK5prPKTIJGt8y5p0QGoO+mse/KP84r69TCwWrFgTPOM+bamxqafNLkkqtaKY3l33GPMfsPN2ba5Q2g8fJZJavhBZcZ8+gTDYDwZweWziP95ddKd1/8VLlV8IFFJXDZWJmq132PGLPljqUjrIsTzjBm/KRSW+Rix/W98RbGvPhKo6CR8X2Akh122MGCCkAPS/G6wBHAotVvWPUK4CULl0Ajbl/Al1ykb7zxhmElLtyk+vXu3duu4qVj8t98803z6aefWlfqGWecYbbbbju77jyNE2hkxSlcv9TrkEMOsfsag0iZLA+Lax03MOUCnrH8sQY4ljm2gEiWnMVFDmhkvCBtZnUp/XANt5TgGxbC9957zy5PC2hkuVvK5wePtZqYCxqpF/WfNWuWBcZJy2nS0ojlleVvGXuKi18EcMaoRxm4yEW4p1n+lrGQ7spnyq/ENgaNVF6KYwvKMWicdHDpJaQXw4yxkeFFomPAwfe/FZlHfhGZ60+JzE+6N+TpnLCtLE+yZMSYwK17RAZX56PTI/ONb0Tm2Ssb6vT2jZHZOwFGkBnyPH9Uw3mS4xOXltzTGr86YvfI4OoGiAo0+soE/G32w8j03CAy66wdmd+urAeu6r6bR+bpX5Ysjkf+rFQuLvBvrR2ZjTeMTI+OK92tdfy8ZMkKsIyrGfe9+M32kztKbuqkex7ewzOdi4sfkPjLcSWeMc40q8w00MgHAMMV+MnSqzKS8ld6JTrNcM864QAWul8taKjs2dOMAfiJfPl//asx3/6BMYxhdEEjYxNxczO+ECukrJiHjyvtk79htxIwxXV95HiVZMxTy4wBXPrK1JmvvlECgct+W0rpt2+pLoDQsacY039oKf38S4059ZzSPi50h/RSVxKTQhibeMsttxjWrB4+fLi56qqrDJNcrr76amvd0rlLliwxI0aM0GFsaSQBS9vtt99u87DycQ/AkH6MHQQA6hjAioUSsPX222/b655//nlz0EEH2X2BRpYHBX+IsM7dc8899nDddde14/s4YIwkbmdAoyySgFjKZcva9iw1DGjEckn6jBkz4l/W+E2Vn7bt27evtXQKNOKeZjgfoBh+AnLlhnZB49dff22tg+RTN/jvEu3m/LFjx1pLo9pzzDHHmDlz5rin2n2staeddpoFkPBtiy22sKAV93W1SPplJ8IMGDCgodwcvwSxJt1+VsNLiTFuWBf1orjxtMjgttLx4D6RYdyajsO28rzIkhEyYKISgO7M4ZHZb4fIvHMxJVEgAAAIt0lEQVRzQ70YR+fKVDIDxNkxcY5+Yo0EgApI4N6U5RBL2JC+DRautDJPOygyc04ulQ0Qwg1LeSP3jMxD01bW6bES4GEcJSAIUMs5d5wdmWMGrjzHqZPqm4dtliwazX+0NGbYdVPTJniNmx5gXtbGR9Ld1TqH8aF4ABot8/FV3dO6HgCLZXi3nzSUm5R/fC7yCLT6cmDSuaWJJeIAlkYAn8iXDxgk7613jDl5cmn/b3/TVaXt3/9eAndY/Fx6YqkxO+1lzKInjRk6qiEHSyPjHn1lcuYbb5fc0o+UJkrYiwccXJpkwwFlARAFLLFqUkfS3m0YWqaXugoHNGIVA/BhsQOgdOzY0dx9990WFAJERIx3xDInkqWR40WLFtnzlZfcAoBc97PysfoBjMgHKGIRhFzQyHr1ItzgTDaBNt54YyWbBx54wJx44on2mLGJ4JXBgweb9u3bx+ewxr1AY4cOHcosqowJbClh8aS+AOdTTz3VMHbyueeesy51F2Rzf4FGgPWRRx5piwQM0hbc7C7BEyYh417GPQ0xnvGb3/xm6oxvZNWpUyc7iQZgjRu72iT9ihi4iWk4ppy+AHkhLJjqjDV7PDKDdmgYb0Y+Vg4myOjlwf6HtzYcKz1sK8eTLBnx8perEjkwicU83FAfLFuMaSyT0WOR+VHn8jSsXADGz37dkM4kCQAf4+rQDSxT15xQci+nlckED3cCDeczUQOLJhM3bB0Wrazj45Hp1rHBVc14WSbblNUzZ89Oliway8dqmASMDPeA56sAxsdLk5a4RvzA8stMah0zMe3GU7Of4aSlEZDJ7GnJousPSvtp8ldZdht3aGFntePAjbcZc8TxDc1mggmzoUW+/BPPLLmWAX0/3Lg0mQXQh9v47XdLV3/5lQVr/2V2LBZGzWJ9+LGSNZBxid/ZUCUZc9aFpYkyvjKxajJpxwWMXI01UeMoBVSXPNNQP+oIaBw1Li5LL3UlABoBPYAZxvnhWsUaiPvTHdO4fPlyk7TGuaCR++FeXWUo28qCfKDx9NNPN+ecU7KKAo7SQCMzjkVTpkyJZx+77lxctoBGxlvizhYxA1nkgkbcwriz9QM4t4RwAffr16/sUviG251xmGmgkbGJWDqxtEJYDqMoMgsXLiy7DzwjjTavtdZaFmSCw9Zee21z1113lZ3LgSyNyQyF8UmmV+JY+hUxRuDee1fOBqOknL34yurzcOkFjsWBMWgaFE/YFdxUTKzAGsQL6orjSi7Gsuvz3Lai1C1DRkxqQEbMkAUgYG10ZYTrVyF1lM5YOc3IVRqznrE0M+aQH5ZF5bF13dO+MgFNzOBGd5hgc+hK0POHX5VAKhNqGMco6zWTsE45sFR3rJju0Ai37NzsZ8gCsA5oTz5PDBvAZS/esgW44Vqm3Uq/7/wGnjOjnJnScdsXl8Y0Yv2Hj4B+G0rHUyYhlxZdFBm8Azy/mkzD2GTKpE4Tfh6Z8SsnwmXJvxKdZrhnnXAAYMeEkitmG3POL4zZbOtSxbE2LrjfGF++2zzXPT3vjtI9AH77HmDMsSVrmJ0dPewIY2bPK4FMwuxAe+1fGos4Z34J2H30ib/M0ccZs3VfYziX3/W3lMZMvv5W6dqLriiNsTzqBLd2pf1G3NO4aW+66Saz6aabWkDCuEAsbo899php166dHT8nwIFrOglUkqARNyhgKY18oBHLHy5pLJVs00Ajls9LLrnEzJ49245/VJ3SQOM777xj3bLcD4skVjmRCxq7detmJk6cGP969uyp0+yWMZZYQbMI/k2bNi0+DRAKuMZNngYajzjiCMtj4jnissbd/pOf/MSC3W9/+9uxax2X93rrrWetpQB5xnQeeuih9hg3PrOnmfHtEqARa3CSdtxxR/PKK68kkytyHINGvgDKKOfghdhsuLoYv6iJLr+7KjKvXl96YfFyw0JiQ3M84rzEct6u+GVbgHpmyQh5nXd4ycVb1u7FkWHSRFna45EhhqJAhPKQP2Pl9AMAKo8t4xUBIUrzlYneYM0ClGBl1PmATiZYuOFfsJICMJkg41oodU0et1mySMsnNqb4qi3nARZ1rK3aDGhPWoj/vKAUnogxkW4szbQyie2oe7JlDKu99+KSZRNZENsTGZCeJf+yPi0crH4ceO8DY8671JhLrzLmL38ptZ/4ippFnZbvconzXmiYoWuwJE4+3xjFaORcJqcwK5qwOIrpSDrhdX55XQmwKnYj6Wll3n63MQBD52etmJy//OVSmQ89xtGqdL3jck/EaWQsHcGtiSuI1YtxcoyDw1XKyx9QBZDByugSYHPevHl2UoybnrbPBA3GN+IOFthzz2NyzZ133mnD3QBs7rjjDpuNkQrQxtg8xh4yBpIxlpoEw0nUQcR4wqeeesoeAp6wzuFKd4NtX3vttdYFz8QVgKhC0rAlDiLWVbmI2U+rr8rTFoDoAjJC4sBPiLGajGl0CTczk3Nwp2+00UbWKqp4lJdeeqlhBjXuasZDwhuIiSzrrLOOYYa3xkYySxpXNFZLEROUZDUGPI4aNcpaj8uGFurkCm1j0LjK/QsAWvQiC9sGEBR4EXixWunAKh1bSAgcKDYH9FJPa+WyZcvshFdAoQjwkiRADZM2CMCdRQAerGlJK2XWdcoHNGIhbAt66KGHLMiy4Yk8N6RtEJN2mkIffvhh2WlMuFEgbVZ+YUKRS4QBAgwSxJu8ZF2SAJ1rP/vsM3PSSaXQSu69BCrdNIA2E4Gw+jJu0mf5da9py33p16ojxgNojK1Nq9VLNsg9yL1IOtCWvWW4V+BAHXBAL/U6qKqtItbClq7UUi9tLFI9pV8RO+4vAKVgkQo6EHSg3nXA7dPCfnkfH/gR+BF0IOhAS3VgFUsjNyoqFbltRZVZvbQr6FZ+JBVkkR9ZhJpUjwNF1vsit616GtK6kiSDABpbx8dwdeCA5YAeqMCO2nMgyKL2Mgg1qD4Hiqz3RW5b9TWlZSVKBv8/AyUbU7O95LwAAAAASUVORK5CYII=;" vertex="1" parent="M1Kj_39iP2AGimqlnrWc-1">
          <mxGeometry x="505" y="1870" width="653" height="140" as="geometry" />
        </mxCell>
        <mxCell id="tBodU4Q1IQQOX9P65XnI-165" value="" style="shape=image;verticalLabelPosition=bottom;labelBackgroundColor=#ffffff;verticalAlign=top;aspect=fixed;imageAspect=0;image=data:image/png,iVBORw0KGgoAAAANSUhEUgAAAPAAAAAZCAYAAAAPHqPYAAALlUlEQVR4Ae2bd4wUVxKHl2SCwfgPspEwNmCMTQ4mShYCGxGEZIExIphosgAJjjtkkxY4ooHzwRFN9HFwYEww4Qi2ALMcOS5JBBMWFhBxNu9Onb63VNPT0zPr9S17zKlL6n3dL1R113u/elX1ZqPEI08DngYiVgNREfvm3ot7GvA0IB6AvUXgaSCCNeABOIInz3t1TwNRt27d8rTgacDTQIRqwANwhE6c99qeBtDACwFwYmKipKSkZEvDfr8/qH9GRoZwOSktLU3wHNzGUOc2Rnm4jdE2ynDtyjtcH77dTsnJyfLrr79KamqqVa3f5Sy1w+LFi6Vz587mMSnFL76kYN1oX9roo5Se4ZdbdzMk7n6GcO9Gj5/6xZfo3mbv//jxY3ny5Im9KuhedaLfEk43DGbu7ty5E8THrSKUfJVFmZU8+DrX4/nz56V69eri8/ncxEZUXY4COD09XWbOnClFihSRIUOG/GZFHDt2TPLmzSsNGzYUeCh16tRJvvjiC32Ua9euScuWLaVgwYISFRUlr776qvTt29eaiKNHj0qePHlMG2WlSpVkxYoV1vgxY8aYts8++8yq05unT5/KG2+8YcafPXtWqwPKt99+24xHdokSJaRNmzZy6tQpq8/+/ftNuy7QkSNHSoECBUxdsWLFZN26dbJ161aLB3zs16xZs8yCRM7EiRMN38FfJ0i3aJ/sOZJmydGbmFNppm34nARTFXs1XQbPzOzPmBHfJMi9h88NYEqqX9buSpHPJ/pk6ZZkZRNUxsfHS9OmTY0umJePPvpIAJMblStXLuAbGjVq5NbNfNeIESPM2uCby5cvLzExMa59w8kfOnRogDx43bhxw5VPqPUI8HnvpUuXuo6LpMocBTDgqlq1qlFOdgC8d+9eMymAbtGiRZb+OnbsKH369DHPWFEmvUaNGrJv3z65efOmLF++3IC4e/fupo/yOXjwoJw5c0Y6dOgg+fLlk6tXr5p23oln5Fy5csWSw83cuXMtw3Do0KGANn0oU6aMfPXVV4IF37hxo1nkABQDBKn8uLg4+eWXX8w3rVmzxuxi69evl82bN0tSUpIZD49PP/1UGjRoIBcuXDAXIGFRsygvXbpkePablgnIUXMzQarvQjlmYaIBMKCFAPS/DqbK0wS/xF5Jl8+jfQawOob+f/hrggyYlhAWwO3btzc7FDpCjyVLlhTA50bFixeXJUuWGEOGMcPbcKNVq1YZY7ZlyxZ58OCBtGvXTt588023rhJOPusBw44srtOnT4fchcOtRwwBRirSKUcB/MMPPxhXsUmTJtnagXXhd+nSRcqWLWvtqHYAAzDAd/369QCdT5061dRjtZUPAIIAFmDYuXOneQbAzZs3lwoVKsjo0aMD+Lz33nsyYMAA0z8cgOfMmWONwx185513jFdApV3+2rVrDS+nobAGi0j//v3lww8/tFfJ2LFj5d1337XqAPA3a5INUM9de+6dXLyeYer+9n2S2XWtAc9ucJ/7TvHJyu3PQ5nDsemSluaXsYsSQwIYI4JRWr16tcVy+PDhUrlyZevZfgOAf/75Z3uV6z3eyieffGK1HThwwOjnxIkTVh03WckHwIMGDQoYE+oh3HrctWuXkR/KswjF82WrzxLAK1eulFKlSgVd7Cih6PcCmF0H93vcuHGGtR3AvXv3lg8++CBIJDsEIMV9VQCxo7ET9OzZ0+zQd+/eNeMAcIsWLWT8+PHCbgoAoZ9++kny588vuODw+q0AZuykSZPk9ddfN3xUPgYEN5r6ihUrCmDGbXOSG4DZmVq3bm11BcDsqrjD879Psurnb0iW6CWJsvVAagCAb8ZnyJnL6TJvfbL0nOSTSzeC5YYDMDsaOrCHEQsXLjTzYgm33QBgPAkMImuFmN+N8MwwTkoPHz40cn788UetMmVW8gEw8SvhyezZs4MMegCzZw9u6/Hy5ctG/vHjx92GRExdlgDG3cEldV6PHj0K+ZFOheE23rt3z1xu43Th4yZ/+eWXBnS3b98WO4BbtWolbdu2DZKJK82C27RpkwVgnrleeeUVwdIrKYDZxYnt1Aghh90BmYzLDoBx+RlD0k6/Qz0AXLxmzZqZdlz/c+fO6auY0g3A9evXN3G9dgTAO/+dKlv2p0rPyT55kuAXklCAc9+JtCAAT1qaJH3+7DO7M6AnoeWkcADWb7B7DgCTb3QzQuzOgwcPNkm3okWLSp06dVwTmKVLlxa8JSWSevAkxLBTVvK/++4747mQGyHHUahQIWN47Tyc9871SDuGhlBK14BzTKQ8ZwlgXNPdu3cHXQAyFDkVxgQzWVwo3Uk6aQCYZBKT3a9fvwAAd+vWTdwSJLhg8D1y5IgFoNjYWNm+fbuwoOyusgIY+RiEjz/+2GSz2X1xs38PgCdMmGB2c3jqdyiA9TvRH6FBvXr1tMqUbgBmdxk2bJjVTwH88InfJJ92xKTK5n2p0n96gpCUcu7AOvBaXIYMneWTP80Ljp3DAZgdCX2ePHlSWZm8xGuvvWY9h7pRt5TSSbjgGGclXFfk7NixQ6tMmR35rBcSj/ZEZwCzZw/O9Ug12WtCBTL+kUxZAphYCDfQeZHECUVOhaEsLC6XPcus43XhMyHQ/PnzjUuLNcd1hiZPnmwUjkGxE0klgArwlY8CiDayv7RBdgCTEcYCkwDDqPCO2QUw30IMTNIFcso3lc/+TJkyxewW9jo3AJNYwSNQUgDzPPsfycaVHjbbJ3/fkRnbhgIw/ZdvTZYek3xBSZ5wAEa/6MUeA5PwqVWrlr5SyJJdG1Bu27YtqA+xvj0G1iSfJut0QHbl161bV3r16qXDXUvneqQTYRXv6vQAXBm8xJVZAjg7737//n2THWan6dGjh7kPFRPZ+erCVwADjGrVqhkFK4DZ8QEquzBuMTEMCSWsqFp25aMAVlcZgwDZAYwxIbvKJE6fPt20OwG8bNkyGTVqlPWqxM3s6MSHZJRZlBxpqWtsl8+RkMZotKMTFpKd3ABM3G73NOwAPnYh89iII6K4e5musR3A6/akyt7jaRL/IMNkoTmCIk5Wov5GvF/+OC9B/vLPZHOf8CysJsvM90KNGzcWgMHxDOEEsfy0adNMm10n5AwwhIRFnMsTC9OXdQDZeaKPwoULC7szICUXQbgA4TGRWVbjHEo+cwYf8hucTxO+2I3Nhg0bAsKPcOtRE5z/9zGw0fBv/PP+++8bQAAKvb799tssR+v5KbGyEhNNDIv1Vzp8+LCJschGwx9Xm/NSjc3Uqus5LOPIfmqmF16caSqxwIihdMGxgOCLOw517drVJEy0f5UqVUw78t966y1zTEXCTMkuHw8Ft1n1wHHRxYsXtaspBw4caLLi9soFCxYYQ6W6wFXedSjzRyBklnGLp6x4rqdtMaky5OtMNxkwk3kG4FyAV4GODGJibdNSz5fJzKvrzhEXmXDeHf2ww2nCz64Tss+ch+s3kqjas2eP9Tl2nuQI+HEKBpf+tWvXto7yyF+gUxJYUCj5ALhmzZqWPLyr6OhoSx6JLVxqpXDrEaPOeHhGMuXoDvzfKMJtp1ZgOvmyuDWz7Gxz8oGHThI7uy5ExuE2O38xZh/v7O+U5fZsH69uuVvijrG8m/19qMP4sJg1uZKW7g9wgdPT+aXZ819RIYM+SoD8wePAX2dpW6gSw4MnAXDshGFT3Wm9UyfIx+Mhq2ynUDyZO2dfxjnngTo3+dQzHpnIVkKPGAz1FLQ+VMlxotsPekL1f1nrXxoAv6wK+l+8F65obi4u5M2YMSNHP/VF8Az3gsSy5A8wMFkRnhZGkpAn0skD8Es4g8TuZNE9ejEaYGdXD+fFSMg9rt7/A+eerj1JngZyXAMegHNcpR5DTwO5pwEPwLmna0+Sp4Ec14AH4BxXqcfQ00DuacADcO7p2pPkaSDHNRDFv1zxowNK+73WOUuvT6aunHrRZ08/nn50LTjLF7E2/gNFd6iyp4u1lwAAAABJRU5ErkJggg==;" vertex="1" parent="M1Kj_39iP2AGimqlnrWc-1">
          <mxGeometry x="775" y="1840" width="240" height="25" as="geometry" />
        </mxCell>
        <mxCell id="tBodU4Q1IQQOX9P65XnI-189" style="edgeStyle=orthogonalEdgeStyle;rounded=0;orthogonalLoop=1;jettySize=auto;html=1;" edge="1" parent="M1Kj_39iP2AGimqlnrWc-1" source="tBodU4Q1IQQOX9P65XnI-174" target="tBodU4Q1IQQOX9P65XnI-127">
          <mxGeometry relative="1" as="geometry">
            <Array as="points">
              <mxPoint x="-454" y="2030" />
            </Array>
          </mxGeometry>
        </mxCell>
        <mxCell id="tBodU4Q1IQQOX9P65XnI-191" value="&lt;span style=&quot;color: rgba(0 , 0 , 0 , 0) ; font-family: monospace ; font-size: 0px ; background-color: rgb(248 , 249 , 250)&quot;&gt;%3CmxGraphModel%3E%3Croot%3E%3CmxCell%20id%3D%220%22%2F%3E%3CmxCell%20id%3D%221%22%20parent%3D%220%22%2F%3E%3CmxCell%20id%3D%222%22%20value%3D%22%E8%BF%99%E6%A0%B7%E7%A1%AE%E5%AE%9A%E4%B8%8B%E6%9D%A5%26lt%3Bbr%26gt%3BB%E4%BA%8B%E4%BB%B6%E4%B8%BA%EF%BC%9A%26lt%3Bbr%26gt%3B%E6%AD%A3%E5%8F%8D%E9%9D%A2%E6%AF%94%E4%BE%8B%E8%B6%85%E8%BF%8760%25%22%20style%3D%22edgeLabel%3Bhtml%3D1%3Balign%3Dcenter%3BverticalAlign%3Dmiddle%3Bresizable%3D0%3Bpoints%3D%5B%5D%3B%22%20vertex%3D%221%22%20connectable%3D%220%22%20parent%3D%221%22%3E%3CmxGeometry%20x%3D%22487.6470588235293%22%20y%3D%222149%22%20as%3D%22geometry%22%2F%3E%3C%2FmxCell%3E%3C%2Froot%3E%3C%2FmxGraphModel%3E&lt;/span&gt;" style="edgeLabel;html=1;align=center;verticalAlign=middle;resizable=0;points=[];" vertex="1" connectable="0" parent="tBodU4Q1IQQOX9P65XnI-189">
          <mxGeometry x="0.2422" y="4" relative="1" as="geometry">
            <mxPoint as="offset" />
          </mxGeometry>
        </mxCell>
        <mxCell id="tBodU4Q1IQQOX9P65XnI-192" value="这样确定下来&lt;br&gt;B事件为：&lt;br&gt;正反面比例超过60%" style="edgeLabel;html=1;align=center;verticalAlign=middle;resizable=0;points=[];" vertex="1" connectable="0" parent="tBodU4Q1IQQOX9P65XnI-189">
          <mxGeometry x="0.3964" y="-3" relative="1" as="geometry">
            <mxPoint as="offset" />
          </mxGeometry>
        </mxCell>
        <mxCell id="tBodU4Q1IQQOX9P65XnI-174" value="" style="shape=image;verticalLabelPosition=bottom;labelBackgroundColor=#ffffff;verticalAlign=top;aspect=fixed;imageAspect=0;image=data:image/png,iVBORw0KGgoAAAANSUhEUgAAANEAAAA0CAYAAAAUs93eAAAOpUlEQVR4Ae2dB5AVRROAQUBJShAEEQsoSQqKJBEJBiiUoAQDoEhGoAhKCSICoiJIEBMZQbJZySo5KVlyDkpUEBAQMYA6f31df6/z9vbdyb17j+Nuumpvdyf1bG/3dHjbc2mMA0eBFE6B9evXR/UJ00R1dDe4o0AyoIATomTwEtwULm8KOCG6vN+fm30yoIATomTwEtwULm8KOCG6vN+fm30qoIALLKSCl+weMboUcEIUXfq60VMBBZwQpYKX7B4xuhRwQhRd+rrRUwEFkoUQ/fPPP3FI/ffffxuOIPjxxx/N77//HqeKcegTNB6Nw5XrQPHV//XXX+b8+fPaNHAse87nzp3z2toXzJuxgIMHD5pixYqZ48eP200Mz6dtQip8N+D44YcfQuaiNNC5+Onhr/cNGef2zJkz5pdffolTbhf4x4yPjvS7cOGCOXr0qD1E2Otw+MM9X40aNcysWbPCjheNiksuRIQfr7jiCnPnnXeGME7Dhg3NU0895T0zDPzcc8+ZnDlzmjRp0ph06dJJn61bt3ptbrrpJqmjPkeOHKZ9+/aesG3YsEHw5MmTJw7TMkDr1q2l7yuvvOKNZ188/fTTpkqVKlKU0JwPHTokY3344Yf2EObs2bMmU6ZM5r333pPy7t27m1KlSnlt5s6da/Llyyd9M2fObF599VWvzr44deqUefDBB+V5eNaiRYua3bt3S5PatWt7NKBOj+3bt5uvv/7au9fyN954wx7auz527JipXLmySZs2reCBOWHoINA565gVK1YMaibC3rVrV8Oz0TZ//vxm5cqVgW3jw8+7UFx6huZAp06dTM2aNQPHjFbhJReiZcuWCUF4We+++673nI8++qgwtha0a9dOiD9+/Hhz+PBh88033wgD5s6dW5iTdnnz5jUvvvii2bt3rxk+fLgwwJAhQ2QIxZM+fXozePBgHVbOR44cMZRnyJDBdOvWLaROb3g5lSpVklsdK745lytXztSrV0+7y/mDDz4QPGgeVusbb7zR9O/fX+pOnz4tAgaD/Pzzz2bkyJFCl9WrV4eMwc0zzzwjwrZz505Z0W+99VZz//33SzuYaePGjd7Rtm1bkzVrVqHRvHnzTPbs2c3mzZu9A7xBULduXcO43333nWGhgs4IQBBky5bNjBs3zhvzwIEDQc3MlClThMazZ8+WZ2QhKFiwYGDb+PCz4LHI6nNs2bLF08YsFCyw8EisIA2ralIciZ2wMuQTTzxhrr/+evPrr7/KULYQKZO/9dZbIWj27dsngjJixAgpR4jefvttrw2aqU2bNnKveFq2bCkrt9fIGPPSSy8Jw7DyXowQxTdnVvirrroqZPVu0KCBqVWrlqCGMVlFYQBgwoQJ5sorrzS//fabNzVW6hdeeMG714vSpUuLIOk9Akdf29ykDpOwQIECsjpzjxAhDAkBGocFBaFX6NKliylSpIjehpwRoiVLloSUBd2gJaGBwooVK4QGCL0NCeFHiDp06GB38a5ZnK699lozduxYryyxF/9VLmKiiSZPnmyuu+66OMdnn31mlLn37NkjmgaGBmwhwsyB4YJWuJtvvtl07txZ+iBEAwYMEHNt6tSpsiJNnDhR6hQPGoyxFi1aJOXY55gjaK6LFaL45oyvgpmq+NWUYzUGoAnz0EUDDXrLLbdInf6pXr26ad68ud565woVKpjHH3/cu//qq69kLBYbGz766CNZZNTUQ4gwJ9Eoffv2NUuXLrWbe9cINnPbtm2bVzZmzBh5P16BdYEQPfbYYyLwPNcff/xh1f57Wbx4cdOnTx+vALMUPHPmzPHKuEgIP0KElmTBY2HFt7ShTJkygYuP3SYpr2MiRJgnq1atinNgSihzswL36tXLZMmSRRxrW4jwISC2vUorEe666y7TpEkTuUWIaKdHjx49tJmHhxdHn0aNGkndxx9/LDhZ/S5WiOKbM4Pfd999nubBP8IXQJiAQYMGiWklN8aYjh07mrJly+qtnB966CHzyCOPhJRxg5ZDQNGE+H0sUDyz34RB2Fj9FRD6Vq1aySrO3Ojz8ssva7V31neCKaegQo9D7we0FPNv3LixmI4w8Z9//ulvZvBHBw4c6JWjOZkDwm5DQvhZIDHv8ZkLFy5sMmbMaL799ltvCExBfb9eYRQvYiJEOIkLFy6Mc+AbKMFgSBgMQmPH20JEtCWISaALJgYOOqCaaNeuXQbnlpVPo1yKByHCfsf8Af/dd9/tmXyJEaJwc2Y+4MEsOnnypHn44YdDXiwBjBtuuEHmzR/MNiJ1NuDMw/RBMH36dPPss8/Kys5igVDZEUHVuGifcAATEoDxA0EY6L1p0yavCn/1mmuu8e7DXSxYsED6cvYD74qFUoGFCzxYGjZcDH74BjraQSi0tPqI9rjRuo6JEGFbFypUKM4xY8aMECHiIUeNGiXON6uZMhDmCMTGpLABx5JytAlg+0Ra98knn0idLUSYUFdffbVp1qyZ9Mf2BRIjRPQLmjPlCCx+ESYHZtTMmTMFD3/w3XCAVcgxJ2lrCwLMoYEHr2PABcGI22+/PaQG38NvHoY0MEa0AnTwA4seQRPbJwrC4e/HPdqLd/Lll1/Gqb7nnntCfCIVdDSkDReLHw2Or6vAwhikwbU+qc8xEaL4Jq3MraYaTMXL50WoENG/Tp06BtubF7t//35ZvQgc0FYZ0RYi+mC2VatWTdArHhgbIOAAjjvuuEPu+WMLESFhIkC8UCAoOpfQnOlXv359MTdY8W0T54svvhD8aoIRVYNxn3/+eYlcEUFEuxA8AZivCiFBCdqjBYlWInyTJk2SdvyhD30Rbhswg9auXSuCumbNGgk62I4+vhIBDgDawZzgoS1RPUxQgDaq/TGjPv30U4Npjk+Gb0TbEydOSFt7zDfffFMWE7QUdMXnK1++vLTz0zscfkxAxsE/5vcrNKRf4OEL25QXBFH8c8mFSH+7sH88hciYW6x+CjA/PgA+E8yPf0EIWZmcdgQIhg4dql3kZUNg2igeDekSOmYcmFChatWqHnPAsGgKjZ4xF/2dSMdKaM6MS/AEPJioNmBKMv7nn3/uFRNRYqGgPX7O+++/L3UEP3hu9V8404YDhn399de9MbiAwXPlyhWi1SiHsTAv6YeQ4TvY9COSR/gcIHxO0Ia2+Bys9MwDwAfFsQeIyoFL54MJrUEb6u0xWUTwm3QORBnV7/LTOxx+hIjf1hQfmpQgicJPP/0kdMXKiRVcciHiQYOiOUEOLG0JYRL5CqrnJfl/LbcZ3Y/Hfw+T2OPamoNyZaKLnTNz8M+LMTBv/A4w7YJ+zbefg74sKnzZEARoZnuudhueGe1iPxv1mFZoNJjXBjRKUOjcHl/fiWp57R9uTJ7F35Y+/jlRFoSfcvr7v9agnHA/v4uplUBZtCFZCFG0HzK5jo+/FusXHo4WmGF+jRau7X8tj8aYCeG+9957vd/FEmqbVPVOiJKKkokYB+1GeFd/K0rEEK6LjwLTpk0zmHSxBCdEsaS2w5UiKeCEKEW+VvdQsaSAE6JYUtvhSpEUcEKUIl+re6hYUsAJUSyp7XBdEgroFynRQp5kqRD/9bNx1y5pUk8cHZMPHZ0mitby5MZNNhSIuiZKNk/qJuIoECUKOCGKEmHdsKmHAk6IUs+7jsmTkmpBJun8+fPjfBPHBMj7oo7Dznzl+zjqli9f7s2TL7i1LWc+HNZvBPmuj49v7Q9c6cgHveyxYH/bxnd49A9idlJa/N/Z0Zd8qh07dnhz4SIczqBxQzpGeON8oggJeDl1h1lJ/SCPKihrlg9XSSMgc5aDjzkBPlqlX+/evSVTVvd94Ctz8p04+JKar7n5lIkUDPaSINW/ZMmS8sEr44CXr9nZH4Fv3BA4xmZTF9IbSNgj/QTgI1W+KOdr9sWLF0sZf9atWye7PIGTHCpSSoBwOKlzQiQkcn+SggIkyul+FIwHo9sJcaTx60YqNj7SClRwYHwSLO3kQdqyl4SmarD9mabBDxs2TISJ7F5STRRImiONAq1kp4kgGKSrsHkJ8yV71xYiUtE1W5e8Kr6EB4JwKi4nREoJd46YAiT62dmqpKjzwabC999/LzlGbKbC5ieaFsJuSvZOSwgDSXQKquFI9wbIQ9K+5BbxNTft7S3E2JiFcUlnIK+IREvMwxIlSuiwcvYLEWPp7kCkTpBDFg6nDuSESCnhzhFTgKQ8e2cdTCjdSJLBScNncxO0CppHNQf5R2Sgsp8f+yGQ0GdvusheEv369fPmx248pLuT6UrmLHtFAKT841OxixD7Lbz22msibE2bNpU9+EgwRHPZ4BciBLxFixbi/4CTBD8gHE7qnBDZFHXXEVGA7cTsnXXwY0jtDgek5Ou2WaTXk9Has2dP0Si6DRd9Mak0HZx7AgGkkpPFil+l23shhJiTmG/sZsueGZhsTz75pPhHJP+hleykRL8QofXwxdjIZvTo0eJPxYeTOidEUMFBklCAVHT2cFBg/wcVEspI1VZTiXv8I8oIONg5TzC6ZgXjIxE8sEFT8ClDq6FxADX3uEaboM3QPAQxFMj0Jf1ewS9EROY00xYT8IEHHpCm4XBS6YRIqenOEVMAxkcACD2ziuu2UoSL8V0wv2677TbZEJ4sV93khTAzG4cQCICp0UYKBCbYDtgGBAEfCtOPyBt+D4EIzDm2P8OEZN87gBA4+zUQvGCzFQIL+FMILwEEthpDq2m4Hc3GhpZoRvbcxncDgnBKhRMiJYM7JxUFEBQEBKde/9sDm7bohiz89kI9TI3ppEAbNtjX7cm0nN1HlcG1DI2DoLBRo+5WRB2BCw2dK27KETI0Ev6Oait2JXrnnXe8A78LQPMh9Jii7OGgEA4n9U4TKZXc2VEgkRRwQpRIwrlujgJKgagLEQjc4WjgeCDxPOA++9Hlyp1TLAWirolSLOXcgzkK/J8CTogcKzgKREgBJ0QREtB1dxRwQuR4wFEgQgo4IYqQgK67o4ATIscDjgIRUsAJUYQEdN0dBaItRP8DFyONroXhBeIAAAAASUVORK5CYII=;" vertex="1" parent="M1Kj_39iP2AGimqlnrWc-1">
          <mxGeometry x="-559" y="1782" width="209" height="52" as="geometry" />
        </mxCell>
        <mxCell id="tBodU4Q1IQQOX9P65XnI-178" value="" style="shape=image;verticalLabelPosition=bottom;labelBackgroundColor=#ffffff;verticalAlign=top;aspect=fixed;imageAspect=0;image=data:image/png,iVBORw0KGgoAAAANSUhEUgAAApoAAAC2CAYAAAB5/S2bAAAgAElEQVR4Ae3dh7csRbUG8Pc/iQoqICBPMihZMkjOOeeco0jOSM6Sc46CknMQJQiKkWDqt3793GOdvt1zZk66M+fuvVaf6dNdqb+qrvpq713V/1OlJAKJQCKQCCQCiUAikAgkArOAwP/MQpqZZCKQCCQCiUAikAgkAolAIlAl0cxGkAgkAolAIpAIJAKJQCIwKwgk0ZwVWDPRRCARSAQSgUQgEUgEEoEkmtkGEoFEIBFIBBKBRCARSARmBYEkmrMCayaaCCQCiUAikAgkAolAIpBEM9tAIpAIJAKJQCKQCEwJgaOOOqr62te+lsccYLDccstNqY4WdqQkmgu7BjL/RCARSAQSgURgDBH497//XW2xxRbVu+++W7333nt5zDIG77///hi2kipXnY9lrWWhE4FEIBFIBBKBhYzAyy+/XB133HELuRSZ/agjkBrNUa+hLF8ikAgkAolAIjCCCPzkJz+pnn766REsWRZplBBIojlKtZFlSQQSgUQgEUgExgQBZvN//vOfY1LaLObCQiCJ5sJCPvNNBBKBRCARSATGFIF33nmnOvjgg8e09FnsuUQgieZcop15JQKJQCKQCCQC8wCB888/v3rggQfmwZPkI8w2Akk0ZxvhRTz9f/3rX9WJJ55Yffjhh4s4Evn4iUAikAjMHwS23HLL6osvvpj2A0njiCOOmJG0pl2YKSRw6623Vo5h5ec//3n12muvDRutDn/44YdXH3300ZTiLoxII0U0r7zyyuqUU06pTjrppOrkk0+ufve7303AxPYJp512WvXTn/60Ovvss6szzzyzeuGFFyaEiX8Qm7POOqvaeeedKy/E6quvXhOeN998M4JM+P3qq6+q008/vTr11FPrMshfXpyd5XXHHXdUf/zjHyfEiX9+8YtfVMcff3ydvrLffPPNcav194MPPqifT1jH5Zdf3hqu38ULL7ywLusZZ5xRl1HZYfe3v/2tF+2vf/1rHcazyOe8887r3YsTM1JpeEaH5/3zn/9cvzhxHd6wuOuuuyJa/fviiy/W6Ysj7DnnnDPhvn+sSLz00ksXuJ4XEoFEIBFIBMYTAePrnnvuOe3CU0TstNNO1YMPPtiZ1scff1wJN6rCR3WTTTap7r///qGK+OMf/7j68ssvh4oTgZ9//vlqnXXWqf70pz/FpZH+HSmi+dhjj1VXX311b+NXpK8URA+pWXLJJWviiDh98sknZZC6Qf7sZz+rvve979UkKO4jXcjWYostVplJNEWFI1L77LNPnf8222xTky3XEKXNNtusWmKJJVpnLnxVbrnllmqVVVapvvWtb1Xrr79+M/kJ/++99951Hquttlqd3q9+9asJ9wf555FHHqkuuuiiOp1lllmmuuGGG6r77ruvsq9ZCNJ57733VocddlgP02effTZu17+vv/56pTxwQchvuumm2rn7qaeeqsmljXiXWmqp6rrrrqveeuutCXF/+9vfVltttVWNC6L75JNPTrjvxfvRj3400p3EhALnP4lAIpAIJAKTImCMnYoWr5mwMcz40xTjtXERB/j2t79d/f73v28GGan/aSa/+93vVsbEQUT46fq3UuLsscceg2S30MOMFNGExkMPPVTtt99+1eKLL14hUG2q+Q022GABgimuWc9BBx1Ux+tSSe+44441cfrDH/7QCj4zL3LV9D1B4FZaaaXqm9/8ZkUj2RR5I4477LBDnX7zfvzv5TzyyCPrPGgBpyMPP/xwnc6BBx7YNxn5wcVz7bXXXguEpTneaKONFrgOewTUC9Ql0kZymwKPNdZYo3r88cebt/L/RCARSAQSgTFGYNttt522No3iyNjym9/8ZgISNJhrr712teuuu1brrbdePW6NOtH0AMZhiqpBBM944oknBgnaGeazzz6rvvOd7yyg4OmMsBBvjBzRZOalRt9///3rBnb99ddPgOfzzz+vVcYTLv7nH3ERI5rRLrntttvqdC+++OLWIBtvvHH19a9/vTYfNwP88Ic/rOM2SahwiC1TwtFHH12H0Qia4prGyMSM9DU1gM3wk/1vtiedyWaWXlbm8OWXX776xje+sYBvB60ns3ubiCMPM8ymcFvYeuutJ2hRIwxtJmJealjjHhymYwrRBv7yl79EcpWOievDdGUq23TQZg8jNOfKG9LljhH3y982LMv7pdtEeX2Y87fffrsXvFlHXW4nvQiNkzfeeKNxZbh///GPfwwVocS1GXGyuoXdp59+OiFaWEMmXGz5x7sRdeM9G1b6lXvYtKYbfibr/9e//vWUTYOeYybrf5D0lLcUZsm///3v5aXWc3XOrWsmRJ7akrYYbWqydLVdfWIprg2qXSvjDXJOSUNhM12hzURY+8khhxxSjz/jQDRtXo87TFZW7ZrVs9m/9sOh657Pf+6+++5dt0fm+sgRTZo1Ly4Sg+Csu+66E8BCzpC5prgufJvGrgz76KOP1uHa1PVeThrLNu0ex1uNiNm+jRxcccUV1VVXXVUhsMrx0ksvldnW58rt5UfOmOGn6p8RCSunvPoNVLSVTOKE24HwTU3qCSecUDHFtwniLU7TbB5+KV1Ey8zu0EMPbUuyNomoV4MawuizWuVxzz339J3tMe97pnhRL7vssurYY4/t5RXXexcGPOFaIa1hhH/RjTfe2IvSpoHv3ayq6s4776x+8IMf9Hxp991339a2UsaJc22WryzfY/hyHeFEb3bs3KSgX1uIdPr9mhzEoMm0o7zklVdeqd1Chhm8PGdXu2qWwbun8y0naNw1JtPWRzreSbP7UjuiH4kJCO1/P1OV+8pbkhsTyzZtfeQZv9xmoq2bbHJhgROfc/2NibP22UVaTDxLP21myeeee64+WHi6JsWR/0z+zmT986FHFAaR6da/PJAW/XAp5aCvPtv6buH1GVyE+J2HKP92220X/3b+cj+Stram/cizPBCqshyRkLLcfffd8W/9e8wxx9Tvs/pnFu1qM2Uk7XzDDTec4OdonYDxIdp/GX66596Ja665ZrrJ1O/7ZG17nIgmQPQhxqd+4p2mFJsJsT6Ea8Fs1PNMlC/SGCmiaTaH2IQEyXnmmWfiUr0AqLkoxc0gXZNpCb2AiNNuu+3WSzNOmHnda/qG6oQQAhVq4GgTAwwypuOQRrOMysXXU4NAMoP8taU1yDUEDfFlnu4nt99+e73IRxgkBJHmv1o2TNi1aSzFQW48T/O5ETKLh7pk5ZVXrol3876ZOlKJdF9wwQW1G4JtMgy0SI0B36DdtnAp0jKgCK+zc+iQ1Y9zpNn9kjBEPNrsiGNSYFZeDgBIXD+ndC4TwtAgx4FA7LLLLvX/fH+5T/Qjq9pJ2RHpdMq20E/zxpSEBNIo8I0l5557bo2Zc5hPV3SUIepJmzcgcpFQ1kG1LNJg/iqd1Q2aZbuLfPy6TvNeCpwsegtpLg6M6361czN74c3yvcPKjHgoMzMVP+I28S5Z8MYvmRbT+w5npCvKiwi1CYwQCe3A+69NWRHq/dcOpUPT0ea3LR/t1MIK7Uo/Jzwnf3Ec+ivWnS5BaD2nfLfffvs6T/7lJrPyR5SGcV+ZyfrXP5gslNKF43TrX7omWixg6pKrkPwPOOCA3oQeGWsT9U9bD0fvX/QJ6izGnq5yS0+9x3hioqTd6svKo8uVi6uVflA9GiNWXHHFnmuWulMWZKLL1QvJ9I4ppzbv3GECbNKlDWmb2tpMif6uTduvDvXL2qLnUn5tUFvUJp1r5wSexq/JzMcLk2iqMxPd8t0qn8XzNa08Jv79JrSe3ZjabA/6APlYVKQf0q/oy4wXrjfH36hLfSo+YWIyyjJSRNMgXzJ9gzmSA+yQzTffvNcRxDUzSuH4e/QbqIUPH0wvX1O8BNKxeEYHiRgyKRswdVxN00rE9xILY0CjyZSGwSeE5lLjUjYdgvu0UtMRg750QpPSlZaGH52lMAiZeLEyXsdooVOXeH7hywHDS6HTjkG4GVfHLU6bNktZEFsdTcT3wirPqquuWs/g4V6SsTJ9HS9tqLg6Z79IqfBeOkS2SwtA+6oTdl9bs+qv7IAREROFLi2W+tdZIl79Dp1/m3hmz6gctKAOeSHHzmmcDW7K2CY6HO2XpoVGE47aZewosOyyy07a/tvSdQ0eBgnvkHfDAE2zptN0XV5wbmodIz3uJCYM4jh0kgZ+7TyuIYLe5RLziI9wNYmm9z+IpvbOmtDs2CO+dGNRnfZEA0sQN/VsEO8imoidXSOU0+I1bV1foLyumTjwF2/zzf7lL39ZD/AGJHkYiMRHNMOk5X1oe8dg7v0y0bAI0uGdQfYCM21D2drEYAVjA7/dNbQtpFQdSVMd6h8MWpPJdOsfztqHtqLsfpVBueJZtG+7f7SVZ7r1D2/vBkE2y7pWDmTQIN4mxhz1h5jCyzuuH4dnlF37NzktRd+jnXE9MvHT/od1F1GH8jBesORoZ/7XByq3c1pObaNN9HsmuN4Vv96ROPcbx0xthUMhoY03BRbKu+mmm9ZjjOfQFk2OTYCd60vs3kJinGxrC2XaC4toUnhQyFBieC59k2egSNCmtRfKEuNAKerNGpIuMTaUyrQIxxKrLcDrf//3f2tyGeOIMdt73tZvir/mmmvWCpRIaxR/R4poGjBLcoIQADj8Cg3UBoKmMFEhNgbiycSgIqyXuikagLx0HMxfXgpaAqvJdaRdonPRGAjiJn2z4xAdrJklMfC6b9YyHdE5SkdH0k8MOjqBEAOjeDG796xlpxzh4jew9QwhZu8leY3r8avzkEeb+4D8deY6yBhckXSDlM4aKTDD7yKaSJYXS9swmOmEESN4+F976SJqCF6YanQSXAhoAS655JK6QzfAIG4GDCS2Ka7RFBi0CNJbaq5pjD0bYtEmBirmOeG4DWjPcbz77rs12fR/W4cib9rLwMyzmsl6Htf8r677tdO2MsU1ZTaBYH4OobUwOfJeuddPtDFkISQmNAb/rvqIsH7lE0RTOlxntG1E07vjvW2aGSO+Z9beYrKBcMNapy0NkzzfY266jER8uIUoNw2SuFEPJoqlpi/Cxq82QIODFOifDBjKZELkmvbURjTFD41TpAVHBAehdtDUthFN7d+7Eq4CyJX3hlhMWZqAI+1+v9Otf2lruyH6FXWC7OpLJ5Pp1L+0tQ99NfH8+gS40W7GwN5FNPUB4dev3N4pBKMkQciFei1F+xAP7upXuxE/6i5+9YMIU5fVSJ3rv6Sh7ok2h9ySrnju6Uvg69D+EaH4X9v3icg27WOd8BT+GBP1l01Rfi4kxPseZMsE0WSpKcZ57aPfs4mzMIgmZYWxKEik9hF8QZ30688oDoxBXWIS2sTPOKKPIvpAfKN8l7Rj2t+yfy3T167L8bm8NyrnI0U0AVYCDCTEQoMEJPWxJf1NCU1k270yrBdfWmYMJfkSRoNHMqNTinhmFa6HqTKul7/IWKnxM6ukVSG0rRpqiNnRTPhnepE9i46mS5gakaemGFjFpQFC1PqZ1izqEdYMjujEvPz9xCAnTtvsXp40xjpkaemkmRqZUHSUOusujaYXUhuJZ0ImonOL8nQNJnGf5hQx41PFn1I5orNDuGl2usSgTntEexcEU7uIjhwpQJqbbUt6nPURgyBTBp/ovNzXIRskmu0/ymJQg6fnhSHtBTJkPzXk3cCqvhGQqQpTn3oz4TNh8r+BRXuBNdI4iCZeHYoDC4Ozsk0mnm+FFVaoiZlJhzjeKyRXe+nXuWs/2oR8g5zCmxkS4Qui2TWhikFRGRFNbV07CCy1D8/SJdpC7CGLWHlmk5qwxHRpNKWnLpEYzwzfa6+9tjYz0o46TCDaiKa45cDDNKktEO40/dwM6kAtf2aq/oOY09LoF2HaXKzSzH469U/7pJ1oM8iBdxI2CKd6jD4hfpt5m4CURFN8LjYl0URiy4VSZRrGne9///s1uTdGRd1pz+X/XXXCmsFCoS+SjskJDaf2q39EorsmkNqoctFYItXGSeflEe2iLPNUz71LJS6RTtkWPU+MxfqLJrESx3uqr4l3LNJp/gbRRP4mE3XvnRv00F+0CctkPI9z5J/rgrL224FFWsaWcrLeTN/4H+NF3JOusuvjEMomaTQBaa5Vibh+9bWhzS+vj9L5yBBNILfN+hEpfoVmCTpc5KQpBhCN1ovWT0LLYtBsSpiiS1IoDDKi8vlrdQkTmYElRKPQ2es8vZhBHnTAM+GfifwqUz8ti7LwSTSANUVHAC+DokbabxCgcREWSTLgCo+E9JMwizQ1AOIE0dT5OGBFg6BOEC0DQxfRZNpCtoLEG5TVqY45jtAC9CsfbQUzCNG5G6TJZETTcxkQ1CscEF8atyDhtNgwbxMDB0IYExlp0CpHhxZm57a45TWuI7Ci3YsDQSj9Ccvww5wzbWmfOi0TPFh7/+DDROh5Y5bfla7nUgfiwsh7Ld2uDytEOoFp/O/XYDQZSTWgImMmm6wEOnLE1ADv3XM/iGY/jaYJiEP9vPrqqzVZ8NzKpb23WVKirG0aTW1f2yT9iKZyMi2yEOgfkDP5E/XsHe/S7teBqqrWvjNVKivNoL5BXQ0rM1H/8vSeas8ORNM73exXm2Wbav1LR90jU9qKQdqkAxlC1GAaBDN+m3lr6zRy6j8sHSaLJhfRryOfXa5T6k9b0ecLo91q9+pOf9ePTMlH24p+IyY0yj1ZX4Yo6Tv1fd4B+cMi+kK/cFeOyd4/mDQn7U2clFX/M5kIo86Jd0DZmuJ5jSues58E0WySs6442v2gR/S9XWm5btIQ7z6yzyLVT1gWKLLaRNvoZ3UNpU7pt+q5vc9dk2T56LMm4z5t5ZnLayNDNA34XZ2RwV2jNAh6gZuio3c/Bvzmff/TQtn6iPZAp9YUg6s0StO9MExurpdajzKutGjHzHxCmJbtA6oTMJCEaLTSGkQrFHHafr3E0uF/2U+YcdtmbV5u5kVlRCD7SbgC6EzNUnXGkwlfNuVrM68H0YSN8pkteoFNJGLHgC6iyWSNtJdEE5YIYBxdg0mUWX3pCHW+CLbORt4mFJMRTXUZs03tRd5M2nx51D//JAN9mwQW5eBB4xIDDO3kIJ0pIiVvE4g4aNOQuumIzpmJi1uCAQXWsHLoHD2nZzNohO9QW34GbXVLgmhyC5Cud7xL5NN8htBOdsUprxtgkQWEQ7uCk/y0RRqOfqZzdYIMOoQNc7R3XtmR7bZJsPy1R0QQiRUfqVU/8hbHYN9lOtdmlEu78iuuSaDzOLQLafQT7dbkidD8ePfaJnn90pip+kdo+PCpzyCanhMRU0ddxGK69W9CjJTIE57q37hBDMTS7+obDNLqS/2VbY42kbsK8W63WY8oKDyXPt9EUvtj0fKrj6FtVI62fkFfiFhyuwhpI5rIej9lgLhMtm1ko228jLzKX5N242OX1lVY405o7su45TkLHsVQKFei3sswzmPh7WR9XhDNfuVqpj2T/+sPgpdYcOPd6rezCI0mDXSbGC+iv2+7b3yFXVnX+lt56o9hFb7nZXxEuLnbQnl/FM5HhmiaScYsqAmMFxjYMbNo3jcwIntmG20aF7NbKm8DZlmJZToah5lDmFHjXlS0F4YYZEvyyEysMZbC9Ki8XpJSDAiuG0TaxEuqjF04RJwgxTrFfmKGC5s2ibK0dU7N8DpO2NAUlIS6GS7+16lbrdxWviCaBkKdMLIknC8qIbEWXnQRTek3iSbiJ804ugaTKJsOlRaS9tGgRJBUMhnR1OHHM2kDNGfEdYS+zURUByj+hG+sSwiZtgKvfjPdIno9gE6FaMLNYFguUivTVZbQwkTZXKNVW2uttWpS7dwB66ZoFzpkZdMhIi7eKUTNDB0RW3rppesFMu41ZRCiYRKI8LaJwT4mVbRQ8ja40yJwd/DOdWk0S/JPAxOaK+l4LhOheP+beRs4EE3vhr5Ce6QZ0jZiUEFguoiqMmt/3n2HyQey6dx1xI3LT5eoV9pMpl6i7PqYNi2osvFBbvZx4k23/qVhIo00Kbs6hrf2ps68WzCwGCjqqS7wf/5Mt/6bvq6IYfipmsDoB7v6BriUpnMEk+jrgwhJo21sQQ60ExMCYrIcu04gmvI1AerSzOt/S/IWpnP1wUqhTemv2jCrM6yqWntL44oUm5TIz7n+zfV4hgjf/FVvJsvajbbXJcYzlop+IkypvEDyQzFQxtMm5Bd1VN4rzxcm0TThNO7Bh+jzlbnfCm/tnDKrKfoRblNd/EN41r2mxli/EpMPbSjKUqa/3HLLLfCBmfL+KJwvdKLJB8wCC0weWTQjaBODgUG5SxAXvhEqK7SS2L/K0RF7+ZqzSiYNxMPLHl/A8aKWRDAaV7w8ysBUqfOXto4BEbOlSrzQnsGLG1tSII46H6YcDVXHEj5+5fPoXNxn0m4TJAcxo5oXTv7KX5oADDw6Jh2jZ/KSt3VSTIp8T8tnbcvTNYM2bXKXn1BbPBoFL11TTBp0xiYNzNewRLL8Mp2r535E0yAZHZdnH8Z0rlNjHjSoIUsc5UuZjGgqZ2i7pFFqCww4CEUXsY98Sq1dkGPlMqAMInClDTDDjcPAXqbblk5oELSbNu1AfJoUEWgKvNtWXEc4WBisaW3VL19V9UkLjoQ7pzFCnFgd2jRD3k3PYNGR90B6MSmIfELbF/+Xv0hutHPvT8z81QlTtHbe1h6lUU5gtadmO1duJL1L9GHarXeKNs//6ikIXT+iKYyya/P6HmTMe+0cWXXeT7Qbg2Fgqv2ZtDUnv/o6faz6b7NKTKf+lY/ZT73RqCK56pwmj3bZuQMJVv+laTCebbr1XxJNeTHfh2gXBvouoqldlEQzJqAR3y/LS9nPuoZMe/dMpkxmjEGInfeBBNH07hgj2gQeJm8hQSoGMZ2LQ4kC5xh7XDPWlcqQSLvtNybuMNI2mu0m4qifLvwijDaojWnLIfp4ljP5lKI+jGNtbRF+3n0+2ia5ymUCCyf1PFdi/QLuEK4PMYnr6keUCzEMLXhZTuTU2NMl+gHvcTOuCa5xB1+AJdxKMR7Bp6z/8v6onC90omkgovbVsdIIhcaoCZCZfXMAaIYBtoZrsDAzsEjAookuLQiiIN/IHxnUWYaZU/oq1gDnBTRr1Yl5EfiDKa+O3iFezHjlV856PJM8HMJ6EaXTFC+j8rY5PsvTi1amE/mXjU/nF88U5WrTQMlb452MGAlH+1d2Hs1yt/2vs27OzoTToRlAlZPGwEsbplgaTuRPfnBoE2G9zERn1PQr0hlqJ81BQScorxgEYBaTGoOscjE/MoW1ibal49HRmciUh4mEtuGaZ+5avCFdA4l2p47jQKqQGf8jHf00WAgM7VWsLPVrUVEQzS5fLM+N7NE4hQ9g23O2+SIjT0Gw2+J4HvXZFBOUyfx5I05oOBAtZkeiTgzWzILeQabscK+IePFrmyBkmvm/7EM8t7pDfrs0mvLwzjiQTu2QWGTiPWVtkX6baGvIVGgqkH99RbQB/+tPYqLalkZ5DbFsTv6a/5fhtZvmYO29byMawpoQdWm1pTuV+hcvfBnLsplQh6a1vN52Pt36N1nTb3gXacHiPZeXtqkdUkK0iXeOG5L6V5dBUpE4bU97itXgbfHVMWWJPs+74H94lItOvXttot8wBoZYQKTNydPE2zkyGu0pwvn1njDHNvvwJtGESTlGlGk411fCiwsRQhzEqgxHkwanfuIdoAiJCZawUca2eLTr8G6KsmijxmNk07inTRvvusayZhoz8T/cmu+RPsR71CbqHqlu64O1zX7vsbjIdCinIn2TFOOD96jN7QQuscA04ozi70InmqMISpZp+ggYOLx0oWmJFBH0tu0u3A9trM6ui6AYNJABplKDJgIQJMGvQd4Mn1N2KdLu6mxp+AzwTBAxWSjjOpceImjwiUkPktF2hOm1mYb/dQowCE2fgaR5hHYp4sOQxtyggmjpeMI/069ZMJJsILA6tp9/noGNhq1LaOjLQVo45NZzDissFM3675eGjr2ZN00TkulAFtsIrTQNxOqwSdINwiZJ3GrC0tEsg/YSYlCLNmDg1Pkb8Ns0utJmPSjLbCJiQAwxMJpctBEuEz2kpmy/Bl4WlrimfmmUy8lvpD2VXxPVtgWVkdZM1j9/XQPhoDKd+jex1/bDXaHM04TBJAUBbRMEMd4Z716pcTXx5M9eTl6aadBqln6WiKbJsPdmMtHPxfuoHXlnYgJa/ra1e/kQ5dcOo83oE6NdUYAgdCZtk0mYqdvMs96tmABOls6g9+Wjz20jtoOmMUrhEOPSDSfK5vmMWWU/Efem82s8o/EtJyrTSW824ybRnE10F/G0aQmas2CD82QvXGg42+BjwmGinA0pZ+LN9Jtag+b9Qf/v50g+aBpTDYf8x6KRrjTaCFVzlt0Vt3ndQNhF7pthp/t/aBS70unXprriuK78k7XXMj7NRFNmqu000x32f8+B/PTDaibrX3vrl9ew5e8XfrJ+xURzmHos89Ln9BN5S78U73nTqlLe7zqfK7za8reLBTNs00XNO7DxxhvP+LssXe2xzZ+4rXyjfE29maSZ1DTFBMqka6aFgsIkeFT6l37Pl0SzHzp5b1oImKnT4MXMe1qJZeRpI0Cb2WbinHbCmcBYIEDz1TSzj0XBs5BzgoDJGB9LO0SUQpNJozkbYjJC499lwZqNPGcjTQoVLg5tUi4wbLs/lWsmNtw52rTPU0lvtuMk0ZxthBfx9JmaOTSHeWgRh2OhPv7C1JYs1AfPzGsEsv6zIUyGAA0jrWbpk41EzSahsYDQYrvJNMeTlX1h3eeWwG2jzYeSZrt0q5ipMnKx4U40LpJEc1xqaozLyb8oieYYV2AWPRFIBBYJBPh0Ipp8lUP67Q8cYab7y2VjXH01KVO6ys5do82/drp4xYLF6aYzV/GTaM4V0plPIpAIJAKJQCIwwghwc0I0Y19f+2Z2LaIa4cfIoo0YAkk0R6xCsjiJQCKQCCQCiQ+aqYIAACAASURBVMDCQoDvn71YmX1tUWUxS0oiMB0EkmhOB72MmwgkAolAIpAIzCMELPyh1bSC2r7G47CqeR7BPy8fJYnmvKzWfKhEIBFIBBKBRGB4BOw3G+bzco/Z4VPKGInA/yOQRDNbQiKQCCQCiUAikAjUCDCZ++QwsmmvxpREYLoIJNGcLoIZPxFIBBKBRCARmEcIWAyEbPb7iMU8etx8lFlGIInmLAOcyScCiUAikAgkAuOEgM9Z7rzzzuNU5CzrCCOQRHOEKyeLlggkAolAIpAIzDUCvtRTbto+1/lnfvMLgSSa86s+82kSgUQgEUgEEoFEIBEYGQSSaI5MVWRBEoFEIBFIBBKBRCARmF8IJNGcX/WZT5MIJAKJQCKQCCQCicDIIJBEc2SqIguSCCQCiUAikAgkAonA/EIgieb8qs98mkQgEUgEEoFEIBFIBEYGgSSaI1MVWZBEIBFIBBKBRCARSATmFwJJNOdXfebTJAKJQCKQCCQCiUAiMDIIJNEcmarIgiQCiUAikAgkAolAIjC/EEiiOb/qM58mEUgEEoFEIBFIBBKBkUEgiebIVEUWJBFIBBKBRCARSAQSgfmFQBLN+VWf+TSJQCKQCCQCiUAikAiMDAJJNEemKrIgiUAikAgkAolAIpAIzC8EkmjOr/rMp0kEEoFEIBFIBBKBRGBkEEiiOTJVkQVJBBKBRCARSAQSgURgfiGQRHN+1Wc+TSKQCCQCiUAikAgkAiODQBLNkamKLEgikAgkAolAIpAIJALzC4EkmvOrPvNpEoFEIBFIBBKBRCARGBkEkmiOTFVkQRKBRCARSAQSgUQgEZhfCCTRnF/1mU+TCCQCiUAikAgkAonAyCCQRHNkqiILkggkAk0Efvvb31ZHHnlk9fHHHzdv5f+JQCKQCCQCY4BAEs0xqKQsYiKwKCJw9913V0sttVS16667Vn//+9/nBII777yz+vTTT+ckr8wkEUgEEoFFAYEkmotCLeczJgJjhsAll1xSLbbYYtXBBx9c/etf/5qT0v/73/+uNttss+of//jHAvkhuu6nJAKJQCKQCAyHQBLN4fDK0IlAIjDLCNx6663V1772tWqTTTap/vnPf85ybv9N/le/+lV1zDHH/PdCVVVvvfVWdfTRR1drrLFGteqqq1bnnntumvEnIJT/JAKJQCLQH4Ekmv3xybuJQCIwhwj88Y9/rJZeeulam/nSSy/NYc5V7Qv6y1/+spcnkrnxxhtXH374YX3tqaeeqlZcccVqySWXrN55551euDxJBBKBRCAR6EYgiWY3NnknEUgE5hiBc845p9Zmbr311nOa81dffVVtsMEGE8zjhx9+ePWDH/ygeuGFF3pluemmm+ry7bHHHr1rebIgAoh4P5eHv/3tbwtG+s+V3//+99Vrr7024T5t8yeffDLh2jD/mMBYWDaMvPfee5V2MYwou7y6pN9zi/Pyyy93RR3ouvxLMXHqVw8RVpjPP/88/u39wuwPf/hD9dlnn/Wu5UkiMCwCSTSHRSzDJwKJwKwhsNpqq9VE7tprr521PNoStvDozDPPnHBrv/32q8ty/vnn967/+te/rq8tv/zyvWvz/aSNOL3//vt9H3ujjTaqLrroouqjjz6q/vznP9ca4JJE/ehHP6refPPN1jSQSprk0m1i/fXXr3bffffW8HFRPg8++GB9WNR1/PHH9yYOZ599drX66qtH0IF+TTROO+20gcJGIL7Fe+21V+UZlOdPf/pTdf/998ft6qc//Wl14YUX9v5vntDmw/bLL7+snn322ZokIoEOz/S73/2uGaX3P3K+wgorVEE2Ecdll122ev755+sw/QgnMsk1pEk277nnnuqwww6rDj300OonP/lJL688SQSGQSCJ5jBoZdhEIBGYNQRsYcQ309HUaA2SaQzGfCr32Wef6o477qi++OKLQaLWK9vffffdCWEN6jfffHNVaqFeeeWVunyIz3wU5A4ZQhIvv/zy+kB+EC7bTLl26aWX1u4D4VLQxIEWjH+tyYI4MAyicsMNN9SaRUSyS7hMHHDAAb3bMN9iiy2qK6+8snrggQd615sn6v/222+vidUtt9xS5ymMxV1rr712dfXVV1ePPvpoM9qE/2kw46BV/8UvftH73/Wrrrqq+vnPfz4hTvmPxWTKTzvuuYWXN7cLeZu0IMNdQoNOaBC5aXjm8njyySe7olb77rtvnYf3CFG9/vrrK4Rene2///7VQQcd1Bn3r3/9a11nzQDwRow9+7bbbrsAEW2Gz/8TgTYEkmi2oZLXEoFEYM4RMEAH0Rx230wama222qpCDgzqNEk0S+utt1496HoYpKdNxEUQBpGzzjqrLuMVV1wxSPCxDINUhPBT3XTTTet/L7744vrXtR122CGCLPB76qmnVjTE3AyQ/e22264mOzRytqpiVkdEm6LOkCOaM0TUZAFhFEfbsPIfwadlK7WdZTqI7HHHHVdZUHbZZZfVt5T7uuuuq7WC2kg5cSjj0uapX+QQKbW1FrIsbnkoY5t2UBn33nvvOn3aV8+BqO255551eSwkayOaNMann356RRu63HLL1e30jDPOaMWoLG95Lm9xyE477VSdcsopNdml3VRW74UwXQIT9UwTKy7sEFTazKg/C+UQ+ZREYFgEkmgOi1iGTwQSgVlB4Omnn+4RzTZzbVemNFaI4oYbbjghCEKDuCIOb7zxRnXggQdOuB//hMYo/u/6RX5p93bcccdWotEVb9yuIySIFUGOLrjggvqcppMgcQhZm6i3JZZYotaCBdFE9hFARBPpgmMb0ZQe0o/g0M4hfscee2x122239bJCcpnlafvKhVsRQBlpDBE6hBRxkmcQQ2VnQr/33nsjSuuveIjuMLLLLrvURBhpQzSRNBpR+Xt2z9VGNOUR5aP9JNJYZZVVasKL9DpoJdvIIk38lltuWdF2Cgc7ZdHemc1pp9Wje2+//fYCj4RMI6kw3W233WoNKi2y+nOccMIJtcn+xRdfXCBuXkgEBkEgieYgKGWYRCARmHUEaCJDo8m/bVChXRSvTdvyzW9+sx5w+du1DdLy2HzzzWuC0y8/2jTmWwP4oOb4fumN+j1aQCSD6TX8MZnP//KXv9RbQD388MOtj4DQ0HzdeOONPY0m7eSgRFOiSJqV/X6Zn0sNGxKFJD7yyCM9/8uyIEzufD+5Tzz22GN1WWhYPQ+iRxPLjG8xV6m5LdNw7lnvu+++5uXWPVYFev3116sTTzyxTr8kmhaSDUI0IyN+kjSbyDJCbRIVB9O1BUpN0a632WabenIgDlKLVGqv8jcB80ubi0C2SWg03TOxcMjPJAzm6m9QrX9b+nlt0UYgieaiXf/59InAyCBA+xNEE6EZVJhTv/GNb7SaRJki7YGJaLYJrSfTbD+xUTv/NgSly2TbL/443qNhQ15KcsHH8JprrqlX4iMmbYKQMC2XRJO2zXVm9Mk0msifhVbIDdIUJFd6hF8oAtqWP0KmrmkNd95557qcCCkpfRtpuEODWN9s/FGGlVZaqU4HOUX8+KXSrsKjjaAy8dPGIrJBNA855JDa1xipnUyjya8VUWWuRyal0dT6In79XEpOPvnket9Xj8NkHu1aPAL7Lr9a+ZUuEuqaRpSVgdmdFv/xxx9vIJX/JgKDIZBEczCcMlQikAjMMgJTJZq0X2FybBYRYUA2kYA2YTK866672m71rtGo0YqVXwYy8M5nQdoQHeZUbgeEVnfllVfuu6hEuCCayCWNJPLl3CIaZMdK9CaJCiyRQGSWZhJZEkfdIY+IDjN6lwuENMp6loc4zOVIHK0jQrfMMsv0VmZHvuUvbSDXgSCUiNogWyuZHHlWv8gwM7RnRXoRTWS1zXSuzHD2rNGOEb8f/vCH9eIepM/BBeGDDz4oi1qfqxcTKeQcfrS3TP/SQpQRfb/rrLNOj7g3EymJpjJKL4i+92e+Ln5r4pD/zw4CSTRnB9dMNRFIBIZEoCSaw5jO11prrXrBQjM7K2m/973v1QNt857/abXWXXfd3mKhtjC0WYimgdhKYBqlJ554ojYrtoWfL9dsB0SLiCAywRIECiHi89dPgmgieMzvNIG26mHSRrpsEdVGNGEMb6bgWHXu3CIu8S1yOeqoozr9K+1UwNSLVCJbiJk0kWPmdkRM2RDJLkFETSLKScWwRJOfKtO7dLhZ0HY6ELg2oqkssa1QSTSd07jHwWe0jfCaFCgjtwU+rMpeajTjWWkn4dEUz6yeEHATL+QcyZaXe3xFY7uxLtN7M838PxEoEUiiWaKR54lAIrDQEHjmmWd6pvNhiCbywOQYZkUDLWLBJw2RtGWM7V6aK8XlZ8FGl9B0+t56mPPLX4RnvgoTNw0uQcb5WCIziFOYzmnMuiSIpvs0aRYOnXTSSXUaYbptI5oIGoLDn9DCF0Jbx29R/dEIMu+2kSVhn3vuuZpguo/gxeKwNddcs9bK8h09+OCDe6SuzqD44xlpIpt+kIMSTW2WRpNoi1agH3HEEbW5GvHzbF1EM4pREs02jCJc26+6QibhzT81TOcR1n310RQuIcg8Usk3FFFn9kfW+brC0WSO5tXq+JREYFgEkmgOi1iGTwQSgVlBoNRoDuOjiVjSeCF/NGbMszQwyIkB3yCKJDXJUawK7noYg6p4bcdkq5a70hz167S1tJil0JIhLcgLodWy+p7Ws02QUabn8KcUxl6MVi/TCiOUfCm7pLniG3kitj+SBhLZhf+rr75al58WFUkisTG89kDTyO8TmW0KIkt7SLuIrMZhwkIL639l69q43LMhpQgd7eNvfvObOj0fIdCelV+Z2vbRdI+ZXVjStq/lp59+WmvTm+VGELVxi9q4KvAjRgqRVmUOoaEMAh/Xmr/KFuUzYUDOvV+0wTSbXc/eTCf/TwRKBJJolmjkeSKQCCw0BEqiaaCdTaFdsqLaIJryXwRoEEtBMmnhmhrmhx56qKIRbhOaY8QHEQ2iA28+iHYW4PvHb7BLbFtEs4hM2q6IFs5Bw3beeefVK6JpXGkJ24TJXvqImTIgueIz+dP2mUA0vwIlndhNwCRFeIS76yh9QaMMiJxnk3b4tbqHsCGRJjaLL754fR5x4tdiJZp3mkSC0IZvZTy/Z0f0YFkKTawwzeswVB7k1+HchAER7ifSkY/6CtEuTORoO1MSgWERSKI5LGIZPhFIBGYFAabqME83ic1MZ2jrmtgXcqbTXtTTQwD71V9oCrtwcp/Wc9wE4aNBb5L18jn6fUISeR2FXQ0Q7pgglGV3nhOzJiL5/yAIJNEcBKUMkwgkArOOQKnR7BroZqoQTJvMoSmJQCKQCCQCs4tAEs3ZxTdTTwQSgQERKInmMD6aAybfC4bEbr/99r3/8yQRSAQSgURg9hBIojl72GbKiUAiMAQCc0U0mSh9mi8lEUgEEoFEYPYRSKI5+xhnDolAIjAAAiXR7OfjN0BSGSQRSAQSgURgRBBIojkiFZHFSAQWdQSSaC7qLSCfPxFIBOYjAkk052Ot5jMlAmOIQEk0Z9NHcwyhySInAolAIjC2CCTRHNuqy4InAvMLgSSa86s+82kSgUQgEYBAEs1sB4lAIjASCCTR/P9q8AWet99+eyTqJAuRCCQCicB0EUiiOV0EM34ikAjMCAIzRTRHYdPr6QCy3Xbb1Z8rbKZhQ/DJvurSjJP/JwKJQCKwsBFIormwayDzTwQSgRqB5557rvdloKn4aNof09eFfMrvtddeG0tUfbd6jz32mFB2104++eT629Xf//73608o5mbzEyDKfxKBRGCEEUiiOcKVk0VLBBYlBG655ZYe0Rzmy0A0fauuumq1yiqrVGussUadxrgSzXPOOae65557etXuk4W+yR6m9Jdeeqlac801q29+85uVb4KnJAKJQCIw6ggk0Rz1GsryJQKLCALPPvvslIgmeOL70j/5yU/Glmj6jvQGG2xQffXVV70a9z32lVZaqXr00Ud715z7Jvwmm2zSuzZqJ++8805fM3+/iYRvpTcnCr/61a+qTz75ZMqP6dvpNMPDyp/+9Kdho1RvvfVWZxztNNpqW6DXX3+9MnGaqsCuFJORQdwthPn888/LqPU5zHzg4LPPPlvgXl5IBAZFIInmoEhluEQgEZhVBGbCR3OciSZScOihh07AmMkcqTz22GN717/44ov62mKLLTYQiehFnOIJktaU999/v3lpwv8bbbRRddFFF1UfffRRZfN9xPPll1/uhaGlffPNN3v/lydI5cYbb1yVvrbrr79+tfvuu5fBFjiXz4MPPlgfd955Z3X88cdXyDs5++yzq9VXX32BOP0uiLv88ssP9RWpDz74oOLeoBzK43jkkUeqINaeuflsZRn233//6mc/+1l96amnnqpJKRLooNV++OGHy+ATzpHzFVZYoQqyiTguu+yyvfL3I5zIJKtAk2zSrh922GF1u/RupSQCU0EgieZUUMs4iUAiMOMIlETTAD0VWdhEEzlBMpCcPffcs7rpppuqQf1NjzzyyOrpp5+e8Ng0atIoNUqffvppTTSRoJkW5I4WFUm8/PLL62PppZeuTjvttEr5XLv00kurJZdcsvrwww9bs6cFo2299tpr6zg333xzj6jccMMNtWYR2eoS7gEHHHBA7/Yrr7xSbbHFFtWVV15ZPfDAA73rzRNE6vbbb6+JFTeMIO00hGuvvXZ19dVXT9AMN+M3/6eZ3HDDDSdcRvLPO++8Tq3jJZdcUuOzzTbbVDfeeGPl2ddaa63qhRdeqC688MJa23nggQdOSLP856CDDqoQbe1o6623rgmy547juuuu65HnMp7zfffdt36+jz/+uPryyy+r66+/vna7UGcIrLS75K9//Wurhhzeyk3Lvu222y5ARLvSy+uJQIlAEs0SjTxPBBKBhYbAuBNNWisLeWjzkE3/H3XUUdXKK69chVbw6KOPnqCpC7AN5Outt95AGkpkg5bz9NNPj+gz+lua7pGtTTfdtE7/4osvrn9d22GHHTrzPPXUU6u77767Jsh33HFHZRU9skPLuOuuu9bazTazP1KNHJksIKL77LNPhTCKg3wyOdNs0rKV2s6yIIjscccdV916663VZZdd1is3zBDRrbbaqqddLOM5py0888wzewR7s802qycLQbj9wuCss87qaQnLNKRPU4u0wYeLg2fZfvvta+K37rrrVu+9917VRjRpMc8///y67WgzO+64Y7Xlllt2kvkyX+fwOeOMM+rLO+20U3XKKafUbhi0m8qFtArTJdqqekZyxYWd56XNjPo75phjaiLflUZeTwS6EEii2YVMXk8EEoE5RWAmiearr746p2WngUKIkMqSBCFPX//612sSQBPZRdDuvffegYgj7eiKK65Ya9pKQjiTD4uQIGbk3HPPrS644IL6nKaTIHHIVpsg1EsssUStBaOJRTQRaAQQ0aTlpXFrI5rSY8JFcGjnmHG5DNx22229rJBcRB4GbYuhlBHJR9oQUsRJnsgWUXYmdHj3Eziry2E068ppAvDuu+/WRJE2MIimNoG42i2gjWhG+RC7559/vi4asgl/mliHtKIuyrLLDyl98skn63Cw22WXXep8pEU7HenEorIyPs0zkgrT3Xbbrdae0iKrP8cJJ5xQWZT24osvltHyPBEYGIEkmgNDlQETgURgNhGYSaJpoJxMmFSZgQ3EgxxIS5fQ4CEZ0muK1fDMjrRlSFCbGOCRqH6CzNKYbr755q37bPaLO+w9mjskg4Yu/DGZzxEwmq0uX0GExn1m4yCatJODEk3l5IvJNO+X6bnUsCFRSCK/R3g0hcmdHyTNsY3vlYWG1fMgsIg+kzoc+xF1Pp38Y5sShLB5XVn222+/mvDRaCKJiCY8aDQnI5qRHqKJ9CmrNGCvnTqQTQS6KSYGTPUmB0g4Qi8sdwMme+Z/v7S5Xe9FaDSljcw6tFkme5irP0Q5JRGYCgJJNKeCWsZJBBKBGUfgmWeeqckawmawnorQ+ojfNaCWaSIHzJvI3yBHv1XLSIF8g5SV+dDo0RbRrLUJ/8swT7fdj2sIE0LK/262BaFCXkpyAatrrrmm3qcUMWkThIT5uySatG2u025OptFE/vieIjdIU+ApPcIvFAFtyx8Zs70VMrbzzjvX5URICW1fyFVXXdXTcMa18pcW+tvf/nbtJ4rwxYGs0oaW/rIRD9mzGIeZOYjm/fffXxNcRFPZ+mk0aW9pFi0kUj6iTVlMFYJIKkuXIMYxWWEyp2EnCCOBfZdfbUk0Pae6pnnlM8zsriyPP/54nU7+SQSGRSCJ5rCIZfhEIBGYFQSsskXWHG1EYpBMg2iWK5wHiTfdMDaJX2aZZVqTYSb+1re+VfvntQVALPoRCHH4zB188METzPIG/zatXlsew15DjJQbQX7jjTfq6HwkmZP7LSoRMIgmckkjSYvo/Oc//3lNdpCnLtM5LJBZmklkSRzmdOQR0WGebjM9x/MJGyIPcZjLTzzxxMrWQSYL6ilWZkfY+EWwaRWRraZGE8FvLg6KePEbRNOvZ/fciKb2rDxdpvO99tqrOuSQQ2qCXZrOlR3pc1hgZrFRU9TL4YcfXseFn7LTvlsApV0h+n7XWWedHnFvplESTVhLL4j+csstV/vGNuPk/4nAoAgk0RwUqQyXCCQCs4rAfffdV5NMPo2ln+MwmQbR7LfwYZj0Bg1La2RgbwoN3Q9/+MNau9a8F//TdHURH2GQDeSO2Zo2jY8jjS1N6WwJ0zEtIqLEBEvCP5SbQT8JoqnczOf8LO2RyqRN04hstRFNZAeRUnex6ty51e7iW+RioUyXfyWNIlMvUolswUeayLE4tKTKxqzcJdwbEGvEro1oIl/9JIimMludzh0EBrCzkKmLaCKxJg1NH02aWFtDOUw2Sn/VKIdJgfbHTE+jKZ1SoxnhaCfh0RTkWxkRcGZ75Fy7tW+pe1w/aFvJIJaCZvr5fyKQRDPbQCKQCIwEAsgNbeZqq602dHksiKCxohmSBs0O4jGdTb6HKQSfRV/rQaZCnnjiidrsiFTxOUSemxop5UagugQ5WHzxxetnCm1v/IZptCvuVK8zcTPTExo+PpbIDA1qmM77+asG0RSfJs3CoZNOOqlOI0y3bUTTQiIEhz+h7XgIbZ39HREx/q9cDNrIkrA+YYpgum8botA++pIS8shfk1a4uVdkndF/NLGhvWVybyOafFb7SRBNYdQr7SC3DDiaIHQRzUizSTRL03mE6fqVh/YCb/6pzfbhfpvmnM8qYoxUKiuiTrsKS76ucLRFE23xbO100PVMeX1+IJBEc37UYz5FIjD2CPA/RKKOOOKIoZ+FtsrAyg/NtjgWe1h5i3DOlTDXW6ErX36EBnX+egiUBS20TuEzGGWyStrijS5BTBG8tgOhm2lBjmkxS6Elgy3yQmi17K1pYtAmyCh/wvCnFMZejLChkYUHX8ouQWLVYQjyRPhOSgOJ7NJq2m1A+WlRkSQS5B9ZtaCJ3ycy25SSwFrIY/GMOoyDJrdNa12mw59ROZnNr7jiih5Rp5G1cpuGss30j/yKx80gTOfOS6JJU2mf0Ka7BIKIKFokJl8TGqRQWctnMukKAl+WuTwPX2XXtC/kXH7eL5pNFoOURGBYBJJoDovYPA5vQCln+zRCTD7DSgwMw8abSngdMW3LdKTc8sMgFg7100mTZmbYciEqw8YxYMbAE9qiQcqtfP0EIZiq+bpful33aFssAkE0+2nLuuKP43X15pOTCNCoCA1iKd4FWrnmNj8PPfRQZfFWmyBYiA8iGkRHe+NvyQ+X+ZnfYJfYtghRRyYR8SB6NGzM0VZE07h2uRsw2UvfdlLKgORKA1Gk7aOVYyLvJwg3c3IpsAnyWl4vz7kZMHErQ4h3VF9q0sA8rTxNQUJNknzJB9byovX1zPH84ntuaZWizxCm+U7DENYmOA7nJgzetX4iHYRSfYUoD7cF2s6URGBYBJJoDovYPA6vE9FJhujU+P3omIYhnMyEPsU2F6LTNXOnZTHw8OkqD9qNu+66q7Mo4tDO2EiZMG/x6UI4SbPzri8O8MfgwuQ0DFmj2SpX+RpAYqBuy5K2zCITJkNicLNgYBCh+TDoxPYrBl7aHoOTa7QjbVv1DJL2VMKoIyTTgLioiDZi0cV8E+9Uk5iWz6hN92vX7tF6jqPo9/pNHNpWrMdz6itoNRe26Pu66icmtQu7jJn/eCGQRHO86mvGS4tA0hqYOTP78NeJGbRB3yIEph7nQb4mK4SVqqX063jLcMOeI4VMZQix8hvg/DLbMX3RjCFebZscR14WBnhm2g4aAxoQZj0YSIu/YFODIC6ti3QDKytLS3OeOPbV6ye0IxYvMO86fB3Et4rjfz5etBBdW/0glshiCK2D7VFiMOuHu0UFtEOEiRB25VdLmHr7EfTIs/z1LPzpgviW9/qdG9RgboIShL9f+PlyjxmYSTUlEUgEEoH5jEASzflcuwM+W2jtmJT46IQgoCV5iuvlLxLElygIl1+EofwfWWpbLVmmM5VzKzotDkCoQnOoLPKileQGoBz9fNl+/OMf11/yiIUI/J1icQbTW9cMXp7CEppHZl/EV3hHEE15u94mFhbQ/NAY9zva4rqGZDJFIqaBN98057SRSGtZn2U6zIImD7SXFiDQvppQ8I90jQnQKvBhhP8XrWTseThIXFgxGfqazKK0T5/61va62tcg2GWYRCARSATGAYEkmuNQS3NURkSz1Gg2tXRtxaCNsm1HKUheKRZmzIamisZSeREtxArBYkbnX2T1JxJKU9lFNJnYF1tssXphAB8phJiWMjDgP9e1UANR4GpAI8zBH+kLzTDNpBWrcHHeRaDkBxfaREKDWgptcpd2EMlF6mg1Of43TV3yjXTLNJ0jN/zEHPBx2AcSUYz/EU14DiM03hYywGYQEY7pmAY8FkAMEm8+hIFVuYn4fHimfIZEIBFIBNoQ3B7HhQAAHpxJREFUSKLZhsoiem0qGk3a0IVNNG0tQ/N6zjnn1IsQDOA0dn6RpS6iiQD70getIo2mlb2lWGkZWsvyepzTeNpOhxaQ9s/qVlpWEhrNCNv2S4vIJ8uWKyTM/s4REVq+NrO9++JYLBDfH7Z9TAgiSavcRVKFQ6wRYBhJA9FE9pwjzEh4aIkj3Zn+hVm/Z5zp/DK9RCARSAQSgblHIInm3GM+sjlORaPJhIxoIiVxrLTSSr1z12xbMxsaTcQotI9Wuq677rq1BpE2j6+grWS6iKYVs7SByCWiifDZWFv4OGz43I9oqkgE1+fq+Eci3czVnnUQoonc0erxh0SMrRpfaqmlapM/kzjc2sRefxbvHHfccT2iyWQeq/3lbzHPZMKnEmFF1MvDgqQgzJOlMZ378ezcDuYiv+mUNeMmAolAIpAITA2BJJpTw21exuqn0WRCbjOJ8tGM7/PGIhbatDj3i7DZTLtLpuqnVhJNhIkJ9je/+U29Rcjee+9dl7eLaAbxLYkmU7tFPnHwYZyMaNr6xZYlsT+iLUBuueWWgYgmjSYJjaJzZaBltFCkSyPJZUBdIJdWLhO+mOFbalsSJHIysd8hFwM+meWBcPsSyVRkKnUJM5uSB4ZTyTfjJAKJQCKQCIwmAkk0R7Ne5qxUPi2GZCBk/OUQttDo+Z+voZXYViYjUE2xEKZJIpurzpG6NpIqLavGbdETnzhrpt/v//DRZLKO/f5s20PDyFxuq6YuohnpNolmuTUSH9V+RNNWJsgoYhgbOfvyB3/JyTSaNKixYhw5C79W5mSrxm0zNJkgmuHbSBtKm0poecuNnrvSmWmiyb8T6Q7Nale+zes0wb7e8p3vfGdWNN/N/PL/RCARSAQSgblDIInm3GE98jnx82PGtIgE+bHpMqI26LZG8YA0nIOKFdk0aM2FMIPERzT5SNKY+jby3XffXa+Av+eee2rfS6u6JyOaVqkjfcOazq1o5+OJiMLKVzPK1eWTEU1EuNynstw30HeWfQaQxI4AbXj4agcMiDJwGSB8SwcRRJP5HVEvD+R5KhpNi5csUGqbkExWHhpzcbfZZpvJgub9RCARSAQSgTFCIInmGFXWbBWVf6EV1L6mESZledFCIiJ8Lmn6BpXllltu0KA1iaU5HGZD+EjcHoS0d4ix+DYcj42ifUOan6K9Kptf+Ij4fpmOg2i2LQaiKW3Tatq7s9Qa2rsTKRSWCRiJ6/e5N/doP4VtHnwz7QN6xhln1JrSrtXjTM4W9FiUFIeN67lA+J//KN/VLlFGWxrdf//9Ew4+mogmstxvL85murTb4nRpr5vhy//FoQlHNnNvyRKZPE8EEoFEYLwRSKI53vU37dJbWEIzxvzbJUgoM+2gMgzRRGCRoqmIBTNdX8JhvmbKZUbvImryRK65BtgSiSYw3Ab80pJaUY6MIVGlNLcTintIO43ed7/73Z5WMu7FL4KK/NIUWwSDFCP4XUdXXsqGJHIRoAGlFWw7mlpRC4kQZUQVUS/9M53DAVn1zW44zJVoh4imMqUkAolAIpAIzA8EkmjOj3qc8lPQ5g0iXV+naYs7aJptcYe5hkBNpj2brCwWDzE7z7SEZrUtXWR0snK3xWteK79L37w3jv/b6B3RtGNASiKQCCQCicD8QCCJ5vyox3yKRGDsEbByHtG0iX5Tgzz2DzeGD0DTXrpO2Kps0IVeXC/6Taa6tPRgYoHgglEKX+RPPvmkvDTUOR/oNheYfomwMDStAf3Cu6fspb91M3y/5xb25ZdfbkYZ6v+m9cYOGv3qIRIXpm3iCjMfhIjP2kb4/E0EhkEgieYwaGXYRCARmDUEuEIgmo7JBuRZK0Qm3EMA0bJHrt0VCJ9fe78OYt3w1SuuK9xEaPcRz5JEWahnAVqbIJUbb7zxhA8GKMdkOzHIx2TFwYWEW01YK7jH+DjDMGLXDX7fw8gll1xSL1D0DMrDosK9JcTHEHyRq0uWXnrp6v33368JPl9lBDAOz+RDC12CnNt5Isgm4rjsssv2dqboRziRSZaEJtm0sNInarmzcC9KSQSmgkASzamglnESgURgxhHgrxpEcxAy0yyAgdRgzPd0n332qW6//fYFBs5mnPy/HYHQ/tkNAqawtcMDzZYFcv1EXF+tsmWZnStsORZE5YYbbqg1i4hkl/Db5h8dYoGbT6LaG9YiuS5RRnVuyy9+0uHrSztu+7Grr766sqNDP6HBjGPrrbeufajjf7/2BbZPbZdYSKf8Pl/ruYWXt0mUvO27iwh3CSJP4GxxnGcuj36+9Hyr5WH3C5poO1vEzhsWH9oVoku8b+qsKfBGjD273SiaRLQZPv9PBNoQSKLZhkpeSwQSgTlHoCSa/Xxc2wpGI2NhF3LAvEuTZNN+W1/F9lwWT6UMhgDSYrszi8HsPGHPV9o4/yNAyF+XWGhmqzEL3ixSs7ODeAirdGg320iNOkOOaM4QUZMFhFEc5I1vM80mLRszfpsgssrrq18WyZH4tCsiaj/gLm05EnXWWWfV5BAp9ZUuZNmOEuWhjNJqijJqc9KnffUciNqee+5Zl8dCuzaiydRu8R1tqIWUyLkdJ9owauYZ/8tbHOLDDb42huzSbiqr90KYLlFmH4ugiRU39iCmzYz6s1gPkU9JBIZFIInmsIhl+EQgEZgVBKZKNBEQgyRzbSkIDQ0pjZDdFewekDIYArDyxSpCS+bDDSH9tJFIk+/X04IF0UT2EUBEE+micesiUSYMSCmii/jZ7eK2226LrGttqnpGdvkfNgUZpjFE6BBSxEmeQQwRUCZ0bgD9RDxEdxixSwMiHEQTSdOm5e/ZPVcb0ZRHlC8+/CANe/MivHHQSraRRb60Jlm0ncLCTlnUIe0uFwYk17233357gUdCppFUmNpazftiIqH+HL5SxmQf7WGBBPJCIjAJAkk0JwEobycCicDcIDBVommjeoQyNrkvS+vTlgZcg37bIF2GzfP/IuALYbY1Q45ogmkCnTsQki5BaGi+7CAQRBMxHZRoSpc20Gds/TI/lxo2JApJtPds+F+WZWFy5/tp/9zHHnusLgsNK62msvtAA5O6jy0wB3cJ30xf6WpK1yI1X0eDl/RLoukTsYMQzciHnyTNJrKMUMsvDqZrfrNN0a596IDWVRykFqnkbiB/n7r1qw67NNGh0ZT2BRdcUB/yQzphrv64BaQkAlNBIInmVFDLOIlAIjDjCDzzzDM9H81hNvCnRfrGN77RahJlilxjjTXqz6vOeIHncYLIOa0eE/XDDz9ckyjnDibZNpIHDoSEabkkmrRtrpsITKbRRP58nQy5QZosjCHSIz61ioAiRk1ByNQ1reHOO+9cL1xCSEnp28hvMjSIzTT8rww+UiEd5BTx8xUv2lVkq42gMvHTxpZE85BDDqlXzyO1k2k0+bUiqsz1yKTna2p9Eb/y62PNstM6h/8sk3l84lY8Anv4tUlJNJFyWmxtgBsKs7uPWfg4REoiMBUEkmhOBbWMkwgkAjOOQKnRHIZo+kZ6mBybhUIYkE0kIGVwBBA9xAcpox2kDXPuoCnr8pGUQxBN5JJGEvlybhENsmMlepNERcmk74tVNJPIkjjqDulDdJjREaAuKetZHuIwl3sWWkeEbplllumtzG5LhzYwvvTlPqI2yNZK2qxn9YsMM0N7VqQX0URW20znykxL7FmjHSN+Ps2L8MXBBSF2ACjLzXXECnl1Bj9E0SRBWogyou93nXXW6RH3Mr7zkmgqo/SC6Ht/TOZSEoGpIpBEc6rIZbxEIBGYUQSee+65KWk011prrXrBQrMwVtIaJA20KYMh4CtdTLGIEXOrc58x3W+//epz/zuYn20Z1CZBNBE85nOaQFv1MGkjXT692kY0kR3aQ+nHqnPnFseIb5GLHQW6/Ctt78PUi1QiW4iZNFdeeeU6DiKmbIhklyCitHelxnZYoslPleldOhai0XY6ELg2oqkssZq7JJrO+RnHwWe0jfDS5CojtwUaTWUvNZrxrLST8GiKZ1ZPCDhfTeSc1lZe7vEV5cdJukzvzTTz/0SgRCCJZolGnicCicBCQ8CK1qlsb4Q8MDmGWdFAayEILRyyYcsY2730++77QnvoEcsYQXniiScqpD8OpA3Jif/L3zYTdBBNj0aTZiW3FewIUZhu24gmgobgILgWvhDaOn6L6o9G0KKvNrIkrHIpq/sIHt9Esuaaa9aLwfiO8j0NUlffLP4oH01k0w9yUKJppwQaTaItWoHOv9Uzw9WzdRHNKEZJNNswinBtv+oCmYQ3/9QwnUdY99VHU0wakHmkkm8oos7sD0vabDiazNG8Wh2fkggMi0ASzWERy/CJQCIwKwiUpvMuMtGWMWJJ42VQpDFjng3TpwHfIEq7ZAVuyvAIBPkYNCbTN/zDn1I8q9CtXrY/JELJl7JLmiu+kSdi+yNpIJFdWs1XX321NtPTomoPJDaGR1ZpGvl9IrNNQWRpDxFR7S8OExZaWP8rW9fG5Z4NKUXoEHOft5XeaqutVpvTlV+Z4NkU95jZhSVt+1rSNpsENAVB1MY333zz2lWBWwNSiLSW7xENZRD4Zhrxv7JF+UwYkHPvF20wzWbXs0f8/E0E2hBIotmGSl5LBBKBOUegJJpT2bB9zgu8iGSI1NmbclChOUZ8mNaD6NDm8UG0cTnfv37uDLYtolmUb+zdSRNHw3beeefVK6KtJKclbBMme+kjZsqA5Ipvmx/aPlq5M888c4Gosd8qM7Hw/Eq7jtIXNBJC5DybtG2nFYKwIZF2PrALgvOmWKxE806TSBDa8K1UFodnR/RgWQpNrPvN6zBUHuTX4ZyWs00LXaYnHfmorxCaZW4LtJ0picCwCCTRHBaxDJ8IJAKzgkBJNIdZDDQrhclEewgg/cjMoIIA9ttwPzSFXem5T+s5bgIjGnSkrEv6fUISee23yKorzZm+jnDHBKGZNu1mSiIwLAJJNIdFLMMnAonArCBQEs1+RGVWMs9EE4FEIBFIBGYFgSSaswJrJpoIJALDIpBEc1jEMnwikAgkAqOPQBLN0a+jLGEisEggUBLNNJ0vElWeD5kIJAKLAAJJNBeBSs5HTATGAYEkmuNQS1nGRCARSASGQyCJ5nB4ZehEIBGYJQSSaM4SsJlsIpAIJAILEYEkmgsR/Mw6EUgE/otAEs3/YpFniUAikAjMFwSSaM6XmsznSATGHAFfdokvA6WP5phXZhY/EUgEEoH/IJBEM5tCIpAIjAQCNogOoulLKVOV3OtvqshlvEQgEUgEZh6BJJozj2mmmAgkAlNAoDSdT+XLQDbKfuihh6p11lmnev3116dQgoySCCQCiUAiMNMIJNGcaUQzvUQgEZgSAiXRHMZ07msqa665ZvX973+/WnXVVWut6GuvvTalMmSkRCARSAQSgZlFIInmzOKZqSUCicAUESiJ5rBfBopP5vlGM/N7Es0pVkIR7d13362+/PLL3hWE/umnn+793+/knXfe6ftN7aivtjR8wrJZf7797VviUxWftPztb387dPSpuHC89dZbnfnQuvf7RCVN/DCf+2xm1Pz+u+/GT/Ztc2kI8/nnnzeTqzHzaczPPvtsgXt5IREYFIEkmoMileESgURgVhGYDtGMgiXRDCSm//vee+9V66+/fvXBBx/Uid17773VD37wg2oQt4aNNtqouuiii6qPPvqo/u454vnyyy/3CvWjH/2oevPNN3v/lydI5cYbbzzhu9/Ksfvuu5fBFjg3OXnwwQfr484776yOP/74Kvx1zz777Gr11VdfIE6/C+Iuv/zy1fPPP98v2IR7sKJZVw7lcTzyyCO9b4d75uazlQnsv//+1c9+9rP60lNPPVWTUiTQ8fbbb1cPP/xwGXzCOXK+wgorVEE2Ecdll122V/5+hBOZZA1oks177rmnOuyww6pDDz208m6lJAJTQSCJ5lRQyziJQCIw4wiURHMY03lZkFEgmk8++WR12mmnVfvuu29lgdNUn6V8rrk+D+3fxRdfXCFtSMpee+1Va7b6aeyUU9xNNtmkuvbaa6sjjzyyuvnmm3tE5YYbbqjvI1td8tJLL1UHHHBA7/Yrr7xSbbHFFtWVV15ZPfDAA73rzRNlvP3222tidcstt9R5CkNDuPbaa1dXX3119eijjzajdf7vOTfccMMJ97/44ovqvPPO69Q6XnLJJdWll15abbPNNtWNN95YP/taa61VvfDCC9WFF15YSfPAAw+ckGb5z0EHHVQh2kju1ltvXSHInjuO6667rkeey3jOtTfP9/HHH9ea6Ouvv75C6C+//PIKgZV2l5g8qLOmwFu5v/rqq2rbbbddgIg2w+f/iUAbAkk021DJa4lAIjDnCIw70URCECTatzvuuKPWLB188MG1pihMsCeeeOIETd2cgzxghkjLSSedVJOU4447rtp1112rn/70p/X/K664YoX8dcmpp55a3X333dVNN91U47DddtvV8RBW6dButpEaGCFHJguI6D777FMhjOIgn0zOsKVlY8ZvE0RWeW+99dbqsssuq4MgywgaIrrVVlv1tIvN+LSFZ555Zl1W5GyzzTar9txzz97/rknrrLPO6mkJyzSkj9ghbTvssENN+jzL9ttvXxO/ddddt6IlbiOatJjnn39+RRN81FFHVTvuuGO15ZZbVh9++GGZRec5fM4444z6/k477VSdcsop1QYbbFC3QeVCWoXpEq4Mm266aU1yxYWd56XNjPo75phjaiLflUZeTwS6EEii2YVMXk8EEoE5RWAmiearr746p2Wngdp7770rJKz0sePb9vWvf70macyTtELjIMjQiy++WBeVluzkk0/uFbufNpIv5BJLLFFrwYJorrfeehUCiGgibjRubURTBjBCcBBdZtxjjz22uu2223p50wgiY3Dmf9gUZJjZGmlDSGkH5YlsEQSUCZ0bQD+hhV555ZVr03e/cOU95eQfzLcVUaQNDKKJGCOuv/71r1uJZpQPsQtTvTTOPffcWhNLGyutCy64oMyyPpcfUkqTLhzsdtlllzofaXFhiHSY35tC84ykwnS33XartacmEurPccIJJ1S/+93veu2hGT//TwQmQyCJ5mQI5f1EIBGYEwSeffbZae+jaTA22PfTuMXDGPwNzFdcccVARz+N0P3331/na1BvCsKCYJ5zzjmTEpxm3IX1P00s7SvSd8QRR9SaQOcOhKRLEBqaL2bjIJqI6aBEU7p8MZdccsn6l9m91LAhUUgiv8fwvyzLQqPMD/Loo4+uHnvssbosNKw0kcpO08jfcI899qjNwWXc8pzJuiTXcS8IYfwfv8qy33771YSPRjOIJjxoNCcjmpEOoon0Kas03n///XriYvKirSLQTdEumeppbZFwhF5Y7gZM9sz/fmlzu96L0GhKG5l1aLNM9jBXf4hySiIwFQSSaE4FtYyTCCQCM46AwTA2bKdBmYoMQzSRA6TlrrvuGuhg9uwSGiRlbwtDo4ds0ha1kaOuNBfmdRpN2kAEiUk5TP7+Z5Lteg6EhPm7JJq0ba5zJ5hMo8kX0AIc5AZpQrSI9AhTMiLatmodGVtjjTVqMrbzzjvXC5cQUkLbF3LVVVf1NJxxrfxlwv/2t79du0EEufaLrNKGtq3ARvYsxmFmDqJp8iEOoqls/TSatLc0ixYSKR9BNC2mCkEklaNLEOPwn7UgiMsBCS067LtM8SXRVGZabG3ALgPM7sry+OOPd2Wd1xOBvggk0ewLT95MBBKBuULA4BhEM8y2w+YdRLNc4TxsGlMJbzX2d7/73daozMTMyW1my9YII3AR0UMukR7aQdow5w6aMoSzS4JoIpc0krSIzi2MQnaQpy7TufSvueaamuRpD+Iwp9PkITrM020+jlEWYUPkIQ5zuWexdZCFSssss0xvZXaEjV8aS1pFZKup0bTVU3NxUMSL3yCafj2750Y0ETnl6TKdW2h1yCGH1AS7NJ0rO9LnsIreYqOm8F09/PDD67jwU3aTBAugEFNE368PGQRxb6ZREk1YSy+I/nLLLVf7xjbj5P+JwKAIJNEcFKkMlwgkArOOgMER2eynuelXiCCa/czc/eJP9R6tj7I3hSbLdUR0HOTTTz+tF40wv9Iww5FrAbOw8ziYn5mX2ySIJpLEfM7PklsEkzZNI7LVRjSRHURKHrHq3LmV6+Jb5GKhTJd/JY0iUy9SiWzRJEuTNlkc5FnZmJW7xGKgN954oyZ2bUQT+eonQTSV2ep0fscw4PNpIVMX0URiaYmbPpo0sRZPOSzQKf1VoxzaGK0lMz2NpnRKjWaEo52ER1OQb2VEwJntkXOaZfuWurfKKqvU2lbxukzvzTTz/0SgRCCJZolGnicCicBCRQDRQDQ333zzocph/0Jma2RCfITC/21mzqESHjAwM+niiy8+wXRusQoCwNS81FJL1eZaRGiUBUF54oknqueee653IG1WgJfX4rzNZzGIpuc0YbBK2wp2hChMt21E00IiBAfBtR0Poa2zvyMiZtsgK6PbyJKwyqSs7tsBILSPvhqFPPId5Xva3Cuyzqiq6jYjHGFybyOaVpX3kyCawiDGtIMWJ8HJIqguohlpNolmaTqPMF2/8kAm4c0/NUznEd79tgmcSQNijFQqK6JOuwpL2mw42qKJtvj000+P5PI3ERgYgSSaA0OVAROBRGC2EUASbDqNLCIcgwr/R4O8wZ2/JJ8yJK9tYB00zWHD0b7ZWofWziCPZPD3Q95ct2DjvvvuGzbZhR4+yMegBWH65k8Y/pTi2YvR6mXEH6HkS9klzL6IbUh8jQiW0kAiu7SadhtgrqZFRZIITSpBVu1vynzc1rZKAmvFOHcB7ScOC73atNZ14v/5Q7OtnMzmNMHIncVQNLL8jmko20z/yK943AzCdO68JJo0lfYJbfrHIoiIosmZfLk1IIXKWj4TDWUQ+LLM5bm6dhATBuRcfiZwNJssBimJwLAIJNEcFrEMnwgkArOKgIFuscUWq02fNFwpCxcBpA5RHlQQLMSHaT2Ijnrkb+lrN8zP/Aa7hCbYgh/5xt6dyB4NG3O0FdFWkiPwbcJkL31uAMqA5IqPKNL20coxkfcTWl3m5FJoV4O8ltfLc/6rTNzKEILUMuvT1jNPK09TkFD+q77k42tC8qL19cxBdMX33NIqhaZYmOa7AkNYm3A5nJsAIb/9RDoIpfoKUR5uC7SdKYnAsAgk0RwWsQyfCCQCs46ADayRTZqUyQbGWS/MIp6BVdTIzKCCACJLXYJ8BgFtC+Merec4ChcOmtMu6efKQRNJq7mwhca4q36a2tSFXdbMfzwQSKI5HvWUpUwEFjkE+D3SAFm12+VXt8iBkg+cCCQCicCYIZBEc8wqLIubCCxKCFhAYVEGM2hKIpAIJAKJwPghkERz/OosS5wIJAKJQCKQCCQCicBYIJBEcyyqKQuZCCQCiUAikAgkAonA+CGQRHP86ixLnAgkAolAIpAIJAKJwFggkERzLKopC5kIJAKJQCKQCCQCicD4IZBEc/zqLEucCCQCiUAikAgkAonAWCCQRHMsqikLmQgkAolAIpAIJAKJwPghkERz/OosS5wIJAKJQCKQCCQCicBYIJBEcyyqKQuZCCQCiUAikAgkAonA+CGQRHP86ixLnAgkAolAIpAIJAKJwFggkERzLKopC5kIJAKJQCKQCCQCicD4IZBEc/zqLEucCCQCiUAikAgkAonAWCCQRHMsqikLmQgkAolAIpAIJAKJwPghkERz/OosS5wIJAKJQCKQCCQCicBYIJBEcyyqKQuZCCQCiUAikAgkAonA+CGQRHP86ixLnAgkAolAIpAIJAKJwFggkERzLKopC5kIJAKJQCKQCCQCicD4IZBEc/zqLEucCCQCiUAikAgkAonAWCCQRHMsqikLmQgkAolAIpAIJAKJwPghkERz/Oqss8QffPBBlUdikG0g20C2gWwD49QGOge1vDEvEEiiOS+q8f8fYpw6lixrDoTZBrINZBvINqANpMxvBJJozqP6zU47O+1sA9kGsg1kGxi3NjCPhuF8lBYEkmi2gDKul8atc8ny5oCYbSDbQLaBbAPjOuZmuQdDIInmYDiNRajssLPDzjaQbSDbQLaBcWsDYzHAZiGnjEASzSlDN3oRx61zyfLmgJhtINtAtoFsA6M3mmaJZhKBJJozieZCTuu1116r8kgMsg1kG8g2kG1gnNrAQh46M/tZRiCJ5iwDPJfJP/vss1UeiUG2gWwD2QayDYxTG5jLcTLzmnsEkmjOPeazluMXX3xR5ZEYZBvINpBtINvAOLWBWRsUM+GRQCCJ5khUw8wU4l//+leVR2KQbSDbQLaBbAPj1AZmZgTMVEYVgSSao1ozUyjXOHUsWdYcCLMNZBvINpBtQBtImd8IJNGcR/WbnXZ22tkGsg1kG8g2MG5tYB4Nw/koLQgk0WwBZVwvjVvnkuXNATHbQLaBbAPZBsZ1zM1yD4bA/wGo63xFtN/xmgAAAABJRU5ErkJggg==;" vertex="1" parent="M1Kj_39iP2AGimqlnrWc-1">
          <mxGeometry x="-899.9999999999999" y="1590" width="622.09" height="170" as="geometry" />
        </mxCell>
        <mxCell id="tBodU4Q1IQQOX9P65XnI-185" value="" style="edgeStyle=orthogonalEdgeStyle;rounded=0;orthogonalLoop=1;jettySize=auto;html=1;" edge="1" parent="M1Kj_39iP2AGimqlnrWc-1" source="tBodU4Q1IQQOX9P65XnI-182" target="tBodU4Q1IQQOX9P65XnI-184">
          <mxGeometry relative="1" as="geometry" />
        </mxCell>
        <mxCell id="tBodU4Q1IQQOX9P65XnI-182" value="&lt;meta charset=&quot;utf-8&quot;&gt;&lt;span style=&quot;color: rgb(0, 0, 0); font-family: helvetica; font-size: 12px; font-style: normal; font-weight: 400; letter-spacing: normal; text-align: left; text-indent: 0px; text-transform: none; word-spacing: 0px; background-color: rgb(248, 249, 250); display: inline; float: none;&quot;&gt;另一种方法是用显著性水平直接进行计算&lt;/span&gt;" style="rounded=1;whiteSpace=wrap;html=1;align=left;" vertex="1" parent="M1Kj_39iP2AGimqlnrWc-1">
          <mxGeometry x="-260" y="1560" width="120" height="60" as="geometry" />
        </mxCell>
        <mxCell id="tBodU4Q1IQQOX9P65XnI-187" value="" style="edgeStyle=orthogonalEdgeStyle;rounded=0;orthogonalLoop=1;jettySize=auto;html=1;" edge="1" parent="M1Kj_39iP2AGimqlnrWc-1" source="tBodU4Q1IQQOX9P65XnI-184" target="tBodU4Q1IQQOX9P65XnI-188">
          <mxGeometry relative="1" as="geometry">
            <mxPoint x="-200.05882352941194" y="1740" as="targetPoint" />
          </mxGeometry>
        </mxCell>
        <mxCell id="tBodU4Q1IQQOX9P65XnI-184" value="2 以A的样本分布来计算显著水平alpha对应的小概率阈值" style="whiteSpace=wrap;html=1;rounded=1;align=left;" vertex="1" parent="M1Kj_39iP2AGimqlnrWc-1">
          <mxGeometry x="-260" y="1655" width="120" height="60" as="geometry" />
        </mxCell>
        <mxCell id="tBodU4Q1IQQOX9P65XnI-188" value="判断B是否在接受域&lt;br&gt;范围内" style="rhombus;whiteSpace=wrap;html=1;" vertex="1" parent="M1Kj_39iP2AGimqlnrWc-1">
          <mxGeometry x="-260" y="1754" width="120" height="80" as="geometry" />
        </mxCell>
      </root>
    </mxGraphModel>
  </diagram>
</mxfile>
